<svg width="229" height="224" viewBox="0 0 229 224" fill="none" xmlns="http://www.w3.org/2000/svg">
<g id="Release">
<ellipse id="Ellipse 7083" cx="114.959" cy="194.649" rx="114" ry="29.3517" fill="#E7E7E7"/>
<g id="Group 2035875659">
<g id="Group 2035875477">
<path id="Union" d="M81.1554 140.769C91.7084 140.769 101.216 142.486 108.049 145.225C111.468 146.595 114.168 148.202 115.997 149.936C117.824 151.667 118.716 153.455 118.716 155.227V167.038C118.716 168.81 117.824 170.598 115.997 172.329C114.168 174.062 111.468 175.669 108.049 177.04C101.216 179.779 91.7084 181.495 81.1554 181.495C71.6449 181.495 62.9779 180.101 56.3527 177.817C53.0396 176.675 50.2644 175.32 48.1554 173.827C46.1711 172.422 44.8296 170.934 44.1417 169.436L44.0128 169.136C43.7348 168.442 43.5949 167.743 43.5948 167.038V155.227C43.5948 153.455 44.4862 151.667 46.3126 149.936C48.1415 148.202 50.8418 146.595 54.2609 145.225C61.0937 142.485 70.6021 140.769 81.1554 140.769Z" fill="black" stroke="black" stroke-width="2" stroke-linejoin="round"/>
<path id="Intersect" d="M91.5727 180.928V166.063H82.7567V181.486C85.7996 181.436 88.7515 181.245 91.5727 180.928Z" fill="#B4B4B4"/>
<path id="Ellipse 6997" d="M81.1554 140.769C91.7084 140.769 101.216 142.486 108.049 145.225C111.468 146.595 114.168 148.202 115.997 149.936C117.824 151.667 118.716 153.455 118.716 155.227C118.716 156.998 117.824 158.786 115.997 160.518C114.168 162.251 111.468 163.858 108.049 165.229C101.216 167.968 91.7084 169.685 81.1554 169.685C70.6021 169.685 61.0937 167.968 54.2609 165.229C50.8418 163.858 48.1415 162.251 46.3126 160.518C44.4861 158.786 43.5949 156.998 43.5948 155.227C43.5948 153.455 44.4862 151.667 46.3126 149.936C48.1415 148.202 50.8418 146.595 54.2609 145.225C61.0937 142.485 70.6021 140.769 81.1554 140.769Z" fill="#D9D9D9" stroke="black" stroke-width="2"/>
<path id="Subtract" d="M114.102 164.283C109.562 166.932 103.085 169.006 95.4908 170.177L95.4907 180.357C103.266 179.108 109.79 176.873 114.102 174.038L114.102 164.283Z" fill="black"/>
</g>
<g id="Group 2035875478">
<path id="Union_2" d="M81.1554 128.956C91.7084 128.956 101.216 130.673 108.049 133.412C111.468 134.783 114.168 136.39 115.997 138.123C117.824 139.854 118.716 141.643 118.716 143.414V155.226C118.716 156.997 117.824 158.785 115.997 160.517C114.168 162.25 111.468 163.857 108.049 165.228C101.216 167.967 91.7084 169.683 81.1554 169.683C71.6449 169.683 62.9779 168.289 56.3527 166.005C53.0396 164.863 50.2644 163.508 48.1554 162.015C46.1711 160.61 44.8296 159.121 44.1417 157.623L44.0128 157.323C43.7348 156.629 43.5949 155.93 43.5948 155.226V143.414C43.5948 141.643 44.4862 139.854 46.3126 138.123C48.1415 136.39 50.8418 134.783 54.2609 133.412C61.0937 130.673 70.6021 128.956 81.1554 128.956Z" fill="black" stroke="black" stroke-width="2" stroke-linejoin="round"/>
<path id="Intersect_2" d="M91.5728 169.115V154.25H82.7568V169.672C85.7996 169.622 88.7515 169.431 91.5728 169.115Z" fill="#FF2A2A"/>
<path id="Ellipse 6997_2" d="M81.1554 128.956C91.7084 128.956 101.216 130.673 108.049 133.412C111.468 134.783 114.168 136.39 115.997 138.123C117.824 139.854 118.716 141.643 118.716 143.414C118.716 145.186 117.824 146.974 115.997 148.705C114.168 150.438 111.468 152.045 108.049 153.416C101.216 156.155 91.7084 157.872 81.1554 157.872C70.6021 157.872 61.0937 156.155 54.2609 153.416C50.8418 152.045 48.1415 150.438 46.3126 148.705C44.4861 146.974 43.5949 145.186 43.5948 143.414C43.5948 141.643 44.4862 139.854 46.3126 138.123C48.1415 136.39 50.8418 134.783 54.2609 133.412C61.0937 130.673 70.6021 128.956 81.1554 128.956Z" fill="#D9D9D9" stroke="black" stroke-width="2"/>
<path id="Subtract_2" d="M114.102 152.472C109.562 155.121 103.085 157.195 95.4909 158.366L95.4908 168.545C103.266 167.296 109.791 165.061 114.102 162.226L114.102 152.472Z" fill="#FF2A2A"/>
</g>
<g id="Group 2035875479">
<path id="Union_3" d="M81.1553 117.146C91.7084 117.146 101.216 118.863 108.049 121.602C111.468 122.972 114.168 124.579 115.997 126.312C117.824 128.044 118.716 129.832 118.716 131.604V143.415C118.716 145.186 117.824 146.975 115.997 148.706C114.168 150.439 111.468 152.046 108.049 153.417C101.216 156.156 91.7083 157.872 81.1553 157.872C71.6448 157.872 62.9778 156.478 56.3526 154.194C53.0396 153.052 50.2644 151.697 48.1553 150.204C46.1711 148.799 44.8295 147.311 44.1417 145.812L44.0128 145.513C43.7348 144.819 43.5948 144.12 43.5948 143.415V131.604C43.5948 129.832 44.4861 128.044 46.3126 126.312C48.1414 124.579 50.8418 122.972 54.2608 121.602C61.0936 118.862 70.6021 117.146 81.1553 117.146Z" fill="black" stroke="black" stroke-width="2" stroke-linejoin="round"/>
<path id="Intersect_3" d="M91.5728 157.305V142.44H82.7568V157.863C85.7996 157.813 88.7515 157.622 91.5728 157.305Z" fill="#FF2A2A"/>
<path id="Ellipse 6997_3" d="M81.1553 117.146C91.7084 117.146 101.216 118.863 108.049 121.602C111.468 122.972 114.168 124.579 115.997 126.312C117.824 128.044 118.716 129.832 118.716 131.604C118.716 133.375 117.824 135.163 115.997 136.895C114.168 138.628 111.468 140.235 108.049 141.605C101.216 144.344 91.7083 146.062 81.1553 146.062C70.6021 146.062 61.0936 144.345 54.2608 141.605C50.8417 140.235 48.1414 138.628 46.3126 136.895C44.4861 135.163 43.5948 133.375 43.5948 131.604C43.5948 129.832 44.4861 128.044 46.3126 126.312C48.1414 124.579 50.8418 122.972 54.2608 121.602C61.0936 118.862 70.6021 117.146 81.1553 117.146Z" fill="white" stroke="black" stroke-width="2"/>
<path id="Subtract_3" d="M114.102 140.661C109.562 143.31 103.085 145.384 95.4909 146.555L95.4908 156.734C103.266 155.485 109.791 153.251 114.102 150.416L114.102 140.661Z" fill="#FF2A2A"/>
</g>
<g id="Group 2035875474">
<path id="Union_4" d="M142.651 151.358C153.204 151.358 162.712 153.075 169.545 155.814C172.964 157.185 175.664 158.792 177.493 160.525C179.319 162.257 180.212 164.045 180.212 165.816V177.628C180.211 179.399 179.319 181.188 177.493 182.919C175.664 184.652 172.964 186.259 169.545 187.63C162.712 190.369 153.204 192.085 142.651 192.085C133.14 192.085 124.473 190.691 117.848 188.407C114.535 187.265 111.76 185.91 109.651 184.417C107.667 183.012 106.325 181.524 105.637 180.025L105.508 179.726C105.23 179.032 105.091 178.333 105.09 177.628V165.816C105.09 164.045 105.982 162.257 107.808 160.525C109.637 158.792 112.337 157.185 115.756 155.814C122.589 153.075 132.098 151.358 142.651 151.358Z" fill="black" stroke="black" stroke-width="2" stroke-linejoin="round"/>
<path id="Intersect_4" d="M153.068 191.518V176.653H144.252V192.076C147.295 192.026 150.247 191.835 153.068 191.518Z" fill="white"/>
<path id="Ellipse 6997_4" d="M142.651 151.358C153.204 151.358 162.712 153.075 169.545 155.814C172.964 157.185 175.664 158.792 177.493 160.525C179.319 162.257 180.212 164.045 180.212 165.816C180.212 167.588 179.319 169.376 177.493 171.107C175.664 172.841 172.964 174.448 169.545 175.818C162.712 178.557 153.204 180.274 142.651 180.274C132.098 180.274 122.589 178.557 115.756 175.818C112.337 174.448 109.637 172.841 107.808 171.107C105.982 169.376 105.09 167.588 105.09 165.816C105.09 164.045 105.982 162.257 107.808 160.525C109.637 158.792 112.337 157.185 115.756 155.814C122.589 153.075 132.098 151.358 142.651 151.358Z" fill="#D9D9D9" stroke="black" stroke-width="2"/>
<path id="Subtract_4" d="M175.598 174.874C171.058 177.523 164.581 179.597 156.987 180.768L156.986 190.947C164.762 189.698 171.286 187.464 175.598 184.629L175.598 174.874Z" fill="#FF2A2A"/>
</g>
<g id="Group 2035875473">
<path id="Union_5" d="M142.651 139.547C153.204 139.547 162.712 141.264 169.545 144.003C172.964 145.374 175.664 146.981 177.493 148.714C179.319 150.445 180.212 152.233 180.212 154.005V165.816C180.211 167.588 179.319 169.376 177.493 171.107C175.664 172.841 172.964 174.448 169.545 175.818C162.712 178.557 153.204 180.273 142.651 180.273C133.14 180.273 124.473 178.88 117.848 176.596C114.535 175.454 111.76 174.098 109.651 172.605C107.667 171.201 106.325 169.712 105.637 168.214L105.508 167.914C105.23 167.22 105.091 166.521 105.09 165.816V154.005C105.09 152.233 105.982 150.445 107.808 148.714C109.637 146.981 112.337 145.374 115.756 144.003C122.589 141.264 132.098 139.547 142.651 139.547Z" fill="black" stroke="black" stroke-width="2" stroke-linejoin="round"/>
<path id="Intersect_5" d="M153.068 179.706V164.842H144.252V180.264C147.295 180.214 150.247 180.023 153.068 179.706Z" fill="white"/>
<path id="Ellipse 6997_5" d="M142.651 139.547C153.204 139.547 162.712 141.264 169.545 144.003C172.964 145.374 175.664 146.981 177.493 148.714C179.319 150.445 180.212 152.233 180.212 154.005C180.212 155.776 179.319 157.565 177.493 159.296C175.664 161.029 172.964 162.636 169.545 164.007C162.712 166.746 153.204 168.463 142.651 168.463C132.098 168.463 122.589 166.746 115.756 164.007C112.337 162.636 109.637 161.029 107.808 159.296C105.982 157.565 105.09 155.776 105.09 154.005C105.09 152.233 105.982 150.445 107.808 148.714C109.637 146.981 112.337 145.374 115.756 144.003C122.589 141.264 132.098 139.547 142.651 139.547Z" fill="#D9D9D9" stroke="black" stroke-width="2"/>
<path id="Subtract_5" d="M175.598 163.062C171.058 165.711 164.581 167.785 156.986 168.955L156.986 179.135C164.762 177.886 171.286 175.651 175.598 172.816L175.598 163.062Z" fill="#FF2A2A"/>
</g>
<g id="Group 2035875470">
<path id="Union_6" d="M142.651 127.735C153.204 127.735 162.712 129.452 169.544 132.191C172.964 133.562 175.664 135.169 177.493 136.902C179.319 138.634 180.211 140.422 180.211 142.193V154.005C180.211 155.776 179.319 157.565 177.493 159.296C175.664 161.029 172.963 162.636 169.544 164.007C162.712 166.746 153.204 168.462 142.651 168.462C133.14 168.462 124.473 167.068 117.848 164.784C114.535 163.642 111.76 162.287 109.651 160.794C107.667 159.389 106.325 157.901 105.637 156.402L105.508 156.103C105.23 155.409 105.09 154.71 105.09 154.005V142.193C105.09 140.422 105.982 138.634 107.808 136.902C109.637 135.169 112.337 133.562 115.756 132.191C122.589 129.452 132.098 127.735 142.651 127.735Z" fill="black" stroke="black" stroke-width="2" stroke-linejoin="round"/>
<path id="Intersect_6" d="M153.068 167.895V153.03H144.253V168.452C147.295 168.403 150.247 168.211 153.068 167.895Z" fill="white"/>
<path id="Ellipse 6997_6" d="M142.651 127.735C153.204 127.735 162.712 129.452 169.544 132.191C172.964 133.562 175.664 135.169 177.493 136.902C179.319 138.634 180.211 140.422 180.211 142.193C180.211 143.965 179.319 145.753 177.493 147.484C175.664 149.218 172.964 150.825 169.544 152.195C162.712 154.934 153.204 156.651 142.651 156.651C132.098 156.651 122.589 154.934 115.756 152.195C112.337 150.825 109.637 149.218 107.808 147.484C105.982 145.753 105.09 143.965 105.09 142.193C105.09 140.422 105.982 138.634 107.808 136.902C109.637 135.169 112.337 133.562 115.756 132.191C122.589 129.452 132.098 127.735 142.651 127.735Z" fill="white" stroke="black" stroke-width="2"/>
<path id="Subtract_6" d="M175.598 151.251C171.058 153.9 164.581 155.974 156.986 157.145L156.986 167.324C164.762 166.075 171.286 163.841 175.598 161.006L175.598 151.251Z" fill="#FF2A2A"/>
</g>
<g id="Group 2035875475">
<path id="Union_7" d="M135.031 117.146C145.584 117.146 155.092 118.863 161.925 121.602C165.344 122.972 168.044 124.579 169.873 126.312C171.7 128.044 172.592 129.832 172.592 131.604V143.415C172.592 145.186 171.699 146.975 169.873 148.706C168.044 150.439 165.344 152.046 161.925 153.417C155.092 156.156 145.584 157.872 135.031 157.872C125.521 157.872 116.854 156.478 110.228 154.194C106.915 153.052 104.14 151.697 102.031 150.204C100.047 148.799 98.7053 147.311 98.0175 145.812L97.8885 145.513C97.6106 144.819 97.4706 144.12 97.4706 143.415V131.604C97.4706 129.832 98.3619 128.044 100.188 126.312C102.017 124.579 104.718 122.972 108.137 121.602C114.969 118.862 124.478 117.146 135.031 117.146Z" fill="black" stroke="black" stroke-width="2" stroke-linejoin="round"/>
<path id="Vector 4108" d="M119.889 145.358V156.779" stroke="#FF2A2A" stroke-width="2"/>
<path id="Intersect_7" d="M173.591 132.898H123.678V158.191C127.267 158.634 131.08 158.872 135.031 158.872C156.327 158.872 173.591 151.951 173.591 143.414V132.898Z" fill="black"/>
<path id="Intersect_8" d="M145.448 157.305V142.44H136.632V157.863C139.675 157.813 142.627 157.622 145.448 157.305Z" fill="white"/>
<path id="Ellipse 6997_7" d="M135.031 117.146C145.584 117.146 155.092 118.863 161.925 121.602C165.344 122.972 168.044 124.579 169.873 126.312C171.7 128.044 172.592 129.832 172.592 131.604C172.592 133.375 171.7 135.163 169.873 136.895C168.044 138.628 165.344 140.235 161.925 141.605C155.092 144.344 145.584 146.062 135.031 146.062C124.478 146.062 114.969 144.345 108.137 141.605C104.718 140.235 102.017 138.628 100.188 136.895C98.3619 135.163 97.4706 133.375 97.4706 131.604C97.4706 129.832 98.3619 128.044 100.188 126.312C102.017 124.579 104.718 122.972 108.137 121.602C114.969 118.862 124.478 117.146 135.031 117.146Z" fill="white" stroke="black" stroke-width="2"/>
<path id="Subtract_7" d="M167.978 140.661C163.438 143.31 156.961 145.384 149.367 146.555L149.366 156.734C157.142 155.485 163.666 153.251 167.978 150.416L167.978 140.661Z" fill="#FF2A2A"/>
</g>
<g id="Group 2035875480">
<path id="Union_8" d="M145.706 104.135C156.259 104.135 165.766 105.852 172.599 108.591C176.018 109.961 178.719 111.568 180.547 113.302C182.374 115.033 183.266 116.821 183.266 118.593V130.404C183.266 132.176 182.374 133.964 180.547 135.695C178.719 137.429 176.018 139.036 172.599 140.406C165.766 143.145 156.259 144.861 145.706 144.861C136.195 144.861 127.528 143.467 120.903 141.184C117.59 140.042 114.815 138.686 112.706 137.193C110.721 135.789 109.38 134.3 108.692 132.802L108.563 132.502C108.285 131.808 108.145 131.109 108.145 130.404V118.593C108.145 116.821 109.036 115.033 110.863 113.302C112.692 111.568 115.392 109.961 118.811 108.591C125.644 105.852 135.152 104.135 145.706 104.135Z" fill="black" stroke="black" stroke-width="2" stroke-linejoin="round"/>
<path id="Vector 4108_2" d="M130.563 132.348V143.769" stroke="#FF2A2A" stroke-width="2"/>
<path id="Intersect_9" d="M184.266 119.888H134.352V145.18C137.942 145.623 141.754 145.861 145.706 145.861C167.002 145.861 184.266 138.941 184.266 130.403V119.888Z" fill="black"/>
<path id="Ellipse 6997_8" d="M145.706 104.135C156.259 104.135 165.766 105.852 172.599 108.591C176.018 109.961 178.719 111.568 180.547 113.302C182.374 115.033 183.266 116.821 183.266 118.593C183.266 120.364 182.374 122.153 180.547 123.884C178.719 125.617 176.018 127.224 172.599 128.595C165.766 131.334 156.259 133.051 145.706 133.051C135.152 133.051 125.644 131.334 118.811 128.595C115.392 127.224 112.692 125.617 110.863 123.884C109.036 122.153 108.145 120.364 108.145 118.593C108.145 116.821 109.036 115.033 110.863 113.302C112.692 111.568 115.392 109.961 118.811 108.591C125.644 105.852 135.152 104.135 145.706 104.135Z" fill="white" stroke="black" stroke-width="2"/>
<path id="Subtract_8" d="M178.652 127.65C174.112 130.299 167.635 132.373 160.041 133.544L160.041 143.724C167.816 142.475 174.34 140.24 178.652 137.405L178.652 127.65Z" fill="#FF2A2A"/>
</g>
<g id="Group 2035875467">
<path id="Union_9" d="M75.519 165.907C86.072 165.907 95.5798 167.624 102.413 170.363C105.832 171.734 108.532 173.341 110.361 175.074C112.187 176.805 113.08 178.594 113.08 180.365V192.177C113.079 193.948 112.187 195.737 110.361 197.468C108.532 199.201 105.832 200.808 102.413 202.179C95.5798 204.918 86.0719 206.634 75.519 206.634C66.0085 206.634 57.3414 205.24 50.7162 202.956C47.4032 201.814 44.628 200.459 42.519 198.966C40.5347 197.561 39.1931 196.073 38.5053 194.574L38.3764 194.274C38.0984 193.58 37.9585 192.881 37.9584 192.177V180.365C37.9584 178.594 38.8497 176.805 40.6762 175.074C42.505 173.341 45.2054 171.734 48.6245 170.363C55.4573 167.624 64.9657 165.907 75.519 165.907Z" fill="black" stroke="black" stroke-width="2" stroke-linejoin="round"/>
<path id="Intersect_10" d="M85.9363 206.067V191.202H77.1204V206.624C80.1632 206.575 83.1151 206.383 85.9363 206.067Z" fill="#FF2A2A"/>
<path id="Intersect_11" d="M108.466 200.212V180.375H89.8544V206.531C97.6296 205.282 104.154 203.047 108.466 200.212Z" fill="#FF2A2A"/>
<path id="Ellipse 6997_9" d="M75.519 165.907C86.072 165.907 95.5798 167.624 102.413 170.363C105.832 171.734 108.532 173.341 110.361 175.074C112.187 176.805 113.08 178.594 113.08 180.365C113.079 182.137 112.187 183.925 110.361 185.656C108.532 187.39 105.832 188.997 102.413 190.367C95.5798 193.106 86.072 194.823 75.519 194.823C64.9657 194.823 55.4573 193.106 48.6245 190.367C45.2054 188.997 42.5051 187.39 40.6762 185.656C38.8497 183.925 37.9585 182.137 37.9584 180.365C37.9584 178.594 38.8497 176.805 40.6762 175.074C42.505 173.341 45.2054 171.734 48.6245 170.363C55.4573 167.624 64.9657 165.907 75.519 165.907Z" fill="white" stroke="black" stroke-width="2"/>
</g>
<g id="Group 2035875471">
<path id="Union_10" d="M117.727 19.9607L125.122 27.3914C130.12 32.4131 131.825 39.9378 130.38 48.1744C128.936 56.4072 124.35 65.2542 116.922 72.7181C109.494 80.1817 100.69 84.7888 92.497 86.24C84.2999 87.6918 76.8112 85.9782 71.8136 80.9565L64.4185 73.5259C59.4211 68.5042 57.7162 60.98 59.161 52.7435C60.6052 44.5108 65.1903 35.6643 72.6182 28.2005C80.0463 20.7367 88.8509 16.1291 97.0443 14.6779C105.241 13.2261 112.729 14.9392 117.727 19.9607Z" fill="#CCC2D6" stroke="black" stroke-width="2" stroke-linejoin="round"/>
<path id="Ellipse 6998" d="M117.727 19.9607C122.725 24.9824 124.43 32.5071 122.985 40.7437C121.541 48.9765 116.955 57.8236 109.527 65.2874C102.099 72.751 93.2952 77.3582 85.102 78.8093C76.9048 80.2612 69.4162 78.5475 64.4185 73.5259C59.4211 68.5042 57.7162 60.98 59.161 52.7435C60.6052 44.5108 65.1903 35.6643 72.6182 28.2005C80.0463 20.7367 88.8509 16.1291 97.0443 14.6779C105.241 13.2261 112.729 14.9392 117.727 19.9607Z" fill="white" stroke="black" stroke-width="2"/>
<path id="Ellipse 6999" d="M111.185 26.5354C114.918 30.2858 116.209 35.9235 115.119 42.1373C114.029 48.3475 110.568 55.036 104.946 60.6846C99.3247 66.3331 92.6681 69.8115 86.4878 70.9062C80.3038 72.0013 74.6937 70.7034 70.9613 66.9531C67.2288 63.2026 65.9364 57.565 67.0264 51.3511C68.1158 45.141 71.5783 38.4531 77.1997 32.8045C82.8211 27.156 89.4771 23.677 95.6574 22.5823C101.842 21.487 107.453 22.7849 111.185 26.5354Z" fill="white" stroke="black" stroke-width="2"/>
<g id="Union_11">
<path d="M85.412 48.6574C85.2705 48.8857 85.036 49.0697 84.7677 49.1627L84.7668 49.164L71.3016 53.8274C70.937 53.9543 70.5651 53.8826 70.3791 53.6487C70.2137 53.4408 70.2265 53.1261 70.4112 52.8282L73.0324 48.6005C73.1739 48.3722 73.4084 48.1882 73.6767 48.0952L81.1171 45.5174C81.4388 45.4057 81.7221 45.1835 81.8921 44.9093L83.4827 42.3437C83.6528 42.0694 83.6906 41.7738 83.585 41.5343L81.17 36.0093C81.0829 35.81 81.1142 35.5652 81.2558 35.3369L83.8657 31.1273C84.0703 30.7974 84.432 30.5591 84.7881 30.5187C84.9187 30.505 85.0397 30.5148 85.1469 30.5469C85.3246 30.6 85.4624 30.7122 85.5329 30.8736L89.9065 40.8743C89.9935 41.0736 89.9622 41.3184 89.8206 41.5467L85.412 48.6574Z" fill="black"/>
<path d="M109.277 37.8461C109.495 38.0565 109.502 38.4069 109.297 38.7368L109.294 38.7359L106.684 42.9456C106.543 43.1739 106.303 43.3564 106.027 43.4469L98.3545 45.9539C98.0212 46.0621 97.7322 46.2825 97.5621 46.5568L95.9715 49.1224C95.8014 49.3966 95.7703 49.6926 95.8852 49.9366L98.5341 55.5316C98.6296 55.7335 98.6031 55.9797 98.4615 56.208L95.8403 60.4358C95.6556 60.7337 95.328 60.9541 94.9851 61.01C94.5971 61.0738 94.2543 60.9316 94.123 60.6547L89.3275 50.5276C89.232 50.3257 89.2586 50.0795 89.4001 49.8512L93.8088 42.7404C93.9503 42.5121 94.1896 42.3296 94.4664 42.2391L108.355 37.7024C108.578 37.6305 108.799 37.6241 108.986 37.6798C109.098 37.7134 109.196 37.7693 109.277 37.8461Z" fill="black"/>
</g>
</g>
<g id="Group 2035875472">
<path id="Union_12" d="M119.045 69.9863L121.68 62.014C123.057 57.8492 127.674 54.9378 134.534 53.869C141.337 52.8091 150.055 53.6271 159.049 56.6283C168.043 59.6295 175.516 64.2142 180.336 69.1531C185.197 74.1334 187.164 79.2414 185.787 83.4063L183.152 91.3787C181.776 95.5436 177.159 98.4548 170.299 99.5237C163.495 100.584 154.777 99.7656 145.784 96.7644C136.79 93.7632 129.317 89.1784 124.496 84.2395C119.635 79.2591 117.669 74.1513 119.045 69.9863Z" fill="#CCC2D6" stroke="black" stroke-width="2" stroke-linejoin="round"/>
<path id="Vector 4105" d="M183.951 73.3701L181.54 80.6379" stroke="black" stroke-width="2"/>
<path id="Ellipse 6999_2" d="M119.045 69.9863C120.422 65.8214 125.038 62.9102 131.899 61.8413C138.702 60.7814 147.42 61.5994 156.414 64.6006C165.408 67.6018 172.881 72.1866 177.701 77.1255C182.562 82.1058 184.529 87.2137 183.152 91.3787C181.776 95.5436 177.159 98.4548 170.299 99.5237C163.495 100.584 154.777 99.7656 145.784 96.7644C136.79 93.7632 129.317 89.1784 124.496 84.2395C119.635 79.2591 117.669 74.1513 119.045 69.9863Z" fill="white" stroke="black" stroke-width="2"/>
</g>
</g>
</g>
</svg>
