<svg width="20" height="20" viewBox="0 0 20 20" fill="none" xmlns="http://www.w3.org/2000/svg">
<g id="BVI">
<path id="Vector" d="M17.4998 3.99805H11.9915V4.41514C12.2583 4.45538 12.4914 4.49745 12.6931 4.54597L11.1302 10.148C10.8257 11.3144 10.5008 12.539 10.2126 13.7857C10.1677 13.8772 10.1238 13.9662 10.081 14.0529H10.0349C9.68531 12.714 9.35922 11.3976 9.03289 10.148L7.49368 4.55126C7.68434 4.50619 7.90669 4.46319 8.16387 4.41514V3.99805H2.5V4.41514C2.83017 4.46113 3.10752 4.5078 3.34477 4.56344L7.65816 16.998H12.4585L16.6507 4.5846C16.8886 4.51999 17.1657 4.46756 17.5 4.41514V3.99805H17.4998Z" fill="white"/>
</g>
</svg>
