<svg width="20" height="20" viewBox="0 0 20 20" fill="none" xmlns="http://www.w3.org/2000/svg">
<g id="Community">
<path id="Vector" d="M14.9811 16.8671V17.5058H1.25488V16.8671C1.25488 14.5083 6.52488 15.0133 6.52488 12.7158C6.52488 12.5071 6.53113 12.3021 6.52863 12.0583C6.27738 11.7833 5.70238 11.0733 5.47363 10.1058C5.24113 9.99957 5.04738 9.76707 4.92363 9.44332C4.75238 8.98582 4.73988 8.35457 5.07488 7.94582C5.07363 7.93832 5.07238 7.93332 5.07238 7.92457C5.00988 7.35207 4.84363 5.82957 5.75988 4.83332C6.28863 4.25957 7.07988 3.80582 8.10988 3.77832C9.14113 3.80582 9.93113 4.25832 10.4599 4.83332C11.3761 5.82957 11.2099 7.35207 11.1474 7.92457C11.1474 7.93207 11.1449 7.93707 11.1436 7.94582C11.4786 8.35457 11.4649 8.98457 11.2936 9.44207C11.1699 9.76707 10.9749 9.99957 10.7411 10.1071C10.5124 11.0746 9.93488 11.7846 9.68238 12.0596C9.67863 12.3033 9.67613 12.5333 9.67613 12.7421C9.67613 14.9946 14.9811 14.4908 14.9811 16.8671ZM15.0674 12.9571C15.0674 12.8133 15.0699 12.6546 15.0711 12.4858C15.2449 12.2958 15.6449 11.8058 15.8024 11.1383C15.9636 11.0633 16.0986 10.9033 16.1836 10.6796C16.3024 10.3633 16.3111 9.92832 16.0799 9.64582C16.0811 9.64082 16.0824 9.63707 16.0824 9.63207C16.1261 9.23707 16.2411 8.18582 15.6074 7.49707C15.2424 7.10082 14.6961 6.78707 13.9849 6.76832C13.4749 6.78207 13.0549 6.94957 12.7199 7.18707C12.5886 7.28207 12.4661 7.38457 12.3624 7.49707C11.7299 8.18582 11.8449 9.23707 11.8874 9.63207C11.8874 9.63707 11.8886 9.64082 11.8899 9.64582C11.6586 9.92832 11.6674 10.3633 11.7861 10.6796C11.8636 10.8858 11.9874 11.0308 12.1324 11.1121C12.1449 11.1183 12.1536 11.1333 12.1661 11.1383C12.3236 11.8058 12.7211 12.2958 12.8949 12.4858C12.8974 12.6533 12.8924 12.7958 12.8924 12.9396C12.8924 13.1946 12.7911 13.3958 12.6336 13.5671C12.7486 13.6071 12.8599 13.6458 12.9536 13.6771C14.2311 14.1133 15.9211 14.6996 16.2711 16.2458H18.7311V15.8058C18.7299 14.1646 15.0674 14.5133 15.0674 12.9571Z" fill="white"/>
</g>
</svg>
