<svg width="20" height="20" viewBox="0 0 20 20" fill="none" xmlns="http://www.w3.org/2000/svg">
<g id="shujufenxi 1">
<path id="Vector" d="M14.7917 9.58691H16.0417C16.8751 9.58691 17.2917 10.0036 17.2917 10.8369V15.8369C17.2917 16.6702 16.8751 17.0869 16.0417 17.0869H14.7917C13.9584 17.0869 13.5417 16.6702 13.5417 15.8369V10.8369C13.5417 10.0036 13.9584 9.58691 14.7917 9.58691Z" fill="white"/>
<path id="Vector_2" d="M9.375 2.9209H10.625C11.4583 2.9209 11.875 3.33757 11.875 4.1709V15.8376C11.875 16.6709 11.4583 17.0876 10.625 17.0876H9.375C8.54167 17.0876 8.125 16.6709 8.125 15.8376V4.1709C8.125 3.33757 8.54167 2.9209 9.375 2.9209Z" fill="white"/>
<path id="Vector_3" d="M3.95825 7.08691H5.20825C6.04158 7.08691 6.45825 7.50358 6.45825 8.33691V15.8369C6.45825 16.6702 6.04158 17.0869 5.20825 17.0869H3.95825C3.12492 17.0869 2.70825 16.6702 2.70825 15.8369V8.33691C2.70825 7.50358 3.12492 7.08691 3.95825 7.08691Z" fill="white"/>
</g>
</svg>
