<svg width="20" height="20" viewBox="0 0 20 20" fill="none" xmlns="http://www.w3.org/2000/svg">
<g id="Developer">
<path id="Vector" d="M14.5 1.96582H5.65001C3.65001 1.96582 2.01001 3.59582 2.01001 5.60582V14.4558C2.01001 16.4558 3.64001 18.0958 5.65001 18.0958H14.5C16.5 18.0958 18.14 16.4658 18.14 14.4558V5.60582C18.14 3.59582 16.51 1.96582 14.5 1.96582ZM8.01001 12.6658C7.73001 12.9358 7.29001 12.9358 7.01001 12.6658L4.88001 10.5358C4.61001 10.2558 4.61001 9.81582 4.88001 9.53582L7.02001 7.40582C7.30001 7.13582 7.74001 7.14582 8.01001 7.41582C8.28001 7.68582 8.29001 8.12582 8.02001 8.40582L6.38001 10.0458L8.02001 11.6858C8.29001 11.9458 8.29001 12.3858 8.01001 12.6658ZM11.6 7.23582L9.89001 13.2158C9.84001 13.3958 9.72001 13.5458 9.56001 13.6358C9.40001 13.7258 9.20001 13.7458 9.02001 13.6958C8.84001 13.6458 8.69001 13.5258 8.60001 13.3658C8.51001 13.2058 8.49001 13.0058 8.54001 12.8258L10.25 6.85582C10.3 6.67582 10.42 6.51582 10.58 6.42582C10.74 6.33582 10.94 6.31582 11.12 6.36582C11.3 6.41582 11.45 6.53582 11.54 6.69582C11.64 6.86582 11.66 7.06582 11.6 7.23582ZM15.27 10.5358L13.14 12.6758C12.86 12.9458 12.42 12.9458 12.14 12.6758C12.01 12.5458 11.93 12.3658 11.93 12.1758C11.93 11.9858 12 11.8058 12.14 11.6758L13.78 10.0358L12.14 8.39582C11.87 8.11582 11.88 7.67582 12.15 7.40582C12.42 7.13582 12.86 7.12582 13.14 7.39582L15.27 9.52582C15.54 9.81582 15.54 10.2558 15.27 10.5358Z" fill="white"/>
</g>
</svg>
