<svg width="20" height="20" viewBox="0 0 20 20" fill="none" xmlns="http://www.w3.org/2000/svg">
<g id="Dynamics">
<path id="Vector" d="M10 18.0059C11.0506 18.0059 12.0909 17.7989 13.0615 17.3969C14.0321 16.9949 14.914 16.4056 15.6569 15.6627C16.3997 14.9198 16.989 14.0379 17.391 13.0673C17.7931 12.0967 18 11.0564 18 10.0059C18 8.95529 17.7931 7.915 17.391 6.94439C16.989 5.97379 16.3997 5.09187 15.6569 4.349C14.914 3.60614 14.0321 3.01686 13.0615 2.61482C12.0909 2.21279 11.0506 2.00586 10 2.00586C7.87827 2.00586 5.84344 2.84871 4.34315 4.34901C2.84285 5.8493 2 7.88413 2 10.0059C2 12.1276 2.84285 14.1624 4.34315 15.6627C5.84344 17.163 7.87827 18.0059 10 18.0059ZM7.744 13.0699C7.63239 13.0977 7.51549 13.0961 7.40466 13.0653C7.29383 13.0346 7.19284 12.9757 7.11151 12.8944C7.03018 12.813 6.97127 12.712 6.94052 12.6012C6.90976 12.4904 6.90821 12.3735 6.936 12.2619L7.80533 8.78186C7.8639 8.54726 7.98517 8.33299 8.15615 8.16201C8.32713 7.99103 8.5414 7.86976 8.776 7.81119L12.256 6.94186C12.3676 6.91407 12.4845 6.91562 12.5953 6.94638C12.7062 6.97713 12.8072 7.03604 12.8885 7.11737C12.9698 7.1987 13.0287 7.29969 13.0595 7.41052C13.0902 7.52135 13.0918 7.63825 13.064 7.74986L12.1947 11.2299C12.1361 11.4645 12.0148 11.6787 11.8438 11.8497C11.6729 12.0207 11.4586 12.142 11.224 12.2005L7.744 13.0699Z" fill="white"/>
</g>
</svg>
