<svg width="20" height="20" viewBox="0 0 20 20" fill="none" xmlns="http://www.w3.org/2000/svg">
<g id="Ecology">
<path id="Vector" d="M7.22543 6.5861H12.7689C12.2002 4.14083 11.0725 2.5188 9.9957 2.5188C8.91892 2.5188 7.79417 4.14083 7.22543 6.5861ZM5.8775 9.99265C5.87633 9.1773 5.93786 8.36308 6.06153 7.55716H2.34174C1.8235 9.17575 1.8331 10.9172 2.36915 12.5299H6.08013C5.94499 11.6909 5.87723 10.8425 5.8775 9.99265ZM12.9578 7.55716H7.03651C6.78051 9.20532 6.78612 10.8835 7.05315 12.5299H12.9412C13.0784 11.6912 13.1469 10.8426 13.1458 9.99265C13.1465 9.17717 13.0837 8.36288 12.9578 7.55716ZM12.7454 13.501H7.24893C7.82549 15.8895 8.93752 17.4665 9.99766 17.4665C11.0578 17.4665 12.1688 15.8895 12.7454 13.501ZM17.6311 12.5299C18.1667 10.9171 18.1766 9.17597 17.6594 7.55716H13.9397C14.0633 8.36308 14.1249 9.1773 14.1237 9.99265C14.1262 10.8423 14.0608 11.6908 13.9279 12.5299H17.6311ZM13.7458 6.5861H17.2699C16.6786 5.33068 15.7732 4.24921 14.6414 3.44643C13.5095 2.64365 12.1895 2.14677 10.8092 2.00391C12.1346 2.51587 13.2094 4.25046 13.7458 6.5861ZM6.27591 13.501H2.75875C3.36368 14.7466 4.27939 15.8153 5.41755 16.6041C6.55571 17.3928 7.87792 17.8749 9.25664 18.0039C7.92143 17.5399 6.82605 15.8288 6.27591 13.501ZM13.7233 13.501C13.1683 15.8288 12.0729 17.5399 10.7377 18.0039C12.1164 17.8749 13.4386 17.3928 14.5768 16.6041C15.7149 15.8153 16.6307 14.7466 17.2356 13.501H13.7233ZM6.2485 6.5861C6.78493 4.25046 7.86073 2.51587 9.18518 2.00391C7.8048 2.14649 6.48466 2.64326 5.35273 3.44607C4.2208 4.24889 3.31547 5.33051 2.72448 6.5861H6.2485Z" fill="white"/>
</g>
</svg>
