<svg width="20" height="20" viewBox="0 0 20 20" fill="none" xmlns="http://www.w3.org/2000/svg">
<g id="Home 1">
<path id="Vector" d="M3.2975 7.01273L9.56667 3.18356C9.69742 3.10375 9.84765 3.06152 10.0008 3.06152C10.154 3.06152 10.3042 3.10375 10.435 3.18356L16.7033 7.01356C16.9467 7.16251 17.1478 7.37145 17.2873 7.62038C17.4268 7.86931 17.5 8.14988 17.5 8.43523V15.8336C17.5 16.2756 17.3244 16.6995 17.0118 17.0121C16.6993 17.3246 16.2754 17.5002 15.8333 17.5002H4.16667C3.72464 17.5002 3.30072 17.3246 2.98816 17.0121C2.67559 16.6995 2.5 16.2756 2.5 15.8336V8.43523C2.49993 8.14966 2.57323 7.86886 2.71288 7.61977C2.85253 7.37068 3.05384 7.16165 3.2975 7.01273ZM8.33333 10.8336C8.11232 10.8336 7.90036 10.9214 7.74408 11.0776C7.5878 11.2339 7.5 11.4459 7.5 11.6669V14.1669C7.5 14.2763 7.52155 14.3847 7.56343 14.4858C7.60531 14.5869 7.6667 14.6788 7.74408 14.7561C7.82146 14.8335 7.91333 14.8949 8.01443 14.9368C8.11554 14.9787 8.2239 15.0002 8.33333 15.0002H11.6667C11.8877 15.0002 12.0996 14.9124 12.2559 14.7561C12.4122 14.5999 12.5 14.3879 12.5 14.1669V11.6669C12.5 11.4459 12.4122 11.2339 12.2559 11.0776C12.0996 10.9214 11.8877 10.8336 11.6667 10.8336H8.33333Z" fill="white"/>
</g>
</svg>
