<svg width="168" height="102" viewBox="0 0 168 102" fill="none" xmlns="http://www.w3.org/2000/svg">
<g id="Engagement">
<g id="Group-2035875676&#229;&#164;&#135;&#228;&#187;&#189;">
<g id="Group 2035875592">
<rect id="Rectangle 34627127" x="-2.41189e-08" y="0.404648" width="68.513" height="68.513" rx="5.82717" transform="matrix(0.866025 0.5 -0.866025 0.5 84.3853 16.2023)" fill="#EFEFEF" stroke="black" stroke-width="0.809296"/>
<path id="Ellipse 7040" d="M111.308 48.3242C111.308 52.7418 108.182 56.8197 102.956 59.8158C97.7411 62.8055 90.5102 64.6676 82.5012 64.6676C74.4922 64.6676 67.2613 62.8055 62.0467 59.8158C56.8209 56.8197 53.6942 52.7418 53.6942 48.3242C53.6942 43.9066 56.8209 39.8287 62.0467 36.8326C67.2613 33.8429 74.4922 31.9808 82.5012 31.9808C90.5102 31.9808 97.7411 33.8429 102.956 36.8326C108.182 39.8287 111.308 43.9066 111.308 48.3242Z" fill="#CCC2D6" stroke="black" stroke-width="0.809296"/>
<ellipse id="Ellipse 7041" cx="82.5015" cy="45.9863" rx="20.6429" ry="12.0742" fill="black"/>
<path id="Union" d="M62.2633 29.6288C62.2633 26.4978 64.4359 23.5889 68.1091 21.4404C71.7725 19.2977 76.8601 17.9593 82.5016 17.9593C88.143 17.9593 93.2306 19.2977 96.894 21.4404C100.567 23.5889 102.74 26.4978 102.74 29.6288V43.6504C102.74 46.7815 100.567 49.6904 96.894 51.8389C93.2306 53.9816 88.143 55.3199 82.5016 55.3199C76.8601 55.3199 71.7725 53.9816 68.1091 51.8389C64.4359 49.6904 62.2633 46.7815 62.2633 43.6504V29.6288Z" fill="#EDE4F7" stroke="black" stroke-width="0.809296" stroke-linejoin="round"/>
<path id="Intersect" d="M102.932 27.8906H88.9734V55.1184C97.2039 53.5303 103.144 48.9957 103.144 43.6496V29.628C103.144 29.038 103.072 28.458 102.932 27.8906Z" fill="black"/>
<path id="Ellipse 7039" d="M102.74 29.24C102.74 32.485 100.559 35.4907 96.8891 37.7067C93.2266 39.9181 88.1408 41.299 82.5016 41.299C76.8623 41.299 71.7765 39.9181 68.114 37.7067C64.4437 35.4907 62.2633 32.485 62.2633 29.24C62.2633 25.995 64.4437 22.9893 68.114 20.7733C71.7765 18.5619 76.8623 17.181 82.5016 17.181C88.1408 17.181 93.2266 18.5619 96.8891 20.7733C100.559 22.9893 102.74 25.995 102.74 29.24Z" fill="white" stroke="black" stroke-width="0.809296"/>
<ellipse id="Ellipse 7042" cx="82.1119" cy="28.8495" rx="14.0216" ry="7.40029" fill="white" stroke="black" stroke-width="0.809296"/>
<path id="Ellipse 7043" d="M96.1335 28.8511C96.1335 32.9382 89.8558 36.2514 82.1119 36.2514C74.368 36.2514 68.0903 32.9382 68.0903 28.8511C68.0903 26.4764 70.2097 24.3629 73.5046 23.0088" stroke="#FF292C" stroke-width="0.809296" stroke-linecap="round" stroke-linejoin="round"/>
<path id="Ellipse 7045" d="M75.4752 21.4492C75.4752 22.0986 75.2092 22.7875 74.7707 23.3125C74.3325 23.8371 73.7562 24.1605 73.1534 24.1605C72.5506 24.1605 71.9743 23.8371 71.5361 23.3125C71.0977 22.7875 70.8316 22.0986 70.8316 21.4492C70.8316 20.8174 71.0824 20.3499 71.4788 20.0317C71.8849 19.7058 72.4706 19.517 73.1534 19.517C73.8362 19.517 74.4219 19.7058 74.828 20.0317C75.2244 20.3499 75.4752 20.8174 75.4752 21.4492Z" fill="white" stroke="black" stroke-width="0.809296"/>
<path id="Ellipse 7044" d="M75.4752 21.0597C75.4752 21.4329 75.2641 21.8089 74.8461 22.1075C74.4289 22.4056 73.8317 22.6025 73.1534 22.6025C72.4752 22.6025 71.878 22.4056 71.4607 22.1075C71.0427 21.8089 70.8316 21.4329 70.8316 21.0597C70.8316 20.6866 71.0427 20.3106 71.4607 20.012C71.878 19.7139 72.4752 19.517 73.1534 19.517C73.8317 19.517 74.4289 19.7139 74.8461 20.012C75.2641 20.3106 75.4752 20.6866 75.4752 21.0597Z" fill="#FF292C" stroke="black" stroke-width="0.809296"/>
</g>
</g>
</g>
</svg>
