<svg width="168" height="102" viewBox="0 0 168 102" fill="none" xmlns="http://www.w3.org/2000/svg">
<g id="resources">
<g id="Group-2035875676&#229;&#164;&#135;&#228;&#187;&#189;">
<g id="Group 2035875619">
<g id="Group 2035875610">
<path id="Union" d="M113.608 65.4958C113.598 65.803 113.386 66.1621 112.885 66.4502L112.885 66.4504L83.8364 83.2274L83.8364 83.2247L83.5059 83.4171C82.9995 83.712 82.3189 83.8659 81.6262 83.8659C80.9336 83.8659 80.2529 83.712 79.7465 83.4171L79.4268 83.231L79.4266 83.2401L50.5499 66.4513C50.5497 66.4512 50.5495 66.4511 50.5493 66.451C50.0457 66.1538 49.8387 65.7975 49.8387 65.5013L49.4061 65.5003L49.4061 65.5013L49.3645 75.3751V75.376C49.3645 75.8624 49.667 76.3104 50.1817 76.6347L50.1817 76.6364L50.2327 76.6661C50.2519 76.6775 50.2713 76.6888 50.291 76.6999C50.2914 76.7002 50.2918 76.7004 50.2923 76.7007L79.4875 93.6747L79.8072 93.8606L79.8077 93.8279C80.3352 94.0593 80.9559 94.172 81.5704 94.1731C82.1832 94.1742 82.805 94.0643 83.3374 93.8369L83.337 93.866L83.6676 93.675L113.059 76.6998C113.653 76.3583 113.998 75.8827 113.999 75.3492L113.608 65.4958ZM113.608 65.4958C113.608 65.4952 113.608 65.4947 113.608 65.4942V65.494L113.608 65.4736L113.608 65.4705L114.04 65.4736C114.04 65.4835 114.04 65.4935 114.04 65.5036C114.04 65.5046 114.04 65.5055 114.04 65.5064L113.608 65.4958ZM113.999 75.3483L114.04 65.5066L113.999 75.3483Z" fill="#EDE4F7" stroke="black" stroke-width="0.432553"/>
<g id="Group 2035875600">
<g id="Group 2035875600_2">
<path id="Ellipse 6" d="M73.5208 62.7417L73.5281 62.7373L73.535 62.7323C73.9087 62.4616 74.4923 62.441 75.2093 62.8579C75.8746 63.2447 76.4893 63.9173 76.9381 64.7001C77.3869 65.4828 77.6582 66.3554 77.6582 67.1297C77.6582 67.9249 77.3761 68.4166 76.9886 68.6252L76.9814 68.6291L76.9745 68.6335L75.8858 69.3308L72.4076 63.4216L73.5208 62.7417Z" fill="#D9D9D9" stroke="black" stroke-width="0.432553"/>
<path id="Ellipse 4" d="M76.3488 67.9782C76.3488 68.7567 76.0772 69.2462 75.7 69.4639C75.3229 69.6817 74.7632 69.6722 74.089 69.2829C73.416 68.8944 72.7946 68.2189 72.3409 67.4331C71.8872 66.6473 71.613 65.7714 71.613 64.9943C71.613 64.2158 71.8846 63.7264 72.2617 63.5086C72.6389 63.2909 73.1986 63.3004 73.8727 63.6897C74.5457 64.0782 75.1672 64.7536 75.6209 65.5394C76.0746 66.3252 76.3488 67.2012 76.3488 67.9782Z" fill="#BDBDBD" stroke="black" stroke-width="0.432553"/>
<g id="Group 61">
<circle id="Ellipse 10" cx="1.84033" cy="1.84033" r="1.62405" transform="matrix(0.866025 0.5 -2.20305e-08 1 72.4062 63.7783)" fill="#D9D9D9" stroke="black" stroke-width="0.432553"/>
<path id="Vector 6" d="M73.363 66.1709L74.6381 66.907" stroke="black" stroke-width="0.432553"/>
</g>
</g>
<g id="Group 2035875601">
<path id="Ellipse 7" d="M80.7193 66.9624L80.7266 66.958L80.7335 66.953C81.1071 66.6823 81.6908 66.6617 82.4078 67.0786C83.0731 67.4654 83.6878 68.138 84.1366 68.9208C84.5854 69.7035 84.8567 70.5761 84.8567 71.3504C84.8567 72.1456 84.5746 72.6373 84.1871 72.8459L84.1799 72.8498L84.1729 72.8542L83.0843 73.5515L79.6061 67.6423L80.7193 66.9624Z" fill="#D9D9D9" stroke="black" stroke-width="0.432553"/>
<path id="Ellipse 8" d="M83.5473 72.1989C83.5473 72.9774 83.2756 73.4669 82.8985 73.6846C82.5214 73.9024 81.9617 73.8929 81.2875 73.5036C80.6145 73.1151 79.9931 72.4396 79.5394 71.6538C79.0857 70.868 78.8115 69.9921 78.8115 69.215C78.8115 68.4365 79.0831 67.9471 79.4602 67.7293C79.8374 67.5116 80.397 67.5211 81.0712 67.9104C81.7442 68.2989 82.3657 68.9743 82.8193 69.7601C83.273 70.546 83.5473 71.4219 83.5473 72.1989Z" fill="#BDBDBD" stroke="black" stroke-width="0.432553"/>
<g id="Group 62">
<circle id="Ellipse 10_2" cx="1.84033" cy="1.84033" r="1.62405" transform="matrix(0.866025 0.5 -2.20305e-08 1 79.585 68.0215)" fill="#D9D9D9" stroke="black" stroke-width="0.432553"/>
<path id="Vector 6_2" d="M80.5417 70.4141L81.8168 71.1502" stroke="black" stroke-width="0.432553"/>
</g>
</g>
<g id="Group 2035875602">
<path id="Ellipse 9" d="M87.9188 70.9351L87.9261 70.9306L87.933 70.9256C88.3066 70.6549 88.8903 70.6344 89.6073 71.0513C90.2726 71.438 90.8872 72.1106 91.3361 72.8934C91.7848 73.6762 92.0562 74.5488 92.0562 75.323C92.0562 76.1183 91.774 76.6099 91.3865 76.8185L91.3793 76.8224L91.3724 76.8268L90.2838 77.5241L86.8056 71.6149L87.9188 70.9351Z" fill="#D9D9D9" stroke="black" stroke-width="0.432553"/>
<path id="Ellipse 10_3" d="M90.7467 76.1716C90.7467 76.9501 90.4751 77.4395 90.098 77.6573C89.7208 77.875 89.1612 77.8655 88.487 77.4763C87.814 77.0877 87.1925 76.4123 86.7389 75.6265C86.2852 74.8407 86.011 73.9648 86.011 73.1877C86.011 72.4092 86.2826 71.9197 86.6597 71.702C87.0368 71.4843 87.5965 71.4938 88.2707 71.883C88.9437 72.2716 89.5651 72.947 90.0188 73.7328C90.4725 74.5186 90.7467 75.3945 90.7467 76.1716Z" fill="#BDBDBD" stroke="black" stroke-width="0.432553"/>
<g id="Group 63">
<circle id="Ellipse 10_4" cx="1.84033" cy="1.84033" r="1.62405" transform="matrix(0.866025 0.5 -2.20305e-08 1 86.698 71.9512)" fill="#D9D9D9" stroke="black" stroke-width="0.432553"/>
<path id="Vector 6_3" d="M87.6533 74.3438L88.9283 75.0799" stroke="black" stroke-width="0.432553"/>
</g>
</g>
</g>
<path id="Vector" d="M83.7369 83.7866L83.7366 83.7868C83.1422 84.1286 82.3822 84.2936 81.6351 84.2936C80.8881 84.2936 80.1312 84.1287 79.5431 83.7863L83.7369 83.7866ZM83.7369 83.7866L113.129 66.825L113.129 66.8246C113.715 66.4835 114.061 66.0083 114.063 65.4884C114.065 64.9674 113.722 64.4914 113.129 64.1501C113.129 64.15 113.128 64.1499 113.128 64.1498L83.9317 47.175C83.3435 46.8325 82.5865 46.6675 81.8395 46.6675C81.0924 46.6675 80.3324 46.8326 79.738 47.1744L79.7377 47.1746L50.3458 64.1361L50.2377 64.1986V64.2162C49.7173 64.5513 49.4134 64.9993 49.4114 65.4866C49.4092 66.0076 49.7523 66.4836 50.3458 66.825C50.3459 66.825 50.346 66.8251 50.3461 66.8252L79.5429 83.7862L83.7369 83.7866Z" fill="white" stroke="black" stroke-width="0.432553"/>
</g>
<g id="Group 2035875617">
<path id="Union_2" d="M69.8638 64.5272V64.5272C69.8641 66.391 71.0954 68.2102 73.4597 69.5753C76.489 71.3242 80.7041 71.9451 84.5705 71.4569C84.665 71.445 84.7593 71.4324 84.8534 71.4192C86.9214 71.1278 88.8894 70.515 90.517 69.5753C92.8818 68.2099 94.1132 66.3901 94.1129 64.5259C94.1129 64.5259 94.1129 64.5259 94.1129 64.5259V60.7793V60.7793C94.1129 60.6598 94.0161 60.563 93.8966 60.563C93.7772 60.563 93.6804 60.6598 93.6804 60.7793C93.6804 60.7793 93.6804 60.7793 93.6804 60.7793C93.6803 61.2404 93.5958 61.703 93.4253 62.1593C92.831 61.1689 91.8565 60.2513 90.5166 59.4777C88.1508 58.1118 85.0636 57.4351 81.9882 57.4351C78.9127 57.4351 75.8255 58.1118 73.4597 59.4777C72.12 60.2512 71.1456 61.1686 70.5513 62.1589C70.3809 61.7027 70.2964 61.2402 70.2964 60.7793C70.2964 60.7793 70.2964 60.7792 70.2964 60.7792C70.2963 60.6598 70.1995 60.563 70.0801 60.563C69.9606 60.563 69.8638 60.6598 69.8638 60.7793V60.7793V64.5272Z" fill="black" stroke="black" stroke-width="0.432553" stroke-linejoin="round"/>
<path id="Intersect" d="M81.9884 57.6533V71.4036C78.9409 71.4036 75.8933 70.7324 73.5681 69.3899C71.2432 68.0476 70.0806 66.2884 70.0803 64.5291V60.7812C70.0804 61.4121 70.23 62.0429 70.529 62.6545C71.0638 61.5605 72.0769 60.528 73.5681 59.667C75.8933 58.3245 78.9409 57.6533 81.9884 57.6533Z" fill="white"/>
<path id="Ellipse 7053" d="M81.9885 67.7634C85.3073 67.7634 88.3225 67.0018 90.5156 65.7594C92.7022 64.5207 94.1132 62.7759 94.1132 60.8009C94.1132 58.8259 92.7022 57.0812 90.5156 55.8424C88.3225 54.6 85.3073 53.8384 81.9885 53.8384C78.6697 53.8384 75.6545 54.6 73.4614 55.8424C71.2747 57.0812 69.8638 58.8259 69.8638 60.8009C69.8638 62.7759 71.2747 64.5207 73.4614 65.7594C75.6545 67.0018 78.6697 67.7634 81.9885 67.7634Z" fill="#FF292C" stroke="black" stroke-width="0.432553"/>
<circle id="Ellipse 7052" cx="7.429" cy="7.429" r="7.64528" transform="matrix(0.866025 0.5 -0.866025 0.5 81.9883 53.3506)" fill="#FF292C" stroke="black" stroke-width="0.432553"/>
<path id="Union_3" d="M87.7967 63.1793L87.7967 63.1793C87.795 63.1099 87.7759 63.0445 87.7445 62.9865L87.7967 63.1793ZM87.7967 63.1793L87.7967 63.1802M87.7967 63.1793L87.7967 63.1802M87.7967 63.1802C87.8013 63.4069 87.6204 63.5444 87.4489 63.5843L87.2882 63.6216M87.7967 63.1802L87.2882 63.6216M87.2882 63.6216L87.2877 63.6208M87.2882 63.6216L87.2877 63.6208M87.2877 63.6208L86.0309 63.9128C85.9001 63.9432 85.7604 63.9217 85.6428 63.8618L85.6427 63.8618L83.5232 62.7825L83.5228 62.7823C83.4722 62.7564 83.4182 62.7514 83.3799 62.7603L82.516 62.961C82.4978 62.9652 82.4885 62.9712 82.4849 62.9741C82.4841 62.9747 82.4836 62.9752 82.4833 62.9755L81.8754 64.6867L81.8753 64.6868C81.8233 64.833 81.6967 64.9196 81.565 64.9502L80.1414 65.2809C79.981 65.3182 79.8028 65.2834 79.6685 65.1865M87.2877 63.6208L79.6685 65.1865M79.6685 65.1865C79.6686 65.1866 79.6687 65.1867 79.6688 65.1867L79.795 65.0111L79.6685 65.1865ZM79.6685 65.1865C79.525 65.0832 79.4126 64.8901 79.4852 64.6854L79.4852 64.6853M79.6685 65.1865L79.4852 64.6853M79.4852 64.6853L80.5866 61.5844L80.5866 61.5843M79.4852 64.6853L80.5866 61.5843M80.5866 61.5843C80.6386 61.4381 80.7653 61.3515 80.8969 61.3209L83.2914 60.7647C83.4222 60.7343 83.5619 60.7558 83.6795 60.8157L83.6796 60.8157M80.5866 61.5843L83.6796 60.8157M83.6796 60.8157L87.5163 62.7699L87.5163 62.7699M83.6796 60.8157L87.5163 62.7699M87.5163 62.7699L87.5172 62.7703M87.5163 62.7699L87.5172 62.7703M87.5172 62.7703C87.6107 62.8185 87.6933 62.8918 87.7445 62.9865L87.5172 62.7703ZM80.1067 60.6488L80.0968 60.6511L80.0278 60.6175L76.2534 58.778L76.3478 58.5834L76.2531 58.7778L76.2533 58.7779C76.0995 58.7032 75.9544 58.5383 75.9776 58.33C76 58.1292 76.1671 58.0155 76.3206 57.9798L77.7442 57.6491C77.8723 57.6193 78.0099 57.6378 78.127 57.6948L78.127 57.6948L80.2129 58.7111C80.2614 58.7347 80.316 58.7398 80.357 58.7303L80.406 58.941L80.3571 58.7303L81.221 58.5296C81.2406 58.5251 81.2516 58.5185 81.2564 58.5148C81.2573 58.5141 81.258 58.5135 81.2584 58.5131L81.9005 56.8653L81.9005 56.8653C81.9559 56.7232 82.0827 56.6413 82.2104 56.6116L83.628 56.2823C83.7978 56.2429 83.9916 56.2793 84.1303 56.3899L84.1303 56.3899L84.1316 56.391C84.1805 56.4306 84.2235 56.4792 84.2546 56.5367C84.3065 56.6326 84.3236 56.751 84.2786 56.8665L83.1155 59.8531L83.1155 59.8532C83.0601 59.9953 82.9332 60.0772 82.8055 60.1069L80.4111 60.6631C80.3106 60.6865 80.2043 60.6801 80.1067 60.6488ZM81.4591 58.5936L82.102 56.9439L81.4591 58.5936Z" fill="white" stroke="black" stroke-width="0.432553"/>
</g>
<g id="Group 2035875609">
<g id="Group 151">
<circle id="Ellipse 110" cx="4.79918" cy="4.79918" r="4.5829" transform="matrix(-1 0 0 1 86.9924 22.0908)" fill="black" stroke="black" stroke-width="0.432553"/>
<path id="Ellipse 111" d="M77.9576 25.2249C77.9576 25.3475 78.0286 25.4954 78.2279 25.6593C78.4258 25.8219 78.7251 25.978 79.114 26.1132C79.8899 26.383 80.9758 26.5538 82.1854 26.5538C83.395 26.5538 84.4809 26.383 85.2567 26.1132C85.6457 25.978 85.945 25.8219 86.1428 25.6593C86.3421 25.4954 86.4131 25.3475 86.4131 25.2249C86.4131 25.1023 86.3421 24.9543 86.1428 24.7905C85.945 24.6279 85.6457 24.4718 85.2567 24.3365C84.4809 24.0668 83.395 23.896 82.1854 23.896C80.9758 23.896 79.8899 24.0668 79.114 24.3365C78.7251 24.4718 78.4258 24.6279 78.2279 24.7905C78.0286 24.9543 77.9576 25.1023 77.9576 25.2249Z" fill="#FF292C" stroke="black" stroke-width="0.432553"/>
<path id="Ellipse 112" d="M77.9576 28.3167C77.9576 28.4392 78.0286 28.5872 78.2279 28.7511C78.4258 28.9137 78.7251 29.0698 79.114 29.205C79.8899 29.4748 80.9758 29.6456 82.1854 29.6456C83.395 29.6456 84.4809 29.4748 85.2567 29.205C85.6457 29.0698 85.945 28.9137 86.1428 28.7511C86.3421 28.5872 86.4131 28.4392 86.4131 28.3167C86.4131 28.1941 86.3421 28.0461 86.1428 27.8823C85.945 27.7197 85.6457 27.5636 85.2567 27.4283C84.4809 27.1586 83.395 26.9878 82.1854 26.9878C80.9758 26.9878 79.8899 27.1586 79.114 27.4283C78.7251 27.5636 78.4258 27.7197 78.2279 27.8823C78.0286 28.0461 77.9576 28.1941 77.9576 28.3167Z" fill="#FF292C" stroke="black" stroke-width="0.432553"/>
</g>
<g id="Group 152">
<path id="Vector_2" d="M83.2086 16.7744L83.0886 16.5944C83.0899 16.5936 83.0895 16.5938 83.0875 16.595C83.0014 16.6452 79.9648 18.416 73.1327 14.4715L83.2086 16.7744ZM83.2086 16.7744L83.0861 16.5961C83.5686 16.2648 84.2319 16.424 84.5114 16.9382L84.8088 17.4853L84.8089 17.4855C84.8088 17.4853 84.809 17.4857 84.8095 17.4866C84.8099 17.4874 84.8106 17.4885 84.8115 17.4902L84.8194 17.5043C84.8263 17.5165 84.8365 17.5342 84.8498 17.5571C84.8765 17.603 84.9162 17.6699 84.9691 17.7559C85.0748 17.9278 85.2334 18.1761 85.4471 18.4859C85.8745 19.1057 86.5222 19.9712 87.4083 20.9642C89.1806 22.9502 91.9053 25.4442 95.7276 27.5007L96.7162 28.0323L96.83 28.0936V28.2228L96.83 45.1403C96.83 47.8512 96.3555 51.1432 93.3672 52.9497C92.9503 53.2018 92.146 53.6781 91.4469 54.0909C91.0972 54.2973 90.7735 54.4881 90.5372 54.6272L90.256 54.7928L90.1789 54.8381L90.1588 54.8499L90.1537 54.8529L90.1524 54.8537L90.1521 54.8539L90.152 54.8539L90.0424 54.6675L90.152 54.8539L90.0858 54.8928L90.0099 54.8813L90.0098 54.8813L90.0093 54.8812L90.0075 54.881L90.0001 54.8798L89.9712 54.8755L89.859 54.8585L89.4405 54.7957C89.0839 54.7424 88.5836 54.6681 88.0093 54.5841C86.8604 54.416 85.4158 54.2092 84.2308 54.0539L83.9001 54.0109H80.1234H80.0324L79.9687 53.9458C68.861 42.5751 67.6054 34.9697 67.6054 30.476V15.3734V15.2438L67.7197 15.1827L71.1126 13.3679L71.2223 13.3092L71.3281 13.3745L72.3167 13.9844L72.317 13.9846C72.5929 14.1553 72.865 14.317 73.1315 14.4708L73.1316 14.4709L73.1325 14.4714L73.1921 14.7548C80.1255 18.6994 83.1828 16.7915 83.2086 16.7744ZM72.9596 14.4524C72.9294 14.4667 72.8886 14.5101 72.8572 14.5616C72.908 14.5913 72.9585 14.6207 73.0089 14.6498L73.0834 14.4921C73.0947 14.4543 73.0911 14.453 73.0874 14.4518C73.084 14.4508 73.0696 14.4472 73.0586 14.4452C73.0466 14.4436 72.9967 14.4442 72.9596 14.4524ZM92.3717 44.0001V30.1276C86.5795 26.7401 83.5801 23.7285 82.1481 21.6466C81.4614 21.8641 80.6564 21.9854 79.354 21.6739C78.0161 21.3539 76.1531 20.5773 73.3423 18.9875V31.5796V31.5828C73.3423 32.7604 73.3423 34.8955 74.6744 38.1228C76.0056 41.3477 78.6715 45.6735 84.0161 51.2205C86.6555 51.5268 88.4866 51.3679 89.7504 50.9366C91.0177 50.5041 91.7177 49.7972 92.101 48.9937C92.4889 48.1806 92.5626 47.2479 92.5335 46.3525C92.5189 45.9066 92.4792 45.476 92.4425 45.0772L92.4423 45.0755L92.442 45.0714C92.4057 44.6777 92.3717 44.3088 92.3717 44.0001Z" fill="#CCC2D6" stroke="black" stroke-width="0.432553"/>
<g id="Mask group">
<mask id="mask0_1389_21338" style="mask-type:alpha" maskUnits="userSpaceOnUse" x="67" y="13" width="30" height="42">
<path id="Vector_3" d="M83.9139 53.7956L84.2587 53.8405C86.632 54.1514 90.0421 54.6685 90.0421 54.6685C90.0421 54.6685 92.4235 53.2684 93.2551 52.7656C96.1374 51.0232 96.6135 47.8421 96.6135 45.1412L96.6135 28.2238L95.6249 27.6922C87.9272 23.5506 84.6494 17.6465 84.6185 17.5896L84.3211 17.0425C84.1029 16.641 83.585 16.5167 83.2083 16.7754C83.1824 16.7927 80.076 18.7311 73.0241 14.6597C73.0241 14.6597 73.0241 14.6597 73.0231 14.6591C72.755 14.5043 72.481 14.3415 72.2029 14.1695L71.2143 13.5596L67.8214 15.3744V30.477C67.8214 34.9063 69.049 42.4594 80.1232 53.7956H83.9139ZM92.5877 30.0044V44.001C92.5877 46.3831 94.701 52.7081 83.9139 51.4273C73.1258 40.2516 73.1258 33.9626 73.1258 31.5806V18.6165C79.0994 22.0389 80.8578 21.864 82.2351 21.391C83.6134 23.4537 86.6152 26.5273 92.5877 30.0044Z" fill="white"/>
</mask>
<g mask="url(#mask0_1389_21338)">
<path id="Vector 24" d="M96.637 28.2178L93.2872 30.1776" stroke="black" stroke-width="0.432553"/>
<path id="Vector 25" d="M83.3311 16.6006L79.8252 18.6577" stroke="black" stroke-width="0.432553"/>
</g>
</g>
<path id="Vector_4" d="M80.5384 56.0303L80.4708 56.0215L80.4031 55.9522L80.0585 55.599C74.4992 49.9082 71.375 45.2321 69.6428 41.4C67.9086 37.5635 67.5839 34.6045 67.5839 32.3628L67.5839 15.4454L67.5839 15.2216L67.7776 15.3411L68.7662 15.951L68.7665 15.9512C69.042 16.1216 69.3138 16.2831 69.58 16.4368L69.58 16.4368L69.58 16.4368L69.5801 16.4368L69.5801 16.4368L69.5801 16.4368L69.5801 16.4369L69.5801 16.4369L69.5801 16.4369L69.5802 16.4369L69.5802 16.4369L69.5802 16.4369L69.5802 16.4369L69.5802 16.4369L69.5802 16.4369L69.5802 16.4369L69.5803 16.4369L69.5803 16.437L69.5803 16.437L69.5803 16.437L69.5803 16.437L69.5803 16.437L69.5803 16.437L69.5804 16.437L69.5804 16.437L69.5804 16.437L69.5804 16.437L69.5804 16.437L69.5804 16.437L69.5804 16.4371L69.5805 16.4371L69.5805 16.4371L69.5805 16.4371L69.5805 16.4371L69.5805 16.4371L69.5805 16.4371L69.5805 16.4371L69.5806 16.4371L69.5806 16.4371L69.5806 16.4371L69.5806 16.4371L69.5806 16.4372L69.5806 16.4372L69.5806 16.4372L69.5807 16.4372L69.5807 16.4372L69.5807 16.4372L69.5807 16.4372L69.5807 16.4372L69.5807 16.4372L69.5807 16.4372L69.5808 16.4372L69.5808 16.4372L69.5808 16.4373L69.5808 16.4373L69.5808 16.4373L69.5808 16.4373L69.5808 16.4373L69.5808 16.4373L69.5809 16.4373L69.5809 16.4373L69.5809 16.4373L69.5809 16.4373L69.5809 16.4373L69.5809 16.4373L69.5809 16.4373L69.581 16.4373L69.581 16.4374L69.581 16.4374L69.581 16.4374C76.5401 20.4552 79.6031 18.5584 79.6278 18.543C80.0808 18.2332 80.8609 18.6846 81.3136 19.5173L81.3138 19.5178L81.3139 19.5179C81.3179 19.525 81.5201 19.8895 81.9386 20.4963C82.3611 21.1088 83.0032 21.9672 83.8833 22.9534C85.6425 24.9247 88.3569 27.4118 92.1754 29.4663L93.164 29.9979L93.3577 30.1021L93.3577 30.3259L93.3577 47.2433C93.3577 49.485 93.033 52.0691 91.2988 53.9031C89.5666 55.735 86.4424 56.8036 80.8831 56.0751L80.5384 56.0303ZM91.0716 45.9235L91.0716 31.483C85.3246 28.0886 81.9317 23.8203 80.4709 21.6738C79.0109 22.1352 75.6179 22.4867 69.8699 19.2423L69.8699 33.6827C69.8699 34.8634 69.8703 36.9802 71.1899 40.1772C72.5054 43.3641 75.1474 47.6605 80.4708 53.1885C85.7936 53.8071 88.4357 52.5615 89.7512 50.8936C91.071 49.2204 91.0716 47.1042 91.0716 45.9235Z" fill="white" stroke="black" stroke-width="0.432553"/>
</g>
<g id="Group 150">
<path id="Union_4" d="M74.5227 40.1625V42.87C74.5534 44.0882 75.2716 45.3286 76.7348 46.2964C78.2322 47.2869 80.2069 47.7885 82.1925 47.7885C84.1781 47.7885 86.1528 47.2869 87.6502 46.2964C89.1134 45.3286 89.8316 44.0882 89.8623 42.87V40.1625C89.8623 35.9265 86.4284 32.4926 82.1925 32.4926C77.9566 32.4926 74.5227 35.9265 74.5227 40.1625Z" fill="black" stroke="black" stroke-width="0.432553"/>
<path id="Ellipse 115" d="M74.736 41.7603C74.736 42.1367 74.916 42.5142 75.2812 42.878C75.6472 43.2427 76.1877 43.581 76.873 43.8698C78.2426 44.447 80.1498 44.8092 82.2677 44.8092C84.3855 44.8092 86.2927 44.447 87.6623 43.8698C88.3476 43.581 88.8881 43.2427 89.2541 42.878C89.6193 42.5142 89.7993 42.1367 89.7993 41.7603C89.7993 41.3839 89.6193 41.0064 89.2541 40.6426C88.8881 40.2779 88.3476 39.9396 87.6623 39.6508C86.2927 39.0736 84.3855 38.7114 82.2677 38.7114C80.1498 38.7114 78.2426 39.0736 76.873 39.6508C76.1877 39.9396 75.6472 40.2779 75.2812 40.6426C74.916 41.0064 74.736 41.3839 74.736 41.7603Z" fill="#FF292C" stroke="black" stroke-width="0.432553"/>
<path id="Ellipse 114" d="M75.0044 37.733C75.0044 38.1128 75.1781 38.4914 75.5261 38.8542C75.8752 39.2181 76.3907 39.5557 77.0444 39.8439C78.3511 40.42 80.1714 40.7819 82.1936 40.7819C84.2158 40.7819 86.0361 40.42 87.3428 39.8439C87.9965 39.5557 88.512 39.2181 88.8611 38.8542C89.2091 38.4914 89.3828 38.1128 89.3828 37.733C89.3828 37.3531 89.2091 36.9746 88.8611 36.6117C88.512 36.2478 87.9965 35.9102 87.3428 35.622C86.0361 35.0459 84.2158 34.684 82.1936 34.684C80.1714 34.684 78.3511 35.0459 77.0444 35.622C76.3907 35.9102 75.8752 36.2478 75.5261 36.6117C75.1781 36.9746 75.0044 37.3531 75.0044 37.733Z" fill="#FF292C" stroke="black" stroke-width="0.432553"/>
<path id="Ellipse 113" d="M77.3239 34.744C77.3239 34.9698 77.4316 35.2038 77.6658 35.4372C77.9008 35.6714 78.2519 35.8922 78.703 36.0823C79.6043 36.4622 80.8645 36.7023 82.2678 36.7023C83.6711 36.7023 84.9313 36.4622 85.8326 36.0823C86.2837 35.8922 86.6348 35.6714 86.8698 35.4372C87.104 35.2038 87.2117 34.9698 87.2117 34.744C87.2117 34.5182 87.104 34.2841 86.8698 34.0507C86.6348 33.8165 86.2837 33.5957 85.8326 33.4056C84.9313 33.0257 83.6711 32.7856 82.2678 32.7856C80.8645 32.7856 79.6043 33.0257 78.703 33.4056C78.2519 33.5957 77.9008 33.8165 77.6658 34.0507C77.4316 34.2841 77.3239 34.5182 77.3239 34.744Z" fill="#FF292C" stroke="black" stroke-width="0.432553"/>
</g>
</g>
</g>
</g>
</g>
</svg>
