<svg width="24" height="24" viewBox="0 0 24 24" fill="none" xmlns="http://www.w3.org/2000/svg">
<g id="icon/arrow">
<path id="Union" fill-rule="evenodd" clip-rule="evenodd" d="M11.5303 5.46967C11.8232 5.76256 11.8232 6.23744 11.5303 6.53033L7.06066 11H20.0625C20.5803 11 21 11.3358 21 11.75C21 12.1642 20.5803 12.5 20.0625 12.5H6.56066L11.5303 17.4697C11.8232 17.7626 11.8232 18.2374 11.5303 18.5303C11.2374 18.8232 10.7626 18.8232 10.4697 18.5303L4.46967 12.5303C4.17678 12.2374 4.17678 11.7626 4.46967 11.4697C4.46975 11.4696 4.46984 11.4695 4.46992 11.4694L10.4697 5.46967C10.7626 5.17678 11.2374 5.17678 11.5303 5.46967Z" fill="#0A0A0A"/>
</g>
</svg>
