<svg width="20" height="18" viewBox="0 0 20 18" fill="none" xmlns="http://www.w3.org/2000/svg">
<path d="M8.47945 2.25V3.75H4.48743V14.25H15.6651V10.5H17.2619V15C17.2619 15.1989 17.1778 15.3897 17.028 15.5303C16.8783 15.671 16.6752 15.75 16.4635 15.75H3.68903C3.47728 15.75 3.2742 15.671 3.12447 15.5303C2.97474 15.3897 2.89063 15.1989 2.89062 15V3C2.89062 2.80109 2.97474 2.61032 3.12447 2.46967C3.2742 2.32902 3.47728 2.25 3.68903 2.25H8.47945ZM14.5361 3.75H10.8747V2.25H17.2619V8.25H15.6651V4.8105L10.0763 10.0605L8.94732 9L14.5361 3.75Z" fill="#FF0206"/>
</svg>
