<svg width="24" height="24" viewBox="0 0 24 24" fill="none" xmlns="http://www.w3.org/2000/svg">
<path d="M20.154 5.53574C17.7563 4.14824 13.3126 1.53496 12.0165 1.53027C10.7227 1.53496 6.29774 4.14824 3.85087 5.54512C3.36337 5.82402 3.00712 6.31855 3.01884 6.8834C3.05868 8.92949 3.33055 10.9521 4.39696 13.6357C6.70321 19.4506 10.7532 22.1811 11.8876 22.467C11.9274 22.4764 11.9696 22.4811 12.0095 22.4811C12.0516 22.4811 12.0962 22.4764 12.136 22.4646C13.4345 22.1225 17.4282 19.0943 19.5985 13.6357C20.6626 10.9615 20.9368 8.92715 20.979 6.86465C20.9907 6.36543 20.604 5.74434 20.154 5.53574ZM18.1806 13.174C16.3056 17.8826 12.9423 20.3811 12.0024 20.7607C11.0204 20.3928 7.75321 18.0561 5.81493 13.1717C4.87977 10.8139 4.64071 9.17559 4.60321 7.35684C4.59852 7.17871 4.72274 7.04043 4.83993 6.9748C8.17743 5.09277 11.2665 3.22949 12.0141 3.2248C12.7641 3.22715 16.0173 5.14902 19.1602 6.96543C19.2446 7.00996 19.3946 7.2373 19.3923 7.34043C19.3571 9.17324 19.1157 10.8256 18.1806 13.174Z" fill="black"/>
<path d="M11.2871 10.5139C12.766 10.9709 14.1207 9.9092 14.1723 8.51467C14.2168 7.31232 13.2277 6.26701 12.0254 6.24357C10.7973 6.22013 9.79648 7.2092 9.79648 8.43029V8.43263C9.79414 9.37248 10.3871 10.235 11.2871 10.5139ZM16.3613 13.7483V14.3436C16.3613 14.7045 16.0684 14.9975 15.7074 14.9975H8.26133C7.90039 14.9975 7.60742 14.7045 7.60742 14.3436V13.7483C7.60742 12.0842 10.5254 11.2451 11.9855 11.2451C13.4457 11.2451 16.3613 12.0842 16.3613 13.7483Z" fill="black"/>
</svg>
