<svg width="20" height="20" viewBox="0 0 20 20" fill="none" xmlns="http://www.w3.org/2000/svg">
<g id="&#233;&#161;&#181;&#233;&#157;&#162;">
<path id="Icon" d="M6.44441 5.19444V2M13.5555 5.19444V2M4.84441 3.77778H15.1555C16.1512 3.77778 16.649 3.77778 17.0293 3.97154C17.3638 4.14199 17.6358 4.41395 17.8062 4.74846C18 5.12875 18 5.62657 18 6.62222V15.1556C18 16.1512 18 16.649 17.8062 17.0293C17.6358 17.3638 17.3638 17.6358 17.0293 17.8062C16.649 18 16.1512 18 15.1555 18H4.84441C3.84876 18 3.35094 18 2.97065 17.8062C2.63614 17.6358 2.36418 17.3638 2.19374 17.0293C1.99997 16.649 1.99997 16.1512 1.99997 15.1556V6.62222C1.99997 5.62657 1.99997 5.12875 2.19374 4.74846C2.36418 4.41395 2.63614 4.14199 2.97065 3.97154C3.35094 3.77778 3.84877 3.77778 4.84441 3.77778Z" stroke="#0D0D0D" stroke-width="1.25" stroke-linecap="round"/>
<path id="Vector 1796" d="M2.5 8.12501L17.5 8.125" stroke="#0D0D0D" stroke-width="1.25" stroke-linecap="round"/>
</g>
</svg>
