<svg width="36" height="36" viewBox="0 0 36 36" fill="none" xmlns="http://www.w3.org/2000/svg">
<rect opacity="0.1" width="36" height="36" rx="7.71429" fill="white"/>
<path d="M25.2773 8.55858C26.0222 7.81386 27.2298 7.81375 27.9746 8.55858C28.7194 9.30341 28.7193 10.5109 27.9746 11.2558L21.2305 18L27.9736 24.7431C28.7185 25.488 28.7185 26.6955 27.9736 27.4404C27.2287 28.1853 26.0212 28.1853 25.2764 27.4404L18.5332 20.6973L11.79 27.4404C11.0451 28.1853 9.83764 28.1853 9.09276 27.4404C8.34788 26.6955 8.34788 25.488 9.09276 24.7431L15.8359 18L9.09178 11.2558C8.34707 10.5109 8.34696 9.30341 9.09178 8.55858C9.83661 7.81375 11.0442 7.81386 11.789 8.55858L18.5332 15.3027L25.2773 8.55858Z" fill="black"/>
</svg>
