<svg width="160" height="145" viewBox="0 0 160 145" fill="none" xmlns="http://www.w3.org/2000/svg">
<g id="Group 1410085400">
<g id="extrude-group">
<path id="Polygon 246" d="M111.5 73.6726C116.76 74.4863 120.868 76.8582 122.277 79.8948L132.363 101.627C133.773 104.664 132.269 107.904 128.419 110.127L100.863 126.036C97.0129 128.259 91.4009 129.127 86.1413 128.314L48.4998 122.49C43.2401 121.677 39.1319 119.305 37.7225 116.268L27.6365 94.5358C26.2272 91.4992 27.7309 88.2591 31.5813 86.0361L59.1368 70.127C62.9871 67.904 68.5991 67.0358 73.8587 67.8495L111.5 73.6726Z" fill="#FF0420"/>
<g id="Mask group">
<mask id="mask0_1012_1021" style="mask-type:alpha" maskUnits="userSpaceOnUse" x="27" y="67" width="106" height="62">
<path id="Polygon 248" d="M111.5 73.6736C116.76 74.4873 120.868 76.8592 122.277 79.8958L132.363 101.628C133.773 104.665 132.269 107.905 128.419 110.128L100.863 126.037C97.0127 128.26 91.4007 129.128 86.1411 128.315L48.4996 122.491C43.2399 121.678 39.1317 119.306 37.7224 116.269L27.6363 94.5368C26.227 91.5002 27.7308 88.2601 31.5811 86.0371L59.1366 70.1279C62.9869 67.9049 68.5989 67.0368 73.8585 67.8504L111.5 73.6736Z" fill="#FF2A2A"/>
</mask>
<g mask="url(#mask0_1012_1021)">
<g id="Polygon 247" style="mix-blend-mode:multiply" opacity="0.6">
<path d="M105.979 63.38C114.655 64.7222 121.432 68.6348 123.757 73.644L130.884 89.0011C133.209 94.0102 130.728 99.355 124.377 103.022L104.905 114.264C98.5535 117.931 89.2962 119.363 80.62 118.021L54.0208 113.906C45.3447 112.564 38.5678 108.651 36.2431 103.642L29.1158 88.285C26.7911 83.2758 29.2716 77.9311 35.6229 74.2641L55.0949 63.022C61.4463 59.355 70.7036 57.9229 79.3798 59.2651L105.979 63.38Z" fill="url(#paint0_linear_1012_1021)"/>
</g>
</g>
</g>
<g id="side-faces">
<g id="side-face">
<path fill-rule="evenodd" clip-rule="evenodd" d="M133.01 77.6386C133.041 79.7993 131.583 81.9121 128.868 83.4797L100.415 99.907C96.8422 101.97 91.6349 102.775 86.7547 102.02L47.8869 96.0074C43.0067 95.2524 39.1947 93.0515 37.8869 90.2339L27.4726 67.7937C27.1587 67.1175 27.0006 66.4304 26.9908 65.748V74.9856C27.0006 75.668 27.1587 76.3551 27.4726 77.0313L37.8869 99.4715C39.1947 102.289 43.0067 104.49 47.8869 105.245L86.7547 111.258C91.6349 112.013 96.8422 111.207 100.415 109.145L128.868 92.7173C131.583 91.1497 133.041 89.0369 133.01 86.8762V77.6386Z" fill="#111628"/>
<path d="M128.868 83.4797C131.583 81.9121 133.041 79.7993 133.01 77.6386V86.8762C133.041 89.0369 131.583 91.1497 128.868 92.7173M128.868 83.4797L100.415 99.907M128.868 83.4797V92.7173M100.415 99.907C96.8422 101.97 91.6349 102.775 86.7547 102.02M100.415 99.907V109.145M86.7547 102.02L47.8869 96.0074M86.7547 102.02V111.258M47.8869 96.0074C43.0067 95.2524 39.1947 93.0515 37.8869 90.2339M47.8869 96.0074V105.245M37.8869 90.2339L27.4726 67.7937M37.8869 90.2339V99.4715M27.4726 67.7937C27.1587 67.1175 27.0006 66.4304 26.9908 65.748V74.9856C27.0006 75.668 27.1587 76.3551 27.4726 77.0313M27.4726 67.7937V77.0313M27.4726 77.0313L37.8869 99.4715M37.8869 99.4715C39.1947 102.289 43.0067 104.49 47.8869 105.245M47.8869 105.245L86.7547 111.258M86.7547 111.258C91.6349 112.013 96.8422 111.207 100.415 109.145M100.415 109.145L128.868 92.7173" stroke="#121923" stroke-width="0.646769" stroke-linejoin="round"/>
</g>
<path id="side-face_2" fill-rule="evenodd" clip-rule="evenodd" d="M26.9907 64.1424C26.9599 61.9818 28.4175 59.869 31.1327 58.3014L59.5856 41.8741C63.1583 39.8114 68.3655 39.0058 73.2459 39.7608L112.113 45.7736C116.994 46.5286 120.806 48.7295 122.113 51.5471L132.528 73.9873C132.842 74.6636 133 75.3507 133.01 76.033V85.2706C133 84.5883 132.842 83.9012 132.528 83.2249L122.113 60.7847C120.806 57.9671 116.994 55.7662 112.113 55.0112L73.2459 48.9984C68.3655 48.2434 63.1583 49.049 59.5856 51.1117L31.1327 67.5389C28.4175 69.1066 26.9599 71.2193 26.9907 73.38V64.1424Z" fill="url(#paint1_linear_1012_1021)" stroke="#121923" stroke-width="0.646769" stroke-linejoin="round"/>
<g id="side-face_3">
<path fill-rule="evenodd" clip-rule="evenodd" d="M133.01 76.0331C133.041 78.1938 131.583 80.3066 128.868 81.8742L100.415 98.3015C96.8422 100.364 91.6349 101.17 86.7547 100.415L57.966 95.9612L56.2901 95.7019L54.6143 95.4427L52.9052 95.1783L51.1961 94.9139L49.5415 94.6579L47.8869 94.402C43.0067 93.6469 39.1947 91.4461 37.8869 88.6285L27.4726 66.1882C27.1587 65.512 27.0006 64.8249 26.9908 64.1426V73.3802C27.0006 74.0625 27.1587 74.7496 27.4726 75.4258L37.8869 97.8661C39.1947 100.684 43.0067 102.885 47.8869 103.64L49.5415 103.896L51.1961 104.151L52.9052 104.416L54.6143 104.68L56.2901 104.94L57.966 105.199L86.7547 109.652C91.6349 110.407 96.8422 109.602 100.415 107.539L128.868 91.1118C131.583 89.5442 133.041 87.4314 133.01 85.2707V76.0331Z" fill="#DADADA"/>
<path d="M128.868 81.8742C131.583 80.3066 133.041 78.1938 133.01 76.0331V85.2707C133.041 87.4314 131.583 89.5442 128.868 91.1118M128.868 81.8742L100.415 98.3015M128.868 81.8742V91.1118M100.415 98.3015C96.8422 100.364 91.6349 101.17 86.7547 100.415M100.415 98.3015V107.539M86.7547 100.415V109.652M86.7547 100.415L57.9659 95.9612M47.8869 94.402C43.0067 93.6469 39.1947 91.4461 37.8869 88.6285M47.8869 94.402V103.64M47.8869 94.402L49.5415 94.6579M37.8869 88.6285L27.4726 66.1882M37.8869 88.6285V97.8661M27.4726 66.1882C27.1587 65.512 27.0006 64.8249 26.9908 64.1426V73.3802C27.0006 74.0625 27.1587 74.7496 27.4726 75.4258M27.4726 66.1882V75.4258M27.4726 75.4258L37.8869 97.8661M37.8869 97.8661C39.1947 100.684 43.0067 102.885 47.8869 103.64M47.8869 103.64L49.5415 103.896M86.7547 109.652C91.6349 110.407 96.8422 109.602 100.415 107.539M86.7547 109.652L57.9659 105.199M100.415 107.539L128.868 91.1118M51.1961 104.151V94.9139M51.1961 104.151L49.5415 103.896M51.1961 104.151L52.9052 104.416M51.1961 94.9139L49.5415 94.6579M51.1961 94.9139L52.9052 95.1783M54.6143 95.4427V104.68M54.6143 95.4427L52.9052 95.1783M54.6143 95.4427L56.2901 95.7019M54.6143 104.68L52.9052 104.416M54.6143 104.68L56.2901 104.94M57.9659 95.9612V105.199M57.9659 95.9612L56.2901 95.7019M57.9659 105.199L56.2901 104.94M49.5415 94.6579V103.896M52.9052 95.1783V104.416M56.2901 95.7019V104.94" stroke="#111628" stroke-width="0.646769" stroke-linejoin="round"/>
</g>
<path id="Vector 1938" d="M86.7571 109.626V100.417L84.2351 100.019V109.26L86.7571 109.626Z" fill="white" stroke="#121923" stroke-width="0.646769" stroke-linejoin="round"/>
<path id="Vector 1937" d="M100.419 107.476V98.3344L128.885 81.8633V91.1087L100.419 107.476Z" fill="white" stroke="#121923" stroke-width="0.646769" stroke-linejoin="round"/>
</g>
<path id="Polygon 245" d="M110.142 45.4683C116.242 46.412 121.007 49.1631 122.642 52.6852L131.999 72.8486C133.634 76.3707 131.89 80.1287 127.424 82.707L101.858 97.4677C97.3921 100.046 90.883 101.053 84.7826 100.109L49.8585 94.7065C43.7581 93.7627 38.9931 91.0117 37.3585 87.4896L28.0006 67.3262C26.366 63.8041 28.1101 60.0461 32.5759 57.4677L58.1422 42.7071C62.608 40.1287 69.117 39.1218 75.2175 40.0655L110.142 45.4683Z" fill="white" stroke="#121923" stroke-width="0.646769" stroke-linejoin="round"/>
</g>
<g id="Group 2035875613">
<path id="Union" d="M115.032 31.6636C115.032 32.4363 114.521 33.2089 113.5 33.7984L84.8836 50.3201C82.8413 51.4992 79.53 51.4997 77.4877 50.3207L48.257 33.444L48.0466 33.3222C47.0256 32.7327 46.515 31.9601 46.5149 31.1875L46.5149 63.2125C46.515 63.9851 47.0255 64.7576 48.0465 65.3471L77.4875 82.3453C79.5299 83.5244 82.8411 83.5247 84.8834 82.3456L113.5 65.8233C114.521 65.2338 115.032 64.4613 115.032 63.6886V31.6636Z" fill="#CCC2D6"/>
<path id="Rectangle 34627132" d="M115.529 63.6885C115.529 62.6762 114.861 61.7657 113.749 61.1239L84.3083 44.126C83.194 43.4827 81.7649 43.1753 80.3625 43.1753C78.9602 43.1753 77.531 43.4827 76.4168 44.126L47.8002 60.6478C46.6886 61.2896 46.0204 62.2001 46.0206 63.2124C46.0208 64.2245 46.6888 65.1347 47.8001 65.7763L77.2414 82.7742C78.3556 83.4175 79.7848 83.7249 81.1871 83.7249C82.5894 83.7249 84.0186 83.4175 85.1329 82.7742L113.749 66.2524C114.861 65.6108 115.529 64.7006 115.529 63.6885Z" fill="white" stroke="black" stroke-width="0.991273"/>
<path id="Union_2" d="M115.528 31.6636C115.528 31.3899 115.306 31.168 115.033 31.168C114.759 31.168 114.537 31.3898 114.537 31.6636C114.537 32.1967 114.184 32.8318 113.253 33.3691L84.6364 49.8909C83.7083 50.4267 82.4607 50.7089 81.1862 50.7091C79.9117 50.7092 78.6641 50.4272 77.7361 49.8914L48.5059 33.0151L48.5054 33.0148L48.2955 32.8933L48.295 32.893C47.3643 32.3556 47.0112 31.7207 47.0111 31.1875C47.0111 31.1875 47.0111 31.1874 47.0111 31.1874C47.011 30.9137 46.7891 30.6918 46.5154 30.6919C46.2417 30.6919 46.0198 30.9138 46.0198 31.1875V31.1876L46.0198 63.2125V63.2126C46.02 64.2246 46.688 65.1347 47.7992 65.7764L77.2403 82.7745L77.4881 82.3453L77.2403 82.7745C78.3545 83.4178 79.7837 83.7253 81.186 83.7254C82.5884 83.7255 84.0176 83.4181 85.1318 82.7748L113.749 66.2525C114.86 65.6109 115.528 64.7008 115.528 63.6887L115.528 31.6636Z" stroke="black" stroke-width="0.991273" stroke-linejoin="round"/>
<rect id="Rectangle 34627132_2" x="0.858467" y="5.90845e-08" width="42.5749" height="43.5271" rx="5.83313" transform="matrix(-0.866025 0.5 -0.866025 -0.5 118.801 31.2339)" fill="white" stroke="black" stroke-width="0.991273"/>
<rect id="Rectangle 34627134" x="0.858467" y="5.90845e-08" width="26.6517" height="28.2689" transform="matrix(-0.866025 0.5 -0.866025 -0.5 105.449 31.1469)" fill="black" stroke="black" stroke-width="0.991273" stroke-linejoin="round"/>
<path id="Intersect" d="M81.0245 44.3676C81.032 44.5367 81.1252 44.6902 81.2718 44.7748L81.377 44.8356C81.5304 44.9241 81.7193 44.9241 81.8727 44.8356L104.095 32.0054C104.249 31.9169 104.343 31.7532 104.343 31.5762C104.343 31.3991 104.249 31.2355 104.095 31.1469L80.5945 17.5788C80.4377 17.4883 80.2441 17.4904 80.0893 17.5844C79.9346 17.6784 79.8435 17.8492 79.8515 18.0301L81.0245 44.3676Z" fill="white" stroke="black" stroke-width="0.991273" stroke-linejoin="round"/>
<rect id="Rectangle 34627135" x="0.858467" y="5.90845e-08" width="21.3299" height="22.0093" transform="matrix(-0.866025 0.5 -0.866025 -0.5 100.788 33.7768)" fill="white" stroke="black" stroke-width="0.991273" stroke-linejoin="round"/>
<path id="Union_3" d="M78.6777 33.2462L79.2649 33.3944L79.2941 32.7895C79.3144 32.3686 79.6087 31.8551 80.3774 31.4113C81.1725 30.9523 82.2458 30.7085 83.346 30.7085C84.4461 30.7085 85.5195 30.9523 86.3146 31.4113C87.1125 31.872 87.3991 32.4065 87.3991 32.8391C87.3991 33.2717 87.1125 33.8062 86.3146 34.2669C85.4854 34.7456 84.3545 34.9897 83.2079 34.9684L82.2857 34.9513L82.7804 35.7298C83.236 36.4467 83.3171 37.1942 83.0567 37.9066C82.8041 38.5975 82.2102 39.3057 81.2088 39.9186L70.6624 33.8296C72.9512 32.7911 76.0559 32.5842 78.6777 33.2462Z" fill="#FF292C" stroke="black" stroke-width="0.991273"/>
<path id="Vector 4047" d="M81.4359 51.3845L81.4351 83.4145" stroke="black" stroke-width="0.991273"/>
</g>
</g>
<defs>
<linearGradient id="paint0_linear_1012_1021" x1="156.058" y1="75.4198" x2="35.846" y2="135.399" gradientUnits="userSpaceOnUse">
<stop stop-color="#8860AF"/>
<stop offset="1" stop-color="#5E7DAB"/>
</linearGradient>
<linearGradient id="paint1_linear_1012_1021" x1="106.805" y1="34.7488" x2="93.704" y2="90.5321" gradientUnits="userSpaceOnUse">
<stop stop-color="#B0C2FF" stop-opacity="0.8"/>
<stop offset="1" stop-color="#FFDCFE"/>
</linearGradient>
</defs>
</svg>
