<svg width="24" height="24" viewBox="0 0 24 24" fill="none" xmlns="http://www.w3.org/2000/svg">
<circle cx="12" cy="12" r="12" fill="#EBEBEB"/>
<g clip-path="url(#clip0_2964_15835)">
<path d="M20 12C20 7.58176 16.4182 4 12 4C7.58176 4 4 7.58176 4 12C4 15.7517 6.58304 18.8998 10.0675 19.7645V14.4448H8.41792V12H10.0675V10.9466C10.0675 8.22368 11.2998 6.9616 13.9731 6.9616C14.48 6.9616 15.3546 7.06112 15.7123 7.16032V9.37632C15.5235 9.35648 15.1955 9.34656 14.7882 9.34656C13.4765 9.34656 12.9696 9.84352 12.9696 11.1354V12H15.5827L15.1338 14.4448H12.9696V19.9414C16.9309 19.463 20.0003 16.0902 20.0003 12H20Z" fill="#0866FF"/>
<path d="M15.1338 14.4451L15.5828 12.0003H12.9696V11.1357C12.9696 9.84383 13.4765 9.34687 14.7882 9.34687C15.1956 9.34687 15.5236 9.35679 15.7124 9.37663V7.16063C15.3546 7.06111 14.48 6.96191 13.9732 6.96191C11.2999 6.96191 10.0676 8.22399 10.0676 10.9469V12.0003H8.41797V14.4451H10.0676V19.7648C10.6864 19.9184 11.3338 20.0003 12 20.0003C12.328 20.0003 12.6516 19.9802 12.9693 19.9418V14.4451H15.1335H15.1338Z" fill="white"/>
</g>
<defs>
<clipPath id="clip0_2964_15835">
<rect width="16" height="16" fill="white" transform="translate(4 4)"/>
</clipPath>
</defs>
</svg>
