<svg width="24" height="24" viewBox="0 0 24 24" fill="none" xmlns="http://www.w3.org/2000/svg">
<circle cx="12" cy="12" r="12" fill="#EBEBEB"/>
<g clip-path="url(#clip0_2964_15838)">
<path d="M19.6811 8.12328C19.5906 7.78289 19.4123 7.47223 19.1641 7.22239C18.9159 6.97254 18.6063 6.79228 18.2665 6.69964C17.0156 6.36328 12.0156 6.36328 12.0156 6.36328C12.0156 6.36328 7.01563 6.36328 5.76472 6.69964C5.42491 6.79228 5.1154 6.97254 4.86715 7.22239C4.6189 7.47223 4.44063 7.78289 4.35017 8.12328C4.01563 9.37964 4.01562 11.9996 4.01562 11.9996C4.01562 11.9996 4.01563 14.6196 4.35017 15.876C4.44063 16.2164 4.6189 16.5271 4.86715 16.7769C5.1154 17.0267 5.42491 17.207 5.76472 17.2996C7.01563 17.636 12.0156 17.636 12.0156 17.636C12.0156 17.636 17.0156 17.636 18.2665 17.2996C18.6063 17.207 18.9159 17.0267 19.1641 16.7769C19.4123 16.5271 19.5906 16.2164 19.6811 15.876C20.0156 14.6196 20.0156 11.9996 20.0156 11.9996C20.0156 11.9996 20.0156 9.37964 19.6811 8.12328Z" fill="#FF0302"/>
<path d="M10.3799 14.3793V9.62109L14.5617 12.0002L10.3799 14.3793Z" fill="#FEFEFE"/>
</g>
<defs>
<clipPath id="clip0_2964_15838">
<rect width="16" height="16" fill="white" transform="translate(4 4)"/>
</clipPath>
</defs>
</svg>
