<svg width="24" height="24" viewBox="0 0 24 24" fill="none" xmlns="http://www.w3.org/2000/svg">
<circle cx="12" cy="12" r="12" fill="#EBEBEB"/>
<path d="M4 12C4 9.87827 4.84285 7.84344 6.34315 6.34315C7.84344 4.84285 9.87827 4 12 4C14.1217 4 16.1566 4.84285 17.6569 6.34315C19.1571 7.84344 20 9.87827 20 12C20 14.1217 19.1571 16.1566 17.6569 17.6569C16.1566 19.1571 14.1217 20 12 20C9.87827 20 7.84344 19.1571 6.34315 17.6569C4.84285 16.1566 4 14.1217 4 12ZM9.92158 5.43658C9.03052 5.71852 8.20631 6.17924 7.49937 6.79057C7.94586 7.17567 8.44035 7.50495 8.97279 7.76615C9.09111 7.32301 9.22618 6.90889 9.37687 6.53049C9.5376 6.13088 9.71843 5.76029 9.92158 5.43658ZM6.71578 7.58644C5.8027 8.67678 5.25148 10.0242 5.13855 11.4419H8.47384C8.49951 10.5422 8.58769 9.68048 8.72945 8.88349C7.99714 8.55523 7.31833 8.11874 6.71578 7.58867V7.58644ZM14.0784 18.5634C14.9696 18.2811 15.7937 17.82 16.5006 17.2083C16.0534 16.8213 15.5582 16.4934 15.0272 16.2327C14.9178 16.6525 14.7829 17.0651 14.6231 17.4684C14.4635 17.868 14.2816 18.2375 14.0784 18.5623V18.5634ZM17.2842 16.4102C18.1967 15.3208 18.7479 13.9746 18.8614 12.5581H15.5273C15.5042 13.4157 15.4184 14.2704 15.2705 15.1154C16.0073 15.4469 16.6859 15.8856 17.2842 16.4113V16.4102ZM18.8614 11.4419C18.748 10.025 18.1968 8.67844 17.2842 7.58867C16.682 8.11863 16.0036 8.55511 15.2717 8.88349C15.4123 9.68048 15.5005 10.5422 15.5273 11.4419H18.8614ZM16.4984 6.79057C15.7915 6.17886 14.9673 5.71776 14.0762 5.43547C14.2805 5.76141 14.4624 6.13088 14.622 6.53049C14.7738 6.91 14.9089 7.32301 15.025 7.76615C15.5559 7.5055 16.0511 7.17761 16.4984 6.79057ZM9.92158 18.5645C9.70823 18.2162 9.52595 17.8498 9.37687 17.4695C9.21752 17.0662 9.08295 16.6536 8.97391 16.2338C8.44295 16.4945 7.94774 16.8224 7.50049 17.2094C8.20733 17.8212 9.03154 18.2823 9.9227 18.5645H9.92158ZM6.7169 16.4113C7.31911 15.8814 7.99753 15.4449 8.72945 15.1165C8.58157 14.2711 8.49577 13.416 8.47272 12.5581H5.13967C5.25336 13.9751 5.80495 15.3217 6.71801 16.4113H6.7169ZM12 5.11623C11.7924 5.11623 11.5379 5.22004 11.2465 5.527C10.9563 5.83508 10.6672 6.31059 10.4138 6.94461C10.2665 7.31296 10.1348 7.72597 10.0209 8.17692C10.6631 8.36873 11.3298 8.46575 12 8.46491C12.6887 8.46491 13.3529 8.36445 13.9802 8.17692C13.8766 7.75827 13.7454 7.34696 13.5873 6.94572C13.3328 6.31059 13.0448 5.83508 12.7535 5.527C12.4632 5.22004 12.2087 5.11623 12 5.11623ZM9.59007 11.4419H14.4099C14.3893 10.7153 14.3211 9.99076 14.2057 9.27306C13.4884 9.47804 12.746 9.58174 12 9.58114C11.2544 9.58163 10.5124 9.47794 9.79545 9.27306C9.67927 9.99071 9.61029 10.7152 9.58895 11.4419H9.59007ZM9.79545 14.7269C10.5124 14.5221 11.2544 14.4184 12 14.4189C12.7646 14.4189 13.5047 14.526 14.2057 14.7269C14.3151 14.0527 14.3865 13.3238 14.4099 12.5581H9.59007C9.61351 13.3238 9.68494 14.0539 9.79545 14.7269ZM12 15.5351C11.3124 15.5351 10.6471 15.6356 10.0209 15.8231C10.1337 16.2729 10.2665 16.6859 10.4138 17.0543C10.6672 17.6894 10.9552 18.1649 11.2465 18.473C11.5368 18.78 11.7924 18.8838 12 18.8838C12.2087 18.8838 12.4632 18.78 12.7535 18.473C13.0448 18.1649 13.3339 17.6894 13.5873 17.0554C13.7346 16.6859 13.8663 16.274 13.9791 15.8231C13.3369 15.6313 12.6702 15.5343 12 15.5351Z" fill="black"/>
</svg>
