<svg width="24" height="24" viewBox="0 0 24 24" fill="none" xmlns="http://www.w3.org/2000/svg">
<circle cx="12" cy="12" r="12" fill="#EBEBEB"/>
<path d="M17.5447 6.77071C16.5249 6.30279 15.4313 5.95804 14.2879 5.76059C14.2671 5.75678 14.2463 5.76631 14.2356 5.78535C14.0949 6.0355 13.9392 6.36183 13.8301 6.61832C12.6003 6.43421 11.3768 6.43421 10.1722 6.61832C10.0631 6.35613 9.90166 6.0355 9.76038 5.78535C9.74966 5.76694 9.72886 5.75742 9.70803 5.76059C8.56527 5.95741 7.47171 6.30216 6.45129 6.77071C6.44246 6.77452 6.43488 6.78087 6.42986 6.78912C4.35559 9.88803 3.78737 12.9108 4.06612 15.896C4.06738 15.9106 4.07558 15.9246 4.08693 15.9335C5.45547 16.9385 6.78114 17.5486 8.08219 17.9531C8.10301 17.9594 8.12507 17.9518 8.13832 17.9347C8.44608 17.5144 8.72043 17.0712 8.95565 16.6052C8.96953 16.5779 8.95628 16.5455 8.92791 16.5347C8.49275 16.3696 8.0784 16.1684 7.67982 15.9398C7.64829 15.9214 7.64577 15.8763 7.67477 15.8547C7.75865 15.7919 7.84255 15.7265 7.92264 15.6605C7.93713 15.6484 7.95732 15.6459 7.97435 15.6535C10.5929 16.849 13.4277 16.849 16.0153 15.6535C16.0323 15.6452 16.0525 15.6478 16.0677 15.6598C16.1478 15.7259 16.2316 15.7919 16.3161 15.8547C16.3451 15.8763 16.3433 15.9214 16.3117 15.9398C15.9131 16.1728 15.4988 16.3696 15.063 16.5341C15.0346 16.5449 15.022 16.5779 15.0359 16.6052C15.2762 17.0706 15.5505 17.5137 15.8526 17.934C15.8652 17.9518 15.8879 17.9594 15.9087 17.9531C17.2161 17.5486 18.5417 16.9385 19.9103 15.9335C19.9223 15.9246 19.9298 15.9113 19.9311 15.8967C20.2647 12.4454 19.3723 9.44742 17.5655 6.78975C17.5611 6.78087 17.5535 6.77452 17.5447 6.77071ZM9.34668 14.0783C8.55833 14.0783 7.90876 13.3546 7.90876 12.4657C7.90876 11.5768 8.54574 10.8531 9.34668 10.8531C10.1539 10.8531 10.7972 11.5832 10.7846 12.4657C10.7846 13.3546 10.1476 14.0783 9.34668 14.0783ZM14.6632 14.0783C13.8748 14.0783 13.2253 13.3546 13.2253 12.4657C13.2253 11.5768 13.8622 10.8531 14.6632 10.8531C15.4704 10.8531 16.1137 11.5832 16.1011 12.4657C16.1011 13.3546 15.4704 14.0783 14.6632 14.0783Z" fill="#5865F2"/>
</svg>
