<svg width="24" height="24" viewBox="0 0 24 24" fill="none" xmlns="http://www.w3.org/2000/svg">
<circle cx="12" cy="12" r="12" fill="#EBEBEB"/>
<g clip-path="url(#clip0_2964_15829)">
<path d="M12 20C16.4183 20 20 16.4183 20 12C20 7.58172 16.4183 4 12 4C7.58172 4 4 7.58172 4 12C4 16.4183 7.58172 20 12 20Z" fill="url(#paint0_linear_2964_15829)"/>
<path fill-rule="evenodd" clip-rule="evenodd" d="M7.62167 11.916C9.95383 10.8999 11.509 10.23 12.2871 9.90636C14.5088 8.98228 14.9704 8.82176 15.2713 8.81646C15.3375 8.8153 15.4855 8.8317 15.5813 8.90947C15.6623 8.97515 15.6845 9.06386 15.6952 9.12612C15.7058 9.18839 15.7191 9.33023 15.7086 9.44106C15.5882 10.706 15.0672 13.7758 14.8022 15.1926C14.69 15.7921 14.4692 15.9932 14.2555 16.0128C13.7909 16.0556 13.4381 15.7058 12.9881 15.4109C12.284 14.9493 11.8863 14.662 11.2028 14.2116C10.413 13.6911 10.925 13.405 11.3751 12.9375C11.4929 12.8151 13.5399 10.9533 13.5795 10.7844C13.5844 10.7633 13.589 10.6845 13.5423 10.643C13.4955 10.6014 13.4264 10.6156 13.3766 10.6269C13.306 10.6429 12.1812 11.3864 10.0022 12.8573C9.68289 13.0765 9.3937 13.1834 9.1346 13.1778C8.84896 13.1716 8.2995 13.0163 7.89103 12.8835C7.39003 12.7206 6.99185 12.6345 7.02652 12.3579C7.04458 12.2139 7.24296 12.0666 7.62167 11.916Z" fill="white"/>
</g>
<defs>
<linearGradient id="paint0_linear_2964_15829" x1="12" y1="4" x2="12" y2="19.8813" gradientUnits="userSpaceOnUse">
<stop stop-color="#2AABEE"/>
<stop offset="1" stop-color="#229ED9"/>
</linearGradient>
<clipPath id="clip0_2964_15829">
<rect width="16" height="16" fill="white" transform="translate(4 4)"/>
</clipPath>
</defs>
</svg>
