<svg width="24" height="24" viewBox="0 0 24 24" fill="none" xmlns="http://www.w3.org/2000/svg">
<circle cx="12" cy="12" r="12" fill="#EBEBEB"/>
<g clip-path="url(#clip0_2964_15832)">
<path d="M20 11.8847C20 14.0043 19.6448 15.7236 19.2065 15.7236C18.7682 15.7236 18.4131 14.0047 18.4131 11.8847C18.4131 9.76473 18.7683 8.0459 19.2065 8.0459C19.6446 8.0459 20 9.76457 20 11.8847Z" fill="black"/>
<path d="M17.9755 11.8848C17.9755 14.251 16.9653 16.1699 15.7192 16.1699C14.4731 16.1699 13.4629 14.251 13.4629 11.8848C13.4629 9.51857 14.4729 7.59961 15.719 7.59961C16.9651 7.59961 17.9753 9.51795 17.9753 11.8848" fill="black"/>
<path d="M13.025 11.8848C13.025 14.3986 11.0046 16.4365 8.51256 16.4365C6.02049 16.4365 4 14.3982 4 11.8848C4 9.37146 6.02033 7.33301 8.51256 7.33301C11.0048 7.33301 13.025 9.371 13.025 11.8848Z" fill="black"/>
</g>
<defs>
<clipPath id="clip0_2964_15832">
<rect width="16" height="16" fill="white" transform="translate(4 4)"/>
</clipPath>
</defs>
</svg>
