<svg width="36" height="36" viewBox="0 0 36 36" fill="none" xmlns="http://www.w3.org/2000/svg">
<rect width="36" height="36" rx="18" fill="#52B1FF"/>
<path d="M23.7303 12.9818C22.5902 12.4504 21.3559 12.0647 20.0702 11.8418C20.0589 11.8415 20.0477 11.8436 20.0373 11.848C20.027 11.8525 20.0177 11.8591 20.0102 11.8675C19.8559 12.1504 19.6759 12.5189 19.5559 12.8018C18.1921 12.5961 16.8052 12.5961 15.4415 12.8018C15.3215 12.5104 15.1415 12.1504 14.9786 11.8675C14.97 11.8504 14.9443 11.8418 14.9186 11.8418C13.6329 12.0647 12.4071 12.4504 11.2585 12.9818C11.2499 12.9818 11.2414 12.9903 11.2328 12.9989C8.90129 16.4873 8.25842 19.8814 8.57557 23.2412C8.57557 23.2584 8.58414 23.2755 8.60129 23.2841C10.1442 24.4155 11.6271 25.1011 13.0928 25.5554C13.1186 25.564 13.1443 25.5554 13.1528 25.5382C13.4957 25.0668 13.8043 24.5697 14.07 24.0469C14.0872 24.0126 14.07 23.9783 14.0357 23.9698C13.5471 23.7812 13.0843 23.5584 12.63 23.3012C12.5957 23.2841 12.5957 23.2327 12.6214 23.2069C12.7157 23.1384 12.81 23.0612 12.9043 22.9927C12.9214 22.9755 12.9471 22.9755 12.9643 22.9841C15.9129 24.3297 19.093 24.3297 22.0074 22.9841C22.0245 22.9755 22.0502 22.9755 22.0674 22.9927C22.1617 23.0698 22.2559 23.1384 22.3502 23.2155C22.3845 23.2412 22.3845 23.2927 22.3417 23.3098C21.8959 23.5755 21.4245 23.7898 20.9359 23.9783C20.9016 23.9869 20.8931 24.0298 20.9016 24.0555C21.1759 24.5783 21.4845 25.0754 21.8188 25.5468C21.8445 25.5554 21.8702 25.564 21.8959 25.5554C23.3703 25.1011 24.8532 24.4155 26.3961 23.2841C26.4132 23.2755 26.4218 23.2584 26.4218 23.2412C26.7989 19.3586 25.796 15.9902 23.7646 12.9989C23.756 12.9903 23.7474 12.9818 23.7303 12.9818ZM14.5157 21.1928C13.6329 21.1928 12.8957 20.3785 12.8957 19.3757C12.8957 18.3729 13.6157 17.5587 14.5157 17.5587C15.4243 17.5587 16.1444 18.3815 16.1358 19.3757C16.1358 20.3785 15.4158 21.1928 14.5157 21.1928ZM20.4902 21.1928C19.6073 21.1928 18.8701 20.3785 18.8701 19.3757C18.8701 18.3729 19.5902 17.5587 20.4902 17.5587C21.3988 17.5587 22.1188 18.3815 22.1102 19.3757C22.1102 20.3785 21.3988 21.1928 20.4902 21.1928Z" fill="white"/>
</svg>
