<svg width="20" height="20" viewBox="0 0 20 20" fill="none" xmlns="http://www.w3.org/2000/svg">
<g id="discord">
<path id="Vector" d="M16.5443 4.16349C15.3808 3.62113 14.121 3.22748 12.8088 3.00004C12.7973 2.99967 12.7858 3.00183 12.7752 3.00637C12.7646 3.0109 12.7552 3.0177 12.7475 3.02628C12.59 3.31496 12.4063 3.69111 12.2839 3.97978C10.892 3.76984 9.47649 3.76984 8.08461 3.97978C7.96213 3.68236 7.77842 3.31496 7.6122 3.02628C7.60345 3.00879 7.5772 3.00004 7.55096 3.00004C6.2387 3.22748 4.98767 3.62113 3.81538 4.16349C3.80664 4.16349 3.79789 4.17223 3.78914 4.18098C1.40957 7.7413 0.753438 11.2054 1.07713 14.6345C1.07713 14.652 1.08588 14.6695 1.10337 14.6782C2.67809 15.8329 4.19157 16.5327 5.68755 16.9964C5.71379 17.0051 5.74004 16.9964 5.74879 16.9789C6.09872 16.4978 6.41366 15.9904 6.68487 15.4568C6.70236 15.4218 6.68487 15.3868 6.64987 15.378C6.15121 15.1856 5.6788 14.9582 5.21513 14.6957C5.18014 14.6782 5.18014 14.6257 5.20638 14.5995C5.30262 14.5295 5.39885 14.4508 5.49508 14.3808C5.51258 14.3633 5.53882 14.3633 5.55632 14.3721C8.56578 15.7455 11.8114 15.7455 14.7859 14.3721C14.8034 14.3633 14.8296 14.3633 14.8471 14.3808C14.9434 14.4595 15.0396 14.5295 15.1358 14.6083C15.1708 14.6345 15.1708 14.687 15.1271 14.7045C14.6722 14.9757 14.191 15.1943 13.6923 15.3868C13.6574 15.3955 13.6486 15.4393 13.6574 15.4655C13.9373 15.9991 14.2522 16.5065 14.5934 16.9876C14.6197 16.9964 14.6459 17.0051 14.6722 16.9964C16.1769 16.5327 17.6904 15.8329 19.2651 14.6782C19.2826 14.6695 19.2913 14.652 19.2913 14.6345C19.6763 10.6718 18.6527 7.23393 16.5793 4.18098C16.5706 4.17223 16.5618 4.16349 16.5443 4.16349ZM7.13978 12.5438C6.2387 12.5438 5.48633 11.7128 5.48633 10.6893C5.48633 9.6658 6.2212 8.83476 7.13978 8.83476C8.06712 8.83476 8.80198 9.67454 8.79323 10.6893C8.79323 11.7128 8.05837 12.5438 7.13978 12.5438ZM13.2374 12.5438C12.3363 12.5438 11.584 11.7128 11.584 10.6893C11.584 9.6658 12.3188 8.83476 13.2374 8.83476C14.1648 8.83476 14.8996 9.67454 14.8909 10.6893C14.8909 11.7128 14.1648 12.5438 13.2374 12.5438Z" fill="white"/>
</g>
</svg>
