<svg width="32" height="32" viewBox="0 0 32 32" fill="none" xmlns="http://www.w3.org/2000/svg">
<circle cx="16" cy="16" r="14.5455" fill="#02D300" stroke="white" stroke-width="2.90909"/>
<path d="M19.8618 12.062C20.4298 11.4942 21.3504 11.4944 21.9185 12.062C22.4865 12.6301 22.4865 13.5516 21.9185 14.1197L15.7583 20.2788C15.7549 20.2823 15.752 20.2871 15.7486 20.2906C15.6569 20.3822 15.5549 20.457 15.4478 20.5191C15.4085 20.5419 15.3685 20.5627 15.3277 20.5816C15.1348 20.6703 14.9275 20.7155 14.7193 20.7154C14.3471 20.7153 13.9749 20.5745 13.6909 20.2906C13.6876 20.2872 13.6845 20.2832 13.6812 20.2798L10.606 17.2046C10.0382 16.6367 10.0383 15.716 10.606 15.148C11.174 14.5799 12.0956 14.5799 12.6636 15.148L14.7193 17.2036L19.8618 12.062Z" fill="white"/>
</svg>
