<svg width="16" height="16" viewBox="0 0 16 16" fill="none" xmlns="http://www.w3.org/2000/svg">
<g id="exit" clip-path="url(#clip0_2570_8016)">
<path id="Vector" d="M14.8451 7.62154L12.0361 4.9172C11.8114 4.70078 11.4743 4.70078 11.2496 4.9172C11.0249 5.13348 11.0249 5.45804 11.2496 5.67446L13.1035 7.45928H7.71023C7.37316 7.45928 7.14844 7.67556 7.14844 8.00012C7.14844 8.32468 7.37316 8.54096 7.71023 8.54096H13.1035L11.2497 10.3258C11.025 10.5422 11.025 10.8668 11.2497 11.083C11.3621 11.1913 11.4745 11.2453 11.6429 11.2453C11.8116 11.2453 11.9239 11.1912 12.0363 11.083L14.8452 8.32468C14.8452 8.32468 14.8453 8.27054 14.9015 8.27054C15.07 8.10826 15.07 7.78384 14.8452 7.62156L14.8451 7.62154Z" fill="black"/>
<path id="Vector_2" d="M13.3283 11.7861C12.9912 11.7861 12.7665 12.0025 12.7665 12.3269V13.4087C12.7665 13.7332 12.5418 13.9496 12.2047 13.9496H2.65414C2.31706 13.9496 2.09234 13.7332 2.09234 13.4087V2.59128C2.09234 2.26686 2.31706 2.05044 2.65414 2.05044H12.2047C12.5418 2.05044 12.7665 2.26686 12.7665 2.59128V3.67311C12.7665 3.99755 12.9912 4.21395 13.3283 4.21395C13.6654 4.21395 13.8901 3.99753 13.8901 3.67311V2.59128C13.8901 1.67188 13.1598 0.96875 12.2047 0.96875H2.65414C1.69916 0.96875 0.96875 1.67188 0.96875 2.59128V13.4087C0.96875 14.3281 1.69917 15.0313 2.65414 15.0313H12.2047C13.1598 15.0313 13.8901 14.3281 13.8901 13.4087V12.3269C13.8901 12.0025 13.6654 11.7861 13.3283 11.7861Z" fill="black"/>
</g>
<defs>
<clipPath id="clip0_2570_8016">
<rect width="16" height="16" fill="white"/>
</clipPath>
</defs>
</svg>
