<svg width="24" height="24" viewBox="0 0 24 24" fill="none" xmlns="http://www.w3.org/2000/svg">
<path d="M12 2C6.4775 2 2 6.59026 2 12.2533C2 16.7833 4.86563 20.627 8.83875 21.9823C9.33875 22.0772 9.5225 21.76 9.5225 21.4889C9.5225 21.2447 9.51312 20.4366 9.50875 19.5799C6.72625 20.2002 6.13938 18.37 6.13938 18.37C5.68438 17.1851 5.02938 16.8698 5.02938 16.8698C4.12188 16.2335 5.09812 16.2463 5.09812 16.2463C6.10187 16.3187 6.63062 17.303 6.63062 17.303C7.5225 18.8705 8.97 18.4174 9.54062 18.1553C9.63 17.4927 9.88938 17.0403 10.1756 16.7839C7.95438 16.525 5.61937 15.6452 5.61937 11.7169C5.61937 10.5974 6.01 9.6829 6.65 8.96453C6.54625 8.70627 6.20375 7.66365 6.74687 6.25126C6.74687 6.25126 7.58688 5.9757 9.4975 7.30222C10.295 7.07472 11.1506 6.9613 12.0006 6.95681C12.85 6.96066 13.7063 7.07472 14.5056 7.30222C16.4144 5.9757 17.2525 6.25126 17.2525 6.25126C17.7969 7.66365 17.4544 8.70627 17.3506 8.96453C17.9919 9.68226 18.38 10.5974 18.38 11.7169C18.38 15.6548 16.0406 16.5218 13.8138 16.7762C14.1725 17.0947 14.4919 17.7183 14.4919 18.675C14.4919 20.047 14.48 21.1512 14.48 21.4889C14.48 21.7619 14.66 22.0817 15.1669 21.981C19.1381 20.6238 22 16.782 22 12.2533C22 6.59026 17.5225 2 12 2Z" fill="#444444"/>
</svg>
