<svg width="36" height="36" viewBox="0 0 36 36" fill="none" xmlns="http://www.w3.org/2000/svg">
<rect width="36" height="36" rx="18" fill="#0A0A0A"/>
<path d="M19 6C12.373 6 7 11.5083 7 18.3039C7 23.7399 10.4388 28.3524 15.2065 29.9788C15.8065 30.0926 16.027 29.712 16.027 29.3867C16.027 29.0937 16.0157 28.124 16.0105 27.0958C12.6715 27.8402 11.9672 25.644 11.9672 25.644C11.4213 24.2221 10.6353 23.8438 10.6353 23.8438C9.54625 23.0801 10.7177 23.0955 10.7177 23.0955C11.9222 23.1824 12.5567 24.3636 12.5567 24.3636C13.627 26.2446 15.364 25.7009 16.0487 25.3864C16.156 24.5912 16.4672 24.0483 16.8108 23.7407C14.1453 23.43 11.3432 22.3742 11.3432 17.6603C11.3432 16.3168 11.812 15.2195 12.58 14.3574C12.4555 14.0475 12.0445 12.7964 12.6962 11.1015C12.6962 11.1015 13.7043 10.7708 15.997 12.3627C16.954 12.0897 17.9807 11.9536 19.0007 11.9482C20.02 11.9528 21.0475 12.0897 22.0068 12.3627C24.2973 10.7708 25.303 11.1015 25.303 11.1015C25.9562 12.7964 25.5452 14.0475 25.4207 14.3574C26.1903 15.2187 26.656 16.3168 26.656 17.6603C26.656 22.3857 23.8488 23.4262 21.1765 23.7315C21.607 24.1137 21.9902 24.8619 21.9902 26.01C21.9902 27.6564 21.976 28.9814 21.976 29.3867C21.976 29.7143 22.192 30.098 22.8002 29.9773C27.5658 28.3485 31 23.7384 31 18.3039C31 11.5083 25.627 6 19 6Z" fill="white"/>
</svg>
