<svg width="20" height="20" viewBox="0 0 20 20" fill="none" xmlns="http://www.w3.org/2000/svg">
<path d="M9.99935 18.3337C5.39685 18.3337 1.66602 14.6028 1.66602 10.0003C1.66602 5.39783 5.39685 1.66699 9.99935 1.66699C14.6018 1.66699 18.3327 5.39783 18.3327 10.0003C18.3327 14.6028 14.6018 18.3337 9.99935 18.3337ZM8.09102 16.3895C7.26886 14.6456 6.79258 12.7588 6.68852 10.8337H3.38435C3.5465 12.1161 4.07762 13.3238 4.91316 14.3101C5.74869 15.2964 6.85269 16.0188 8.09102 16.3895ZM8.35768 10.8337C8.48352 12.8662 9.06435 14.7753 9.99935 16.4603C10.9596 14.7308 11.5206 12.8082 11.641 10.8337H8.35768ZM16.6143 10.8337H13.3102C13.2061 12.7588 12.7298 14.6456 11.9077 16.3895C13.146 16.0188 14.25 15.2964 15.0855 14.3101C15.9211 13.3238 16.4522 12.1161 16.6143 10.8337ZM3.38435 9.16699H6.68852C6.79258 7.24181 7.26886 5.35506 8.09102 3.61116C6.85269 3.98189 5.74869 4.70429 4.91316 5.69057C4.07762 6.67686 3.5465 7.88458 3.38435 9.16699ZM8.35852 9.16699H11.6402C11.52 7.19249 10.9593 5.26994 9.99935 3.54033C9.03908 5.26987 8.47815 7.19243 8.35768 9.16699H8.35852ZM11.9077 3.61116C12.7298 5.35506 13.2061 7.24181 13.3102 9.16699H16.6143C16.4522 7.88458 15.9211 6.67686 15.0855 5.69057C14.25 4.70429 13.146 3.98189 11.9077 3.61116Z" fill="white"/>
</svg>
