<svg width="123" height="120" viewBox="0 0 123 120" fill="none" xmlns="http://www.w3.org/2000/svg">
<g id="Group 2035875473">
<path id="Union" d="M94.2442 26.5373L102.005 36.6805C107.452 43.7995 108.32 53.4057 105.249 63.2258C102.178 73.0445 95.1758 83.0382 84.9543 90.8587C74.7328 98.6791 63.2557 102.824 52.9756 103.22C42.6942 103.616 33.6501 100.265 28.2033 93.1461L20.4428 83.0029C14.9961 75.884 14.1269 66.2782 17.1979 56.4582C20.2686 46.6394 27.2704 36.645 37.4919 28.8245C47.7134 21.004 59.1911 16.8597 69.4712 16.4638C79.592 16.074 88.5142 19.3143 93.9859 26.2061L94.2442 26.5373Z" fill="#CCC2D6" stroke="black" stroke-width="0.844307" stroke-linejoin="round"/>
<path id="Ellipse 6998" d="M94.2442 26.5373C99.6908 33.6563 100.559 43.2626 97.4883 53.0826C94.4176 62.9013 87.4152 72.895 77.1937 80.7155C66.9723 88.5359 55.4951 92.681 45.215 93.077C34.9336 93.473 25.8896 90.1217 20.4428 83.0029C14.9961 75.884 14.1269 66.2782 17.1979 56.4582C20.2686 46.6394 27.2704 36.645 37.4919 28.8245C47.7134 21.004 59.1911 16.8597 69.4712 16.4638C79.7527 16.0678 88.7975 19.4183 94.2442 26.5373Z" fill="white" stroke="black" stroke-width="0.844307"/>
<path id="Ellipse 6999" d="M85.3362 33.3513C89.4553 38.735 90.1182 46.0081 87.7883 53.4582C85.4587 60.9069 80.1445 68.4941 72.3818 74.4333C64.619 80.3726 55.9062 83.5176 48.1074 83.8181C40.3072 84.1185 33.4607 81.5766 29.3416 76.1929C25.2227 70.8092 24.5603 63.5368 26.8902 56.0868C29.2197 48.638 34.5333 41.0502 42.2961 35.1108C50.0588 29.1715 58.7722 26.0273 66.571 25.7269C74.371 25.4265 81.2171 27.9678 85.3362 33.3513Z" fill="white" stroke="black" stroke-width="0.844307"/>
<g id="Union_2">
<path d="M50.1815 56.1268C49.9758 56.3776 49.6653 56.5599 49.328 56.6273L49.3268 56.6288L32.4043 60.0092C31.946 60.1015 31.5096 59.9541 31.322 59.6426C31.1553 59.3657 31.2195 58.99 31.4878 58.6628L35.2963 54.0185C35.502 53.7677 35.8126 53.5854 36.1498 53.518L45.5007 51.6488C45.9051 51.5677 46.2803 51.3476 46.5273 51.0463L48.8385 48.228C49.0855 47.9267 49.1768 47.578 49.0868 47.2729L47.0373 40.2411C46.9634 39.9874 47.0391 39.6987 47.2447 39.4479L51.0369 34.8235C51.3341 34.4611 51.8063 34.2345 52.2409 34.2448C52.4001 34.2498 52.5442 34.2815 52.6682 34.3377C52.8738 34.4308 53.0221 34.5882 53.082 34.7936L56.7945 47.5222C56.8684 47.7759 56.7927 48.0646 56.5871 48.3154L50.1815 56.1268Z" fill="black"/>
<path d="M80.5679 47.0782C80.7977 47.3668 80.7518 47.7886 80.4546 48.151L80.4512 48.1495L76.6589 52.774C76.4533 53.0248 76.1371 53.2045 75.7901 53.2676L66.1715 55.0134C65.7537 55.0884 65.3718 55.3055 65.1247 55.6068L62.8135 58.4252C62.5665 58.7265 62.4831 59.0768 62.5836 59.3887L64.9037 66.5431C64.9874 66.8012 64.9173 67.0925 64.7116 67.3433L60.9031 71.9876C60.6347 72.3149 60.2064 72.5257 59.7852 72.5362C59.3085 72.5488 58.9182 72.3217 58.8031 71.9675L54.6025 59.0176C54.5189 58.7595 54.5889 58.4682 54.7946 58.2174L61.2003 50.406C61.4059 50.1552 61.7221 49.9754 62.0691 49.9124L79.4816 46.7538C79.7612 46.7043 80.0283 46.733 80.2436 46.8306C80.3735 46.8894 80.4833 46.9727 80.5679 47.0782Z" fill="black"/>
</g>
</g>
</svg>
