<svg width="24" height="24" viewBox="0 0 24 24" fill="none" xmlns="http://www.w3.org/2000/svg">
<g id="Frame 2147228908">
<path id="Vector 4109" d="M9.60867 8.25246C11.9449 6.16401 10.9068 4.33597 11.5556 4.0103C12.2043 3.68462 16.8754 11.1996 16.4229 10.2104C15.9704 9.22113 17.3964 8.25246 17.3964 8.25246C18.0453 10.7543 19.9922 15.7578 18.3698 17.7158C16.7474 19.6737 15.4495 19.8912 14.476 20C14.476 20 14.9285 19.3582 14.476 17.7158C14.0236 16.0733 11.4277 14.1154 12.0767 15.4207C12.7256 16.726 10.5823 20 10.5823 20C9.8053 20 7.53401 18.6844 6.36386 15.7578C5.28112 13.0499 6.68834 10.863 9.60867 8.25246Z" fill="#FE5432"/>
</g>
</svg>
