<svg width="160" height="120" viewBox="0 0 160 120" fill="none" xmlns="http://www.w3.org/2000/svg">
<g id="organization">
<g id="Group 2035875653">
<g id="Group 2035875649">
<path id="Union" d="M45.8345 12.5132C40.2117 5.90674 29.8013 12.9739 25.6048 17.0954C21.4181 21.2073 15.0891 31.6522 20.615 38.5106L24.4449 42.743L27.7008 39.3381C31.4019 38.5056 35.5987 36.1341 39.3307 32.4688C43.581 28.2944 46.2742 23.379 46.9728 19.1839L49.8438 17.0954L45.8345 12.5132Z" fill="#FF2A2A" stroke="black" stroke-width="0.624256" stroke-linejoin="round"/>
<path id="Ellipse 7074" d="M49.4783 16.9049C51.2658 18.9069 51.553 22.1139 50.4613 25.7608C49.3727 29.3971 46.9287 33.3991 43.3754 36.8889C39.8221 40.3787 35.8543 42.674 32.3233 43.5747C28.7821 44.4781 25.7498 43.967 23.9623 41.9651C22.1749 39.9631 21.8876 36.7561 22.9794 33.1092C24.068 29.4729 26.512 25.4709 30.0653 21.9811C33.6185 18.4913 37.5864 16.1961 41.1174 15.2953C44.6586 14.392 47.6909 14.903 49.4783 16.9049Z" fill="#B7B8D4" stroke="black" stroke-width="0.624256"/>
</g>
<path id="Vector 4092" d="M133.638 66.8443L120.468 34.6641L103.044 41.1766L68.728 46.8341C70.5668 56.5435 76.5524 84.6785 81.4221 96.9682C106.233 93.9564 116.341 83.5958 116.341 74.3194L133.638 66.8443Z" fill="#FF2A2A" stroke="black" stroke-width="0.624256" stroke-linejoin="round"/>
<path id="Union_2" d="M106.104 74.706L105.848 74.8772L105.864 74.9019L105.885 74.9232C107.55 76.6466 108.54 78.9662 108.653 81.424L108.907 86.8928C109.032 89.599 107.367 92.0335 104.899 92.7817L101.154 93.9166L100.938 93.982L100.938 94.2111C100.938 97.1851 99.1638 98.9525 96.8492 99.7191C94.5159 100.492 91.6711 100.228 89.6579 99.1381L89.3621 98.9779L89.2309 99.2845C88.0539 102.034 84.6328 102.898 81.8094 100.593L81.6158 100.434L81.4235 100.586L81.0887 100.851C79.063 102.451 76.2386 102.821 73.71 102.494C72.4497 102.331 71.2783 101.997 70.3369 101.569C69.3859 101.137 68.7071 100.626 68.3851 100.132L68.3709 100.11L68.3535 100.091C62.3407 93.4787 59.2335 89.0737 55.935 84.3974C55.7987 84.2041 55.662 84.0104 55.5248 83.816L55.5246 83.8157C52.0675 78.918 48.6032 74.01 42.3246 67.1034L25.6903 42.0184C25.6899 42.0177 25.6895 42.0171 25.6891 42.0164C25.1048 41.106 24.8167 39.8838 24.8125 38.4494C24.8082 37.0165 25.0876 35.3932 25.6157 33.7044C26.6722 30.3256 28.7124 26.722 31.3947 23.9086C34.2811 20.8813 37.9557 18.7721 41.3259 17.8694C44.7189 16.9607 47.6965 17.2971 49.3081 18.9874C50.7302 20.479 52.0305 21.5793 53.4659 22.7327C53.794 22.9964 54.1289 23.2626 54.4738 23.5368C55.6387 24.4629 56.9185 25.4803 58.4415 26.7998C59.3185 27.5595 60.452 27.9694 61.7484 28.2226C62.9838 28.4638 64.4014 28.5684 65.9314 28.6812C66.0052 28.6867 66.0792 28.6921 66.1535 28.6976C69.3863 28.9369 73.1595 29.2473 77.0906 30.918C79.5034 32.9032 80.0688 36.1915 80.4946 39.5089C80.5221 39.7234 80.549 39.938 80.576 40.1523C80.7553 41.5794 80.9325 42.9897 81.2581 44.2327C81.6331 45.6646 82.2176 46.9294 83.2793 47.7714C88.1207 51.6109 93.7588 58.3767 98.1986 64.2046C100.415 67.1145 102.328 69.7833 103.687 71.7246C104.366 72.6952 104.906 73.4838 105.277 74.0295C105.462 74.3024 105.605 74.5145 105.702 74.6583C105.75 74.7303 105.786 74.7851 105.811 74.8219L105.839 74.8634L105.845 74.8738L105.847 74.8764L105.848 74.877C105.848 74.8771 105.848 74.8772 106.104 74.706Z" fill="white" stroke="black" stroke-width="0.624256"/>
<path id="Vector 4087" d="M88.3767 67.7822L88.2377 72.6528L98.233 83.917L101.053 94.2558" stroke="black" stroke-width="0.624256" stroke-linejoin="round"/>
<path id="Vector 4088" d="M88.896 73.3838C91.6024 80.1038 98.1627 91.6757 100.913 94.1307" stroke="black" stroke-width="0.624256" stroke-linejoin="round"/>
<path id="Vector 4089" d="M81.4607 83.2773C82.4523 86.2842 84.3385 92.662 89.5108 99.1113" stroke="black" stroke-width="0.624256" stroke-linejoin="round"/>
<path id="Vector 4090" d="M72.6179 87.959C75.5469 96.1681 81.6768 100.879 81.6768 100.879" stroke="black" stroke-width="0.624256" stroke-linejoin="round"/>
<path id="Vector 4081" d="M86.7718 31.7336L105.038 40.9963V58.7862C92.9005 62.119 82.718 51.0922 79.1438 45.1622C76.383 45.1622 70.3757 45.3207 68.4336 45.9547C56.1961 56.274 52.2624 49.7261 51.8252 45.1622L57.961 40.9963L60.1656 37.4296C61.8777 34.6595 64.7375 32.7989 67.9637 32.356L80.3522 30.6552C82.552 30.3532 84.7915 30.7294 86.7718 31.7336Z" fill="#FF2A2A"/>
<path id="Vector 4093" d="M104.479 40.5804L87.0881 31.8726C84.9009 30.7775 82.4337 30.3694 80.0104 30.7021L68.5298 32.2783C64.9451 32.7704 61.7676 34.8378 59.8652 37.9156L57.961 40.9963L53.014 44.3551C52.281 44.8527 51.8426 45.7245 52.1262 46.5639C53.4842 50.5832 59.0374 53.7022 68.4336 45.9547C70.3757 45.3207 76.383 45.1622 79.1438 45.1622C82.718 51.0922 92.9005 62.119 105.038 58.7862" stroke="black" stroke-width="0.624256" stroke-linejoin="round"/>
<g id="Vector 4083">
<path d="M61.7693 100.014L65.9785 97.6588L62.4677 93.5268C65.5423 90.6038 66.5869 86.2521 62.1516 85.152C60.6412 85.4942 56.714 86.4121 52.7366 89.0329C49.0152 92.1611 52.4207 96.0072 54.5887 97.5392L61.7693 100.014Z" fill="#FF2A2A"/>
<path d="M58.925 95.9093C59.9221 95.5149 61.5831 94.3678 62.4677 93.5268M62.4677 93.5268C65.5423 90.6038 66.5869 86.2521 62.1516 85.152C60.6412 85.4942 56.714 86.4121 52.7366 89.0329C49.0152 92.1611 52.4207 96.0072 54.5887 97.5392L61.7693 100.014L65.9785 97.6588L62.4677 93.5268Z" stroke="black" stroke-width="0.624256" stroke-linejoin="round"/>
</g>
<path id="Vector 4085" d="M49.2397 69.1779C52.7656 71.6873 52.6162 74.5113 51.6375 78.2025L47.3049 84.0251L44.679 83.3738C42.9364 82.9416 41.4339 81.8058 40.5264 80.2346C39.687 78.7811 39.4229 77.0694 39.7882 75.4493L40.1333 73.9187C41.9935 71.5019 46.419 67.1703 49.2397 69.1779Z" fill="#FF2A2A" stroke="black" stroke-width="0.624256" stroke-linejoin="round"/>
<path id="Vector 4084" d="M58.3662 79.2589C60.5939 81.6507 58.6807 85.2804 57.4456 86.7963L51.0862 91.4521L49.6031 90.8784C47.9224 90.2282 46.6346 88.8131 46.1366 87.0693C45.7971 85.8806 45.8487 84.62 46.2834 83.4784L46.8211 82.0665L50.5761 78.8085C52.2446 77.962 56.1384 76.8671 58.3662 79.2589Z" fill="#FF2A2A" stroke="black" stroke-width="0.624256" stroke-linejoin="round"/>
<path id="Vector 4086" d="M42.1309 63.0772C43.7397 63.0765 46.5779 64.7573 45.6582 68.836C44.953 69.4604 42.9029 71.3674 40.3449 74.0008C36.4592 73.9606 35.7249 68.7699 36.6781 66.6087C38.1538 64.7548 40.6803 63.0778 42.1309 63.0772Z" fill="#FF2A2A" stroke="black" stroke-width="0.624256" stroke-linejoin="round"/>
<path id="Union_3" d="M134.609 66.8239C127.555 70.1709 119.739 61.4398 117.438 55.2057C115.151 49.01 113.839 36.7889 122.146 33.8647L126.2 32.1758L127.26 34.8854C131.025 36.8208 134.646 41.2031 136.777 46.9747C138.765 52.3628 139.016 57.7733 137.787 61.7957L139.025 64.837L134.609 66.8239Z" fill="white" stroke="black" stroke-width="0.624256" stroke-linejoin="round"/>
<path id="Ellipse 7071" d="M141.947 44.768C143.623 49.3076 144.035 53.8496 143.362 57.5161C142.688 61.1894 140.939 63.9276 138.343 64.9819C135.746 66.0362 132.695 65.2463 129.839 63.0065C126.987 60.7709 124.376 57.1215 122.701 52.582C121.025 48.0424 120.613 43.5004 121.286 39.8339C121.96 36.1605 123.709 33.4223 126.305 32.368C128.902 31.3137 131.953 32.1037 134.809 34.3435C137.661 36.5791 140.272 40.2284 141.947 44.768Z" fill="white" stroke="black" stroke-width="0.624256"/>
<path id="Ellipse 7072" d="M140.004 45.5564C141.348 49.1973 141.677 52.8374 141.139 55.7723C140.599 58.7139 139.202 60.8906 137.142 61.727C135.081 62.5635 132.651 61.9405 130.364 60.1469C128.081 58.3574 125.988 55.4333 124.644 51.7924C123.3 48.1516 122.971 44.5115 123.51 41.5766C124.05 38.635 125.446 36.4583 127.507 35.6219C129.567 34.7854 131.997 35.4084 134.285 37.202C136.567 38.9915 138.66 41.9155 140.004 45.5564Z" fill="#CCC2D6" stroke="black" stroke-width="0.624256"/>
<path id="Intersect" d="M123.288 43.5489C123.412 41.101 124.059 38.9956 125.146 37.5199C126.912 37.7926 128.772 38.8693 130.467 40.5962C132.216 42.3777 133.772 44.8333 134.847 47.7469C135.904 50.6101 136.335 53.4758 136.207 55.9997C136.083 58.4476 135.436 60.5531 134.349 62.0287C132.583 61.7561 130.723 60.6794 129.028 58.9524C127.278 57.1709 125.723 54.7153 124.647 51.8017C123.591 48.9385 123.16 46.0729 123.288 43.5489Z" fill="black" stroke="black" stroke-width="0.624256"/>
<path id="Vector 4094" d="M98.3027 84.0019L89.1733 73.6982C91.2493 80.3081 97.9471 90.061 101.037 94.1113L98.3027 84.0019Z" fill="black" stroke="black" stroke-width="0.624256" stroke-linejoin="round"/>
</g>
</g>
</svg>
