<svg width="160" height="120" viewBox="0 0 160 120" fill="none" xmlns="http://www.w3.org/2000/svg">
<g id="project">
<g id="Group 2035876088">
<g id="Group 2035875610">
<path id="Union" d="M156.45 45.907C156.43 46.6301 155.965 47.4562 154.896 48.1131L154.895 48.1136L92.3125 86.7477L92.3126 86.7413L91.5331 87.2265C90.4497 87.9007 88.993 88.253 87.5089 88.253C86.0249 88.253 84.5682 87.9007 83.4848 87.2265L82.7313 86.7575L82.731 86.7786L20.5157 48.1159C20.5153 48.1156 20.5149 48.1154 20.5144 48.1151C19.4406 47.4378 18.9861 46.6182 18.9861 45.9201L17.9844 45.9182L17.9844 45.9201L17.8946 68.682V68.684C17.8946 69.7898 18.5388 70.8228 19.6571 71.5771L19.6571 71.5812L19.771 71.652C19.8126 71.6785 19.8547 71.7047 19.8975 71.7305C19.8985 71.7311 19.8995 71.7317 19.9004 71.7323L82.8664 110.862L83.6196 111.33L83.6208 111.245C84.7535 111.763 86.0779 112.016 87.3883 112.018C88.6958 112.021 90.0226 111.774 91.1657 111.265L91.1646 111.342L91.9415 110.862L155.331 71.7303C156.624 70.9352 157.362 69.8365 157.363 68.6221L156.45 45.907ZM156.45 45.907C156.45 45.9062 156.45 45.9054 156.45 45.9046L156.45 45.9045C156.45 45.8885 156.451 45.8724 156.451 45.8564L156.451 45.8497L157.452 45.8564C157.452 45.8793 157.452 45.9021 157.451 45.925C157.451 45.9271 157.451 45.9292 157.451 45.9312C157.451 45.9313 157.451 45.9313 157.451 45.9313L157.363 68.6202L156.45 45.907Z" fill="#EDE4F7" stroke="black" stroke-width="1.00177"/>
<g id="Group 2035875600">
<g id="Group 2035875600_2">
<path id="Ellipse 6" d="M70.0589 39.5555L70.0758 39.5445L70.0917 39.5321C70.8749 38.9257 72.1032 38.8689 73.6399 39.8238C75.0679 40.7112 76.3925 42.2583 77.3616 44.0648C78.3298 45.8698 78.917 47.8853 78.917 49.6769C78.917 51.5243 78.3013 52.6559 77.4785 53.1293L77.4615 53.1391L77.4453 53.1502L75.145 54.725L67.6553 41.1244L70.0589 39.5555Z" fill="#D9D9D9" stroke="black" stroke-width="1.00177"/>
<path id="Ellipse 4" d="M76.0927 51.6307C76.0927 53.4388 75.5003 54.5661 74.6981 55.0611C73.9092 55.548 72.7291 55.5361 71.2833 54.6438C69.8387 53.7524 68.4995 52.1988 67.52 50.3853C66.5412 48.5733 65.9478 46.5501 65.9478 44.752C65.9478 42.9439 66.5402 41.8166 67.3423 41.3216C68.1313 40.8347 69.3113 40.8466 70.7572 41.7389C72.2017 42.6303 73.5409 44.184 74.5205 45.9974C75.4992 47.8094 76.0927 49.8326 76.0927 51.6307Z" fill="#BDBDBD" stroke="black" stroke-width="1.00177"/>
<g id="Group 61">
<path id="Ellipse 10" d="M74.0726 50.1749C74.0726 52.2648 72.705 53.0725 71.0615 52.0583C69.418 51.0441 68.0504 48.5485 68.0504 46.4586C68.0504 44.3687 69.418 43.561 71.0615 44.5752C72.705 45.5894 74.0726 48.0851 74.0726 50.1749Z" fill="#D9D9D9" stroke="black" stroke-width="1.00177"/>
<path id="Vector 6" d="M69.6875 47.4688L72.4374 49.1657" stroke="black" stroke-width="1.00177"/>
</g>
</g>
<g id="Group 2035875601">
<path id="Ellipse 7" d="M85.5842 49.284L85.6012 49.273L85.6171 49.2606C86.4002 48.6542 87.6286 48.5975 89.1653 49.5523C90.5933 50.4397 91.9179 51.9868 92.887 53.7934C93.8552 55.5983 94.4424 57.6139 94.4424 59.4055C94.4424 61.2529 93.8267 62.3844 93.0039 62.8578L92.9869 62.8676L92.9707 62.8787L90.6704 64.4535L83.1807 50.8529L85.5842 49.284Z" fill="#D9D9D9" stroke="black" stroke-width="1.00177"/>
<path id="Ellipse 8" d="M91.6178 61.3602C91.6178 63.1683 91.0254 64.2956 90.2233 64.7906C89.4343 65.2775 88.2543 65.2656 86.8084 64.3733C85.3639 63.4819 84.0247 61.9282 83.0451 60.1148C82.0664 58.3028 81.4729 56.2796 81.4729 54.4815C81.4729 52.6734 82.0653 51.5461 82.8675 51.0511C83.6565 50.5642 84.8365 50.5761 86.2823 51.4684C87.7269 52.3598 89.0661 53.9135 90.0456 55.7269C91.0244 57.5389 91.6178 59.5621 91.6178 61.3602Z" fill="#BDBDBD" stroke="black" stroke-width="1.00177"/>
<g id="Group 62">
<path id="Ellipse 10_2" d="M89.555 59.9542C89.555 62.0441 88.1874 62.8518 86.5439 61.8376C84.9004 60.8234 83.5328 58.3278 83.5328 56.2379C83.5328 54.148 84.9004 53.3403 86.5439 54.3545C88.1874 55.3687 89.555 57.8644 89.555 59.9542Z" fill="#D9D9D9" stroke="black" stroke-width="1.00177"/>
<path id="Vector 6_2" d="M85.17 57.2471L87.9199 58.944" stroke="black" stroke-width="1.00177"/>
</g>
</g>
<g id="Group 2035875602">
<path id="Ellipse 9" d="M101.111 58.4422L101.128 58.4312L101.144 58.4188C101.927 57.8124 103.156 57.7557 104.692 58.7105C106.12 59.5979 107.445 61.145 108.414 62.9516C109.382 64.7565 109.969 66.7721 109.969 68.5637C109.969 70.4111 109.354 71.5426 108.531 72.016L108.514 72.0258L108.498 72.0369L106.197 73.6118L98.7077 60.0111L101.111 58.4422Z" fill="#D9D9D9" stroke="black" stroke-width="1.00177"/>
<path id="Ellipse 10_3" d="M107.145 70.5174C107.145 72.3255 106.553 73.4528 105.751 73.9478C104.962 74.4347 103.782 74.4228 102.336 73.5305C100.891 72.6391 99.5519 71.0855 98.5724 69.272C97.5936 67.46 97.0002 65.4369 97.0002 63.6387C97.0002 61.8307 97.5926 60.7034 98.3947 60.2083C99.1837 59.7215 100.364 59.7334 101.81 60.6256C103.254 61.517 104.593 63.0707 105.573 64.8841C106.552 66.6961 107.145 68.7193 107.145 70.5174Z" fill="#BDBDBD" stroke="black" stroke-width="1.00177"/>
<g id="Group 63">
<path id="Ellipse 10_4" d="M104.896 69.0167C104.896 71.1066 103.528 71.9143 101.885 70.9001C100.241 69.8859 98.8739 67.3903 98.8739 65.3004C98.8739 63.2105 100.241 62.4028 101.885 63.417C103.528 64.4312 104.896 66.9269 104.896 69.0167Z" fill="#D9D9D9" stroke="black" stroke-width="1.00177"/>
<path id="Vector 6_3" d="M100.508 66.3096L103.258 68.0065" stroke="black" stroke-width="1.00177"/>
</g>
</g>
</g>
<path id="Vector" d="M92.0909 88.065L92.0902 88.0654C90.7992 88.8588 89.1493 89.2416 87.5279 89.2416C85.9068 89.2416 84.263 88.8589 82.9857 88.0639L20.0162 48.9646C20.0159 48.9643 20.0155 48.9641 20.0152 48.9639C18.7225 48.1691 17.991 47.0698 17.9956 45.8844C17.9999 44.7762 18.6473 43.7433 19.7776 42.9644V42.9234L20.0155 42.7766L83.4058 3.6758L83.4065 3.67537C84.6975 2.88196 86.3474 2.49911 87.9688 2.49911C89.5897 2.49911 91.2334 2.8818 92.5107 3.67668L92.0909 88.065ZM92.0909 88.065L155.481 48.9641L155.483 48.9631C156.759 48.169 157.496 47.0716 157.501 45.8883C157.506 44.7028 156.774 43.6034 155.481 42.8085C155.481 42.8084 155.48 42.8083 155.48 42.8082L92.511 3.67686L92.0909 88.065Z" fill="white" stroke="black" stroke-width="1.00177"/>
<g id="Group 2035875667">
<path id="Rectangle 28" d="M65.501 95.6366L65.501 81.4801L35.1092 62.7566L35.1092 77.3096L65.501 95.6366Z" fill="black" stroke="black" stroke-width="0.589743"/>
<g id="Group 127">
<path id="Union_2" d="M42.4462 74.1546L42.3038 74.091L42.171 74.1729L33.2514 79.6773C31.4421 80.7938 30.24 82.6738 29.9856 84.7845C29.7172 87.0121 28.3007 88.9359 26.2534 89.8537L7.88123 98.0894L7.70708 98.1675L7.70697 98.3583L7.70513 101.541L7.70503 101.706L7.84531 101.793L29.2792 115.001L29.4341 115.096L29.5888 115L47.4714 103.965C49.799 102.529 51.5073 100.276 52.2626 97.6472C52.976 95.1645 54.5876 93.0361 56.7839 91.6764L63.9134 87.2624L64.053 87.1759V87.0117V84.0071V83.816L63.8785 83.738L42.4462 74.1546Z" fill="#EDE4F7" stroke="black" stroke-width="0.589743"/>
<path id="Union_3" d="M63.4921 83.9397L63.8987 83.6888L63.4921 83.4379L42.4811 70.4717L42.3262 70.3762L42.1713 70.4717L33.4901 75.829C31.5302 77.0385 30.228 79.075 29.9524 81.3615C29.6984 83.4698 28.4977 85.3475 26.6906 86.4627L8.26836 97.8313L7.86173 98.0822L8.26836 98.3331L29.2794 111.299L29.4343 111.395L29.5891 111.299L46.1873 101.056C49.2999 99.1356 51.3679 95.9015 51.8054 92.2702C51.8975 91.5066 52.3323 90.8265 52.9869 90.4226L63.4921 83.9397Z" fill="white" stroke="black" stroke-width="0.589743"/>
<path id="Union_4" d="M37.0726 84.8377C36.8783 86.4497 35.9915 87.8726 34.6746 88.6853L21.7585 96.656C21.2994 96.9393 20.7359 96.9489 20.2686 96.6815C19.2091 96.0751 19.1849 94.4607 20.2257 93.8184L23.0427 92.08M41.5217 79.7243L43.5729 78.4585C44.6137 77.8162 44.5895 76.2017 43.53 75.5954C43.0627 75.3279 42.4992 75.3376 42.0402 75.6209L36.2896 79.1696C34.9726 79.9823 34.0858 81.4052 33.8916 83.0172C33.6973 84.6293 32.8105 86.0522 31.4936 86.8648L28.6766 88.6032" stroke="black" stroke-width="0.589743"/>
<path id="Union_5" d="M32.8846 92.5052L36.7027 90.149C38.0196 89.3363 38.9064 87.9135 39.1007 86.3014C39.295 84.6894 40.1817 83.2665 41.4987 82.4538L47.2493 78.905C47.7083 78.6217 48.2718 78.6121 48.7391 78.8795C49.7986 79.4859 49.8228 81.1003 48.782 81.7426L44.6796 84.2742C43.3627 85.0869 42.4759 86.5098 42.2817 88.1219C42.0874 89.7339 41.2006 91.1568 39.8837 91.9695L26.9676 99.9401C26.5085 100.223 25.945 100.233 25.4777 99.9656C24.4182 99.3593 24.394 97.7448 25.4348 97.1025L29.0707 94.8588" stroke="black" stroke-width="0.589743"/>
<path id="Union_6" d="M46.5977 85.6647L52.3483 82.116C52.8073 81.8327 53.3708 81.823 53.8381 82.0905C54.8976 82.6968 54.9218 84.3113 53.881 84.9536L49.7786 87.4852C48.4617 88.2979 47.5749 89.7207 47.3807 91.3328C47.1864 92.9448 46.2996 94.3677 44.9827 95.1804M44.1997 89.5123C44.0054 91.1244 43.1186 92.5473 41.8017 93.36L30.5338 100.313C29.493 100.956 29.5172 102.57 30.5767 103.177C31.044 103.444 31.6075 103.434 32.0666 103.151L38.5246 99.1657L41.7537 97.1731" stroke="black" stroke-width="0.589743"/>
</g>
</g>
</g>
<g id="Group 2035875617">
<path id="Union_7" d="M62.1063 43.6786V43.6787C62.1069 47.9597 64.7545 52.1557 69.8664 55.3103C76.4112 59.3491 85.5166 60.7823 93.8678 59.6553C94.0719 59.6277 94.2756 59.5986 94.4788 59.568C98.9459 58.8952 103.198 57.4803 106.714 55.3104C111.827 52.155 114.475 47.9578 114.474 43.6757C114.474 43.6757 114.474 43.6756 114.474 43.6756V35.0389V35.0388C114.474 34.7622 114.25 34.5379 113.973 34.5379C113.697 34.5379 113.472 34.7621 113.472 35.0387C113.472 35.0387 113.472 35.0388 113.472 35.0388C113.472 36.0792 113.298 37.1223 112.948 38.1508C111.662 35.899 109.575 33.8098 106.713 32.0439C101.602 28.8897 94.9325 27.3272 88.2897 27.3272C81.647 27.3272 74.9777 28.8897 69.8664 32.0439C67.0053 33.8096 64.9177 35.8985 63.6323 38.1499C63.2822 37.1217 63.1082 36.0789 63.1081 35.0387C63.1081 35.0387 63.1081 35.0387 63.1081 35.0387C63.108 34.762 62.8838 34.5378 62.6071 34.5378C62.3305 34.5379 62.1063 34.7621 62.1063 35.0387V35.0388V43.6786Z" fill="black" stroke="black" stroke-width="1.00177" stroke-linejoin="round"/>
<path id="Intersect" d="M88.2899 27.8281V59.5261C81.7171 59.5261 75.1444 57.9787 70.1295 54.884C65.1153 51.7897 62.6079 47.7342 62.6073 43.6786V35.0387C62.6075 36.493 62.9301 37.9472 63.5749 39.3572C64.7285 36.8351 66.9133 34.4549 70.1296 32.4702C75.1444 29.3755 81.7171 27.8281 88.2899 27.8281Z" fill="white"/>
<path id="Ellipse 7053" d="M88.2904 51.1387C95.4586 51.1387 101.972 49.3804 106.711 46.5113C111.44 43.6477 114.475 39.6233 114.475 35.086C114.475 30.5487 111.44 26.5243 106.711 23.6607C101.972 20.7916 95.4586 19.0333 88.2904 19.0333C81.1222 19.0333 74.6085 20.7916 69.8702 23.6607C65.1412 26.5243 62.1063 30.5487 62.1063 35.086C62.1063 39.6233 65.1412 43.6477 69.8702 46.5113C74.6085 49.3804 81.1222 51.1387 88.2904 51.1387Z" fill="#FF292C" stroke="black" stroke-width="1.00177"/>
<circle id="Ellipse 7052" cx="16.3052" cy="16.3052" r="16.8061" transform="matrix(0.851002 0.525162 -0.851002 0.525162 88.2898 17.9111)" fill="#FF292C" stroke="black" stroke-width="1.00177"/>
<path id="Union_8" d="M84.208 34.761L84.2305 34.7554C84.4428 34.8272 84.6736 34.8415 84.8921 34.7872L90.0562 33.505C90.3357 33.4356 90.6149 33.2434 90.737 32.9087L90.7371 32.9085L93.2456 26.0235C93.2456 26.0235 93.2456 26.0234 93.2457 26.0234C93.3448 25.7514 93.3069 25.4728 93.193 25.2477C93.1246 25.1126 93.0303 24.9988 92.9233 24.9061L92.9203 24.9035L92.9203 24.9035C92.6167 24.6448 92.193 24.5598 91.8221 24.6519L88.7649 25.411C88.4853 25.4804 88.2061 25.6726 88.084 26.0073L88.084 26.0074L86.7009 29.8015C86.7007 29.8016 86.7006 29.8017 86.7005 29.8018C86.6924 29.8085 86.6709 29.8226 86.6308 29.8325L86.7325 30.3004L86.6308 29.8325L84.7676 30.2952C84.6832 30.3161 84.5696 30.3049 84.4685 30.2524L84.208 34.761ZM84.208 34.761L84.0537 34.6806L75.9133 30.4401L76.1247 29.9748L75.9127 30.4398L75.913 30.4399C75.5771 30.2655 75.2577 29.879 75.3089 29.3886C75.3583 28.915 75.7266 28.6484 76.0619 28.5651L79.1323 27.8028C79.4128 27.7331 79.7137 27.7764 79.9695 27.9096L79.9695 27.9096L84.4682 30.2523L84.208 34.761ZM100.834 40.5712L100.834 40.5691L100.834 40.5691C100.831 40.4058 100.789 40.2522 100.72 40.1161L100.834 40.5712ZM100.834 40.5712C100.844 41.1057 100.446 41.4282 100.071 41.5213L99.7111 41.6106M100.834 40.5712L99.7111 41.6106M99.7111 41.6106L99.7102 41.6087M99.7111 41.6106L99.7102 41.6087M99.7102 41.6087L97.0125 42.2786L96.903 41.7747L97.0125 42.2786C96.726 42.3497 96.4206 42.2994 96.1635 42.1594L96.1634 42.1594L91.5921 39.6713L91.5912 39.6709C91.4855 39.6131 91.3733 39.6024 91.2951 39.6218L89.4318 40.0844C89.396 40.0933 89.3782 40.1056 89.3723 40.1106L88.0626 44.0508L88.0626 44.0509C87.948 44.3954 87.6691 44.5985 87.3808 44.6701L84.3104 45.4325C83.9597 45.5196 83.5707 45.4384 83.277 45.2123L99.7102 41.6087ZM82.8748 44.0349L82.8747 44.0351C82.7146 44.5175 82.9628 44.9706 83.2764 45.2119L82.8748 44.0349ZM82.8748 44.0349L85.2502 36.8865L85.2502 36.8864M82.8748 44.0349L85.2502 36.8864M85.2502 36.8864C85.3648 36.5419 85.6437 36.3388 85.932 36.2672L91.0962 34.9849L91.2057 35.4888M85.2502 36.8864L91.2057 35.4888M91.2057 35.4888L91.0962 34.9849C91.3827 34.9138 91.6881 34.9641 91.9452 35.1041L91.9453 35.1041M91.2057 35.4888L91.9453 35.1041M91.9453 35.1041L100.22 39.6091L100.22 39.6091M91.9453 35.1041L100.22 39.6091M100.22 39.6091L100.222 39.6101M100.22 39.6091L100.222 39.6101M100.222 39.6101C100.426 39.7226 100.607 39.8939 100.72 40.116L100.222 39.6101Z" fill="white" stroke="black" stroke-width="1.00177"/>
</g>
</g>
</g>
</svg>
