<svg width="175" height="131" viewBox="0 0 175 131" fill="none" xmlns="http://www.w3.org/2000/svg">
<g id="person">
<g id="extrude-group">
<path id="Polygon 246" d="M122.153 66.9962C127.628 67.7002 131.905 69.7526 133.372 72.3802L144.614 92.5131C146.081 95.1407 144.515 97.9443 140.507 99.8679L109.795 114.606C105.787 116.53 99.9445 117.281 94.469 116.577L52.5157 111.182C47.0402 110.478 42.7634 108.426 41.2962 105.798L30.0549 85.6653C28.5877 83.0377 30.1531 80.2341 34.1615 78.3106L64.8734 63.5723C68.8817 61.6488 74.724 60.8975 80.1995 61.6016L122.153 66.9962Z" fill="#FF0420"/>
<g id="Mask group">
<mask id="mask0_954_486" style="mask-type:alpha" maskUnits="userSpaceOnUse" x="29" y="61" width="117" height="56">
<path id="Polygon 248" d="M122.153 66.9962C127.628 67.7002 131.905 69.7526 133.372 72.3802L144.614 92.5131C146.081 95.1407 144.515 97.9443 140.507 99.8679L109.795 114.606C105.787 116.53 99.9445 117.281 94.469 116.577L52.5157 111.182C47.0402 110.478 42.7634 108.426 41.2962 105.798L30.0549 85.6653C28.5877 83.0377 30.1531 80.2341 34.1615 78.3106L64.8734 63.5723C68.8817 61.6488 74.724 60.8975 80.1995 61.6016L122.153 66.9962Z" fill="#FF2A2A"/>
</mask>
<g mask="url(#mask0_954_486)">
<g id="Polygon 247" style="mix-blend-mode:multiply" opacity="0.6">
<path d="M116.405 57.6926C125.437 58.8541 132.492 62.2396 134.912 66.574L143.073 81.1904C145.494 85.5248 142.911 90.1496 136.299 93.3226L114.003 104.022C107.391 107.196 97.7534 108.435 88.7213 107.273L58.2634 103.357C49.2312 102.195 42.1763 98.8099 39.7561 94.4755L31.595 79.8592C29.1748 75.5247 31.7571 70.8999 38.3691 67.7269L60.6658 57.027C67.2778 53.854 76.915 52.6148 85.9472 53.7762L116.405 57.6926Z" fill="url(#paint0_linear_954_486)"/>
</g>
</g>
</g>
<g id="side-faces">
<g id="side-face">
<path fill-rule="evenodd" clip-rule="evenodd" d="M145.204 70.5384C145.237 72.499 143.646 74.4161 140.682 75.8386L109.62 90.7445C105.72 92.6161 100.036 93.3471 94.7079 92.662L52.2769 87.2061C46.9493 86.521 42.7878 84.5239 41.3601 81.9673L29.991 61.6052C29.6484 60.9916 29.4757 60.3682 29.4651 59.749V68.1311C29.4757 68.7503 29.6484 69.3737 29.991 69.9873L41.3601 90.3494C42.7878 92.906 46.9493 94.9031 52.2769 95.5882L94.7079 101.044C100.036 101.729 105.72 100.998 109.62 99.1266L140.682 84.2207C143.646 82.7982 145.237 80.8811 145.204 78.9205V70.5384Z" fill="#111628"/>
<path d="M140.682 75.8386C143.646 74.4161 145.237 72.499 145.204 70.5384V78.9205C145.237 80.8811 143.646 82.7982 140.682 84.2207M140.682 75.8386L109.62 90.7445M140.682 75.8386V84.2207M109.62 90.7445C105.72 92.6162 100.036 93.3471 94.7079 92.662M109.62 90.7445V99.1266M94.7079 92.662L52.2769 87.2061M94.7079 92.662V101.044M52.2769 87.2061C46.9493 86.521 42.7878 84.5239 41.3601 81.9673M52.2769 87.2061V95.5882M41.3601 81.9673L29.991 61.6052M41.3601 81.9673V90.3494M29.991 61.6052C29.6484 60.9916 29.4757 60.3682 29.4651 59.749V68.1311C29.4757 68.7503 29.6484 69.3737 29.991 69.9873M29.991 61.6052V69.9873M29.991 69.9873L41.3601 90.3494M41.3601 90.3494C42.7878 92.906 46.9493 94.9031 52.2769 95.5882M52.2769 95.5882L94.7079 101.044M94.7079 101.044C100.036 101.729 105.72 100.998 109.62 99.1266M109.62 99.1266L140.682 84.2207" stroke="#121923" stroke-width="0.646769" stroke-linejoin="round"/>
</g>
<path id="side-face_2" fill-rule="evenodd" clip-rule="evenodd" d="M29.4651 58.2932C29.4315 56.3327 31.0227 54.4156 33.9868 52.9931L65.0482 38.0872C68.9484 36.2155 74.6331 35.4845 79.9608 36.1696L122.392 41.6256C127.719 42.3106 131.881 44.3077 133.308 46.8644L144.678 67.2264C145.02 67.84 145.193 68.4635 145.204 69.0826V77.4647C145.193 76.8456 145.02 76.2221 144.678 75.6085L133.308 55.2465C131.881 52.6898 127.719 50.6927 122.392 50.0077L79.9608 44.5517C74.6331 43.8666 68.9484 44.5976 65.0482 46.4693L33.9868 61.3752C31.0227 62.7977 29.4315 64.7148 29.4651 66.6753V58.2932Z" fill="url(#paint1_linear_954_486)" stroke="#121923" stroke-width="0.646769" stroke-linejoin="round"/>
<g id="side-face_3">
<path fill-rule="evenodd" clip-rule="evenodd" d="M145.204 69.0824C145.237 71.043 143.646 72.96 140.682 74.3825L109.62 89.2884C105.72 91.1601 100.036 91.8911 94.7079 91.206L63.2799 87.1648L61.4505 86.9296L59.621 86.6944L57.7552 86.4545L55.8895 86.2146L54.0832 85.9823L52.2769 85.75C46.9493 85.0649 42.7878 83.0679 41.3601 80.5112L29.991 60.1492C29.6484 59.5356 29.4757 58.9121 29.4651 58.293V66.6751C29.4757 67.2942 29.6484 67.9177 29.991 68.5313L41.3601 88.8933C42.7878 91.45 46.9493 93.447 52.2769 94.1321L54.0832 94.3644L55.8895 94.5967L57.7552 94.8366L59.621 95.0765L61.4505 95.3117L63.2799 95.5469L94.7079 99.5881C100.036 100.273 105.72 99.5422 109.62 97.6705L140.682 82.7646C143.646 81.3421 145.237 79.4251 145.204 77.4645V69.0824Z" fill="#DADADA"/>
<path d="M140.682 74.3825C143.646 72.96 145.237 71.043 145.204 69.0824V77.4645C145.237 79.4251 143.646 81.3421 140.682 82.7646M140.682 74.3825L109.62 89.2884M140.682 74.3825V82.7646M109.62 89.2884C105.72 91.1601 100.036 91.8911 94.7079 91.206M109.62 89.2884V97.6705M94.7079 91.206V99.5881M94.7079 91.206L63.2799 87.1648M52.2769 85.75C46.9493 85.0649 42.7878 83.0679 41.3601 80.5112M52.2769 85.75V94.1321M52.2769 85.75L54.0832 85.9823M41.3601 80.5112L29.991 60.1492M41.3601 80.5112V88.8933M29.991 60.1492C29.6484 59.5356 29.4757 58.9121 29.4651 58.293V66.6751C29.4757 67.2942 29.6484 67.9177 29.991 68.5313M29.991 60.1492V68.5313M29.991 68.5313L41.3601 88.8933M41.3601 88.8933C42.7878 91.45 46.9493 93.447 52.2769 94.1321M52.2769 94.1321L54.0832 94.3644M94.7079 99.5881C100.036 100.273 105.72 99.5422 109.62 97.6705M94.7079 99.5881L63.2799 95.5469M109.62 97.6705L140.682 82.7646M55.8895 94.5967V86.2146M55.8895 94.5967L54.0832 94.3644M55.8895 94.5967L57.7552 94.8366M55.8895 86.2146L54.0832 85.9823M55.8895 86.2146L57.7552 86.4545M59.621 86.6944V95.0765M59.621 86.6944L57.7552 86.4545M59.621 86.6944L61.4505 86.9296M59.621 95.0765L57.7552 94.8366M59.621 95.0765L61.4505 95.3117M63.2799 87.1648V95.5469M63.2799 87.1648L61.4505 86.9296M63.2799 95.5469L61.4505 95.3117M54.0832 85.9823V94.3644M57.7552 86.4545V94.8366M61.4505 86.9296V95.3117" stroke="#111628" stroke-width="0.646769" stroke-linejoin="round"/>
</g>
<path id="Vector 1938" d="M94.7107 99.5649V91.209L91.9575 90.8477V99.2337L94.7107 99.5649Z" fill="white" stroke="#121923" stroke-width="0.646769" stroke-linejoin="round"/>
<path id="Vector 1937" d="M109.625 97.6135V89.3187L140.7 74.373V82.7623L109.625 97.6135Z" fill="white" stroke="#121923" stroke-width="0.646769" stroke-linejoin="round"/>
</g>
<path id="Polygon 245" d="M120.738 41.4129C127.089 42.2295 132.05 44.61 133.751 47.6577L144.235 66.4329C145.936 69.4806 144.121 72.7324 139.472 74.9634L110.831 88.7079C106.181 90.9389 99.4053 91.8102 93.0545 90.9936L53.9301 85.9628C47.5794 85.1462 42.6189 82.7657 40.9172 79.718L30.4339 60.9428C28.7322 57.8951 30.5479 54.6433 35.1969 52.4123L63.838 38.6678C68.487 36.4368 75.2632 35.5655 81.6139 36.3821L120.738 41.4129Z" fill="white" stroke="#121923" stroke-width="0.646769" stroke-linejoin="round"/>
</g>
<g id="Group 2035875613">
<path id="Union" d="M125.578 28.7318C125.578 29.4329 125.02 30.134 123.906 30.6689L92.6656 45.6606C90.4361 46.7305 86.8212 46.7309 84.5916 45.661L52.6812 30.3474L52.4515 30.2368C51.3368 29.7019 50.7794 29.0009 50.7793 28.2998L50.7793 57.359C50.7794 58.06 51.3368 58.761 52.4513 59.2959L84.5915 74.7199C86.821 75.7898 90.4358 75.7901 92.6654 74.7201L123.906 59.728C125.02 59.1931 125.578 58.4921 125.578 57.791L125.578 28.7318Z" fill="#CCC2D6"/>
<path id="Rectangle 34627132" d="M126.107 57.7898C126.107 56.8562 125.367 56.0289 124.162 55.4505L92.0215 40.0268C90.8097 39.4453 89.2555 39.1673 87.73 39.1673C86.2045 39.1673 84.6503 39.4453 83.4385 40.0268L52.1983 55.0185C50.9932 55.5969 50.2534 56.4242 50.2536 57.3578C50.2538 58.2911 50.9935 59.1181 52.1983 59.6963L84.3386 75.12C85.5504 75.7016 87.1047 75.9795 88.6302 75.9795C90.1556 75.9795 91.7099 75.7016 92.9217 75.12L124.162 60.1283C125.367 59.5501 126.106 58.7231 126.107 57.7898Z" fill="white" stroke="black" stroke-width="0.991273"/>
<path id="Union_2" d="M126.106 28.7318C126.106 28.4786 125.87 28.2732 125.579 28.2732C125.288 28.2732 125.052 28.4785 125.051 28.7318C125.051 29.2006 124.676 29.7757 123.652 30.2673L92.4117 45.2589C91.394 45.7473 90.026 46.0045 88.6293 46.0046C87.2326 46.0047 85.8647 45.7478 84.8469 45.2594L52.937 29.946L52.9365 29.9458L52.7073 29.8355L52.7068 29.8352C51.6824 29.3436 51.3073 28.7686 51.3072 28.2998C51.3072 28.2998 51.3072 28.2997 51.3072 28.2997C51.3071 28.0464 51.0711 27.8411 50.78 27.8412C50.4889 27.8412 50.2529 28.0465 50.2529 28.2998L50.2529 28.2999L50.2529 57.359L50.2529 57.3591C50.2531 58.2924 50.9927 59.1193 52.1975 59.6975L52.452 59.2959L52.1975 59.6975L84.3376 75.1215C85.5494 75.703 87.1037 75.981 88.6291 75.9811C90.1546 75.9812 91.7089 75.7033 92.9207 75.1218L124.161 60.1296C125.366 59.5514 126.106 58.7244 126.106 57.7911L126.106 28.7318Z" stroke="black" stroke-width="0.991273" stroke-linejoin="round"/>
<rect id="Rectangle 34627132_2" x="0.92472" y="-0.0148884" width="41.7667" height="45.5963" rx="5.83313" transform="matrix(-0.964159 0.462687 -0.901563 -0.432648 129.747 28.2813)" fill="white" stroke="black" stroke-width="0.991273"/>
<rect id="Rectangle 34627134" x="0.92472" y="-0.0148884" width="26.153" height="29.5958" transform="matrix(-0.964159 0.462687 -0.901563 -0.432648 115.171 28.2022)" fill="black" stroke="black" stroke-width="0.991273" stroke-linejoin="round"/>
<path id="Intersect" d="M88.4649 40.2959C88.4729 40.4449 88.5645 40.5753 88.7104 40.6453L88.8253 40.7004C88.9785 40.7739 89.1707 40.7708 89.3345 40.6922L113.594 29.0502C113.769 28.9666 113.884 28.8106 113.896 28.6429C113.907 28.4752 113.814 28.3225 113.651 28.2443L87.9954 15.9327C87.8288 15.8527 87.6174 15.8638 87.447 15.9615C87.2765 16.0592 87.1753 16.2272 87.1844 16.3974L88.4649 40.2959Z" fill="white" stroke="black" stroke-width="0.991273" stroke-linejoin="round"/>
<rect id="Rectangle 34627135" x="0.92472" y="-0.0148884" width="20.9346" height="23.0317" transform="matrix(-0.964159 0.462687 -0.901563 -0.432648 110.082 30.5889)" fill="white" stroke="black" stroke-width="0.991273" stroke-linejoin="round"/>
<path id="Union_3" d="M85.8996 30.1762L86.5176 30.3059L86.5496 29.7535C86.571 29.3852 86.8834 28.92 87.7302 28.5136C88.6028 28.0949 89.7805 27.8727 90.987 27.8727C92.1934 27.8727 93.3711 28.0949 94.2437 28.5136C95.1231 28.9356 95.4256 29.4195 95.4256 29.7971C95.4256 30.1746 95.1231 30.6585 94.2437 31.0805C93.3337 31.5172 92.0929 31.7397 90.8356 31.7202L89.8307 31.7047L90.3873 32.4328C90.8817 33.0795 90.9673 33.7485 90.687 34.3857C90.4122 35.0106 89.7611 35.6567 88.6543 36.2166L77.1529 30.6973C79.6558 29.7609 83.0402 29.5761 85.8996 30.1762Z" fill="#FF292C" stroke="black" stroke-width="0.991273"/>
<path id="Vector 4047" d="M88.902 46.625L88.9011 75.6887" stroke="black" stroke-width="0.991273"/>
</g>
</g>
<defs>
<linearGradient id="paint0_linear_954_486" x1="170.365" y1="68.5262" x2="49.8782" y2="140.852" gradientUnits="userSpaceOnUse">
<stop stop-color="#8860AF"/>
<stop offset="1" stop-color="#5E7DAB"/>
</linearGradient>
<linearGradient id="paint1_linear_954_486" x1="116.596" y1="31.6218" x2="106.553" y2="83.0703" gradientUnits="userSpaceOnUse">
<stop stop-color="#B0C2FF" stop-opacity="0.8"/>
<stop offset="1" stop-color="#FFDCFE"/>
</linearGradient>
</defs>
</svg>
