<svg width="24" height="24" viewBox="0 0 24 24" fill="none" xmlns="http://www.w3.org/2000/svg">
<g id="jump to">
<path id="Vector" d="M12 21C7.038 21 3 16.962 3 12C3 7.038 7.038 3 12 3C12.1747 3.01154 12.3386 3.0891 12.4583 3.21695C12.5779 3.3448 12.6445 3.51337 12.6445 3.6885C12.6445 3.86363 12.5779 4.0322 12.4583 4.16005C12.3386 4.2879 12.1747 4.36546 12 4.377C9.97873 4.37898 8.04078 5.18271 6.61139 6.61183C5.18199 8.04094 4.37788 9.97873 4.3755 12C4.37788 14.0213 5.18199 15.9591 6.61139 17.3882C8.04078 18.8173 9.97873 19.621 12 19.623C14.0213 19.621 15.9592 18.8173 17.3886 17.3882C18.818 15.9591 19.6221 14.0213 19.6245 12C19.6328 11.8232 19.7088 11.6563 19.8369 11.5341C19.965 11.4118 20.1352 11.3436 20.3123 11.3436C20.4893 11.3436 20.6595 11.4118 20.7876 11.5341C20.9157 11.6563 20.9917 11.8232 21 12C21 16.962 16.962 21 12 21ZM17.76 11.625C16.767 12.615 15.954 11.775 16.6245 11.046L18.8595 7.56C15.357 7.4955 13.287 8.802 12.4035 9.9825C11.76 10.845 11.3745 12.858 11.244 13.3905C11.1345 13.839 10.773 14.136 10.326 14.0685C9.852 13.953 9.591 13.2255 9.708 12.753C9.7305 12.66 10.203 10.5 11.193 9.1755C12.063 8.01 13.7805 6.5205 17.7435 6.318L15.129 4.6995C14.724 4.4295 14.4765 3.9795 14.91 3.4425C15.183 3.0405 15.7035 3.351 16.107 3.6225L20.4615 6.372C20.8665 6.645 20.9715 7.1925 20.7015 7.5975L17.76 11.625ZM18.99 7.614L18.849 7.6425C18.8955 7.635 18.942 7.626 18.9885 7.614H18.99Z" fill="black"/>
</g>
</svg>
