<svg width="140" height="148" viewBox="0 0 140 148" fill="none" xmlns="http://www.w3.org/2000/svg">
<g id="no data">
<g id="Group 1410084089">
<path id="Rectangle 346244928" d="M71.1875 59.7754L126.188 91.5213L71.1875 123.267L16.1875 91.5212L71.1875 59.7754Z" fill="white" stroke="#111628" stroke-width="0.637223" stroke-linejoin="round"/>
<path id="Rectangle 346244933" d="M71.1875 62.8116L120.817 91.4578L71.1875 120.104L21.5576 91.4578L71.1875 62.8116Z" fill="white" stroke="#111628" stroke-width="0.637223" stroke-linejoin="round"/>
<path id="Rectangle 346244926" d="M71.1875 39.1075L126.188 70.8533L71.1875 102.599L16.1875 70.8533L71.1875 39.1075Z" fill="white" stroke="#111628" stroke-width="0.637223" stroke-linejoin="round"/>
<path id="Rectangle 346244927" d="M71.1875 42.2091L120.817 70.8553L71.1875 99.5015L21.5576 70.8553L71.1875 42.2091Z" fill="white" stroke="#111628" stroke-width="0.637223" stroke-linejoin="round"/>
<circle id="Ellipse 1396" opacity="0.2" cx="16.1355" cy="16.1355" r="16.1355" transform="matrix(0.866024 0.500002 -0.866024 0.500002 71.4316 61.2979)" fill="white"/>
<path id="Vector 1736" d="M98.6895 93.7695V114.315" stroke="#111628" stroke-width="0.637223" stroke-linejoin="round"/>
<path id="Rectangle 346244935" d="M71.1875 113.019L126.187 81.2744V101.923L71.1875 133.667L71.1875 113.019Z" stroke="#111628" stroke-width="0.637223" stroke-linejoin="round"/>
<path id="Rectangle 346244937" d="M71.1875 130.01L126.187 98.2656V101.922L71.1875 133.666L71.1875 130.01Z" fill="#111628" stroke="#111628" stroke-width="0.637223" stroke-linejoin="round"/>
<path id="Rectangle 346244939" d="M16.2523 98.1885L43.7285 114.039V117.808L16.2523 101.906V98.1885Z" fill="white" stroke="#111628" stroke-width="0.637223" stroke-linejoin="round"/>
<path id="Vector 1735" d="M98.6895 86.9756V107.521" stroke="white" stroke-width="0.637223" stroke-linejoin="round"/>
<path id="Rectangle 346244931" d="M71.1875 102.675L126.187 70.9307V91.5793L71.1875 123.324L71.1875 102.675Z" fill="white" stroke="#111628" stroke-width="0.637223" stroke-linejoin="round"/>
<path id="Rectangle 346244936" d="M71.2363 113.019L16.2363 81.2744V101.923L71.2363 133.667L71.2363 113.019Z" stroke="#111628" stroke-width="0.637223" stroke-linejoin="round"/>
<path id="Rectangle 346244938" d="M16.2383 101.923V81.2744L43.7383 97.1466V117.795L16.2383 101.923Z" stroke="#111628" stroke-width="0.637223" stroke-linejoin="round"/>
<path id="Rectangle 346244934" d="M71.2363 102.675L16.2363 70.9307V91.5793L71.2363 123.324L71.2363 102.675Z" fill="white" stroke="#111628" stroke-width="0.637223" stroke-linejoin="round"/>
<path id="Union" d="M52.291 119.334V121.033L50.8105 120.184V118.484L52.291 119.334ZM50.3818 118.271V119.971L48.9004 119.122V117.422L50.3818 118.271ZM48.4707 117.173V118.872L46.9893 118.022V116.323L48.4707 117.173ZM46.5576 116.11V117.81L45.0771 116.96L45.0762 115.261L46.5576 116.11Z" fill="black"/>
<path id="Vector 1732" d="M73.2422 122.096V128.82M75.1511 121.046V127.771M77.146 120.032V126.756M79.0894 118.896V125.621" stroke="#111628" stroke-width="0.637223"/>
</g>
<g id="Group 2035875659">
<g id="Group 2035875477">
<path id="Union_2" d="M62.374 60.4092C65.0903 60.4092 67.538 60.8492 69.2969 61.5508C70.1769 61.9019 70.872 62.3139 71.3428 62.7578C71.813 63.2013 72.043 63.6593 72.043 64.1123V67.1377C72.0429 67.5907 71.813 68.0487 71.3428 68.4922C70.872 68.9361 70.1768 69.3482 69.2969 69.6992C67.538 70.4008 65.0902 70.8398 62.374 70.8398C59.9263 70.8398 57.6955 70.4834 55.9902 69.8984C55.1374 69.6059 54.4228 69.2584 53.8799 68.876C53.4033 68.5402 53.0709 68.1856 52.8848 67.8281L52.8135 67.6748C52.742 67.4972 52.7061 67.318 52.7061 67.1377V64.1123C52.7061 63.6594 52.9352 63.2013 53.4053 62.7578C53.876 62.3138 54.5711 61.9019 55.4512 61.5508C57.21 60.8491 59.6577 60.4092 62.374 60.4092Z" fill="black" stroke="black" stroke-width="0.514194" stroke-linejoin="round"/>
<path id="Intersect" d="M65.0543 70.6954V66.8877H62.7852V70.8383C63.5684 70.8255 64.3282 70.7765 65.0543 70.6954Z" fill="#B4B4B4"/>
<path id="Ellipse 6997" d="M62.374 60.4092C65.0903 60.4092 67.538 60.8492 69.2969 61.5508C70.1769 61.9019 70.872 62.3139 71.3428 62.7578C71.813 63.2013 72.043 63.6593 72.043 64.1123C72.0429 64.5652 71.8129 65.0234 71.3428 65.4668C70.872 65.9106 70.1767 66.3218 69.2969 66.6729C67.538 67.3745 65.0904 67.8145 62.374 67.8145C59.6577 67.8144 57.21 67.3745 55.4512 66.6729C54.5712 66.3218 53.8759 65.9107 53.4053 65.4668C52.9351 65.0234 52.7061 64.5652 52.7061 64.1123C52.7061 63.6594 52.9352 63.2013 53.4053 62.7578C53.876 62.3138 54.5711 61.9019 55.4512 61.5508C57.21 60.8491 59.6577 60.4092 62.374 60.4092Z" fill="#D9D9D9" stroke="black" stroke-width="0.514194"/>
<path id="Subtract" d="M70.855 66.4326C69.6863 67.1112 68.0193 67.6425 66.0645 67.9424L66.0645 70.55C68.0658 70.23 69.7451 69.6576 70.8549 68.9314L70.855 66.4326Z" fill="black"/>
</g>
<g id="Group 2035875478">
<path id="Union_3" d="M62.374 57.3857C65.0903 57.3857 67.538 57.8257 69.2969 58.5273C70.1769 58.8784 70.872 59.2904 71.3428 59.7344C71.813 60.1779 72.043 60.6359 72.043 61.0889V64.1143C72.0429 64.5672 71.813 65.0252 71.3428 65.4688C70.872 65.9126 70.1768 66.3247 69.2969 66.6758C67.538 67.3774 65.0902 67.8164 62.374 67.8164C59.9263 67.8164 57.6955 67.46 55.9902 66.875C55.1374 66.5824 54.4228 66.235 53.8799 65.8525C53.4033 65.5167 53.0709 65.1621 52.8848 64.8047L52.8135 64.6514C52.742 64.4737 52.7061 64.2945 52.7061 64.1143V61.0889C52.7061 60.6359 52.9352 60.1778 53.4053 59.7344C53.876 59.2904 54.5711 58.8785 55.4512 58.5273C57.21 57.8257 59.6577 57.3858 62.374 57.3857Z" fill="black" stroke="black" stroke-width="0.514194" stroke-linejoin="round"/>
<path id="Intersect_2" d="M65.0543 67.672V63.8643H62.7852V67.8148C63.5684 67.8021 64.3282 67.7531 65.0543 67.672Z" fill="#FF2A2A"/>
<path id="Ellipse 6997_2" d="M62.374 57.3857C65.0903 57.3857 67.538 57.8257 69.2969 58.5273C70.1769 58.8784 70.872 59.2904 71.3428 59.7344C71.813 60.1779 72.043 60.6359 72.043 61.0889C72.0429 61.5418 71.8129 61.9999 71.3428 62.4434C70.872 62.8872 70.1767 63.2984 69.2969 63.6494C67.538 64.3511 65.0904 64.791 62.374 64.791C59.6577 64.791 57.21 64.3511 55.4512 63.6494C54.5712 63.2983 53.8759 62.8873 53.4053 62.4434C52.9351 61.9999 52.7061 61.5418 52.7061 61.0889C52.7061 60.6359 52.9352 60.1778 53.4053 59.7344C53.876 59.2904 54.5711 58.8785 55.4512 58.5273C57.21 57.8257 59.6577 57.3858 62.374 57.3857Z" fill="#D9D9D9" stroke="black" stroke-width="0.514194"/>
<path id="Subtract_2" d="M70.855 63.4092C69.6863 64.0877 68.0193 64.619 66.0645 64.919L66.0645 67.5265C68.0658 67.2066 69.7451 66.6341 70.8549 65.9079L70.855 63.4092Z" fill="#FF2A2A"/>
</g>
<g id="Group 2035875479">
<path id="Union_4" d="M62.374 54.3594C65.0903 54.3594 67.538 54.7994 69.2969 55.501C70.1769 55.8521 70.872 56.2641 71.3428 56.708C71.813 57.1515 72.043 57.6095 72.043 58.0625V61.0879C72.0429 61.5409 71.813 61.9989 71.3428 62.4424C70.872 62.8863 70.1768 63.2984 69.2969 63.6494C67.538 64.351 65.0902 64.79 62.374 64.79C59.9263 64.79 57.6955 64.4336 55.9902 63.8486C55.1374 63.5561 54.4228 63.2086 53.8799 62.8262C53.4033 62.4904 53.0709 62.1358 52.8848 61.7783L52.8135 61.625C52.742 61.4474 52.7061 61.2682 52.7061 61.0879V58.0625C52.7061 57.6096 52.9352 57.1515 53.4053 56.708C53.876 56.264 54.5711 55.8521 55.4512 55.501C57.21 54.7993 59.6577 54.3594 62.374 54.3594Z" fill="black" stroke="black" stroke-width="0.514194" stroke-linejoin="round"/>
<path id="Intersect_3" d="M65.0543 64.6456V60.8379H62.7852V64.7885C63.5684 64.7757 64.3282 64.7267 65.0543 64.6456Z" fill="#FF2A2A"/>
<path id="Ellipse 6997_3" d="M62.374 54.3594C65.0903 54.3594 67.538 54.7994 69.2969 55.501C70.1769 55.8521 70.872 56.2641 71.3428 56.708C71.813 57.1515 72.043 57.6095 72.043 58.0625C72.0429 58.5154 71.8129 58.9735 71.3428 59.417C70.872 59.8608 70.1767 60.272 69.2969 60.623C67.538 61.3247 65.0904 61.7646 62.374 61.7646C59.6577 61.7646 57.21 61.3247 55.4512 60.623C54.5712 60.272 53.8759 59.8609 53.4053 59.417C52.9351 58.9735 52.7061 58.5154 52.7061 58.0625C52.7061 57.6096 52.9352 57.1515 53.4053 56.708C53.876 56.264 54.5711 55.8521 55.4512 55.501C57.21 54.7993 59.6577 54.3594 62.374 54.3594Z" fill="white" stroke="black" stroke-width="0.514194"/>
<path id="Subtract_3" d="M70.855 60.3828C69.6863 61.0614 68.0193 61.5927 66.0645 61.8926L66.0645 64.5002C68.0658 64.1802 69.7451 63.6078 70.8549 62.8816L70.855 60.3828Z" fill="#FF2A2A"/>
</g>
<g id="Group 2035875474">
<path id="Union_5" d="M78.2041 63.124C80.9204 63.124 83.3681 63.564 85.127 64.2656C86.007 64.6167 86.7021 65.0287 87.1729 65.4727C87.6431 65.9162 87.873 66.3742 87.873 66.8271V69.8525C87.873 70.3055 87.643 70.7635 87.1729 71.207C86.7021 71.6509 86.0069 72.063 85.127 72.4141C83.3681 73.1157 80.9203 73.5547 78.2041 73.5547C75.7564 73.5546 73.5256 73.1982 71.8203 72.6133C70.9675 72.3207 70.2528 71.9733 69.71 71.5908C69.2333 71.255 68.9009 70.9004 68.7148 70.543L68.6436 70.3896C68.572 70.212 68.5361 70.0328 68.5361 69.8525V66.8271C68.5361 66.3742 68.7653 65.9161 69.2354 65.4727C69.706 65.0287 70.4012 64.6168 71.2812 64.2656C73.0401 63.5639 75.4878 63.1241 78.2041 63.124Z" fill="black" stroke="black" stroke-width="0.514194" stroke-linejoin="round"/>
<path id="Intersect_4" d="M80.8844 73.4103V69.6025H78.6152V73.5531C79.3984 73.5403 80.1582 73.4914 80.8844 73.4103Z" fill="white"/>
<path id="Ellipse 6997_4" d="M78.2041 63.124C80.9204 63.124 83.3681 63.564 85.127 64.2656C86.007 64.6167 86.7021 65.0287 87.1729 65.4727C87.6431 65.9162 87.873 66.3742 87.873 66.8271C87.873 67.2801 87.643 67.7382 87.1729 68.1816C86.7021 68.6255 86.0068 69.0367 85.127 69.3877C83.3681 70.0894 80.9205 70.5293 78.2041 70.5293C75.4878 70.5293 73.0401 70.0894 71.2812 69.3877C70.4013 69.0366 69.706 68.6256 69.2354 68.1816C68.7652 67.7382 68.5362 67.2801 68.5361 66.8271C68.5361 66.3742 68.7653 65.9161 69.2354 65.4727C69.706 65.0287 70.4012 64.6168 71.2812 64.2656C73.0401 63.5639 75.4878 63.1241 78.2041 63.124Z" fill="#D9D9D9" stroke="black" stroke-width="0.514194"/>
<path id="Subtract_4" d="M86.685 69.1475C85.5164 69.826 83.8493 70.3573 81.8946 70.6573L81.8945 73.2648C83.8958 72.9449 85.5752 72.3724 86.685 71.6462L86.685 69.1475Z" fill="#FF2A2A"/>
</g>
<g id="Group 2035875473">
<path id="Union_6" d="M78.2041 60.0967C80.9204 60.0967 83.3681 60.5367 85.127 61.2383C86.007 61.5894 86.7021 62.0014 87.1729 62.4453C87.6431 62.8888 87.873 63.3468 87.873 63.7998V66.8252C87.873 67.2782 87.643 67.7362 87.1729 68.1797C86.7021 68.6236 86.0069 69.0357 85.127 69.3867C83.3681 70.0883 80.9203 70.5273 78.2041 70.5273C75.7564 70.5273 73.5256 70.1709 71.8203 69.5859C70.9675 69.2934 70.2528 68.9459 69.71 68.5635C69.2333 68.2277 68.9009 67.8731 68.7148 67.5156L68.6436 67.3623C68.572 67.1847 68.5361 67.0055 68.5361 66.8252V63.7998C68.5361 63.3469 68.7653 62.8888 69.2354 62.4453C69.706 62.0013 70.4012 61.5894 71.2812 61.2383C73.0401 60.5366 75.4878 60.0967 78.2041 60.0967Z" fill="black" stroke="black" stroke-width="0.514194" stroke-linejoin="round"/>
<path id="Intersect_5" d="M80.8844 70.3829V66.5752H78.6152V70.5258C79.3984 70.513 80.1582 70.464 80.8844 70.3829Z" fill="white"/>
<path id="Ellipse 6997_5" d="M78.2041 60.0967C80.9204 60.0967 83.3681 60.5367 85.127 61.2383C86.007 61.5894 86.7021 62.0014 87.1729 62.4453C87.6431 62.8888 87.873 63.3468 87.873 63.7998C87.873 64.2527 87.643 64.7109 87.1729 65.1543C86.7021 65.5981 86.0068 66.0093 85.127 66.3604C83.3681 67.062 80.9205 67.502 78.2041 67.502C75.4878 67.5019 73.0401 67.062 71.2812 66.3604C70.4013 66.0093 69.706 65.5982 69.2354 65.1543C68.7652 64.7109 68.5362 64.2527 68.5361 63.7998C68.5361 63.3469 68.7653 62.8888 69.2354 62.4453C69.706 62.0013 70.4012 61.5894 71.2812 61.2383C73.0401 60.5366 75.4878 60.0967 78.2041 60.0967Z" fill="#D9D9D9" stroke="black" stroke-width="0.514194"/>
<path id="Subtract_5" d="M86.685 66.1201C85.5164 66.7987 83.8493 67.33 81.8946 67.6299L81.8945 70.2375C83.8958 69.9175 85.5752 69.3451 86.685 68.6189L86.685 66.1201Z" fill="#FF2A2A"/>
</g>
<g id="Group 2035875470">
<path id="Union_7" d="M78.2041 57.0732C80.9204 57.0732 83.3681 57.5132 85.127 58.2148C86.007 58.5659 86.7021 58.9779 87.1729 59.4219C87.6431 59.8654 87.873 60.3234 87.873 60.7764V63.8018C87.873 64.2547 87.643 64.7127 87.1729 65.1562C86.7021 65.6001 86.0069 66.0122 85.127 66.3633C83.3681 67.0649 80.9203 67.5039 78.2041 67.5039C75.7564 67.5039 73.5256 67.1475 71.8203 66.5625C70.9675 66.2699 70.2528 65.9225 69.71 65.54C69.2333 65.2042 68.9009 64.8496 68.7148 64.4922L68.6436 64.3389C68.572 64.1612 68.5361 63.982 68.5361 63.8018V60.7764C68.5361 60.3234 68.7653 59.8653 69.2354 59.4219C69.706 58.9779 70.4012 58.566 71.2812 58.2148C73.0401 57.5132 75.4878 57.0733 78.2041 57.0732Z" fill="black" stroke="black" stroke-width="0.514194" stroke-linejoin="round"/>
<path id="Intersect_6" d="M80.8844 67.3595V63.5518H78.6152V67.5023C79.3984 67.4896 80.1582 67.4406 80.8844 67.3595Z" fill="white"/>
<path id="Ellipse 6997_6" d="M78.2041 57.0732C80.9204 57.0732 83.3681 57.5132 85.127 58.2148C86.007 58.5659 86.7021 58.9779 87.1729 59.4219C87.6431 59.8654 87.873 60.3234 87.873 60.7764C87.873 61.2293 87.643 61.6874 87.1729 62.1309C86.7021 62.5747 86.0068 62.9859 85.127 63.3369C83.3681 64.0386 80.9205 64.4785 78.2041 64.4785C75.4878 64.4785 73.0401 64.0386 71.2812 63.3369C70.4013 62.9858 69.706 62.5748 69.2354 62.1309C68.7652 61.6874 68.5362 61.2293 68.5361 60.7764C68.5361 60.3234 68.7653 59.8653 69.2354 59.4219C69.706 58.9779 70.4012 58.566 71.2812 58.2148C73.0401 57.5132 75.4878 57.0733 78.2041 57.0732Z" fill="white" stroke="black" stroke-width="0.514194"/>
<path id="Subtract_6" d="M86.685 63.0967C85.5164 63.7752 83.8493 64.3065 81.8946 64.6065L81.8945 67.214C83.8958 66.8941 85.5752 66.3216 86.685 65.5954L86.685 63.0967Z" fill="#FF2A2A"/>
</g>
<g id="Group 2035875475">
<path id="Union_8" d="M76.2432 54.3594C78.9594 54.3594 81.4072 54.7994 83.166 55.501C84.046 55.8521 84.7412 56.2641 85.2119 56.708C85.6821 57.1515 85.9121 57.6095 85.9121 58.0625V61.0879C85.9121 61.5409 85.6821 61.9989 85.2119 62.4424C84.7412 62.8863 84.0459 63.2984 83.166 63.6494C81.4072 64.351 78.9594 64.79 76.2432 64.79C73.7954 64.79 71.5647 64.4336 69.8594 63.8486C69.0066 63.5561 68.2919 63.2086 67.749 62.8262C67.2724 62.4904 66.94 62.1358 66.7539 61.7783L66.6826 61.625C66.6111 61.4474 66.5752 61.2682 66.5752 61.0879V58.0625C66.5752 57.6096 66.8043 57.1515 67.2744 56.708C67.7451 56.264 68.4403 55.8521 69.3203 55.501C71.0791 54.7993 73.5268 54.3594 76.2432 54.3594Z" fill="black" stroke="black" stroke-width="0.514194" stroke-linejoin="round"/>
<path id="Vector 4108" d="M72.3438 61.5859V64.5115" stroke="#FF2A2A" stroke-width="0.514194"/>
<path id="Intersect_7" d="M86.1678 58.3945H73.3203V64.8735C74.2442 64.9869 75.2255 65.0479 76.2426 65.0479C81.7241 65.0479 86.1678 63.2751 86.1678 61.0882V58.3945Z" fill="black"/>
<path id="Intersect_8" d="M78.9254 64.6456V60.8379H76.6562V64.7885C77.4395 64.7757 78.1993 64.7267 78.9254 64.6456Z" fill="white"/>
<path id="Ellipse 6997_7" d="M76.2432 54.3594C78.9594 54.3594 81.4072 54.7994 83.166 55.501C84.046 55.8521 84.7412 56.2641 85.2119 56.708C85.6821 57.1515 85.9121 57.6095 85.9121 58.0625C85.912 58.5154 85.682 58.9735 85.2119 59.417C84.7412 59.8608 84.0459 60.272 83.166 60.623C81.4071 61.3247 78.9595 61.7646 76.2432 61.7646C73.5268 61.7646 71.0791 61.3247 69.3203 60.623C68.4404 60.272 67.7451 59.8609 67.2744 59.417C66.8043 58.9735 66.5753 58.5154 66.5752 58.0625C66.5752 57.6096 66.8043 57.1515 67.2744 56.708C67.7451 56.264 68.4403 55.8521 69.3203 55.501C71.0791 54.7993 73.5268 54.3594 76.2432 54.3594Z" fill="white" stroke="black" stroke-width="0.514194"/>
<path id="Subtract_7" d="M84.7241 60.3828C83.5555 61.0614 81.8884 61.5927 79.9336 61.8926L79.9336 64.5002C81.9349 64.1802 83.6143 63.6078 84.7241 62.8816L84.7241 60.3828Z" fill="#FF2A2A"/>
</g>
<g id="Group 2035875480">
<path id="Union_9" d="M78.9912 51.0273C81.7075 51.0273 84.1552 51.4673 85.9141 52.1689C86.7941 52.52 87.4892 52.932 87.96 53.376C88.4302 53.8195 88.6602 54.2775 88.6602 54.7305V57.7559C88.6601 58.2088 88.4302 58.6668 87.96 59.1104C87.4892 59.5542 86.794 59.9663 85.9141 60.3174C84.1552 61.019 81.7074 61.458 78.9912 61.458C76.5435 61.458 74.3127 61.1016 72.6074 60.5166C71.7546 60.224 71.04 59.8766 70.4971 59.4941C70.0204 59.1583 69.6881 58.8037 69.502 58.4463L69.4307 58.293C69.3592 58.1153 69.3233 57.9361 69.3232 57.7559V54.7305C69.3232 54.2775 69.5524 53.8194 70.0225 53.376C70.4932 52.932 71.1883 52.5201 72.0684 52.1689C73.8272 51.4673 76.2749 51.0274 78.9912 51.0273Z" fill="black" stroke="black" stroke-width="0.514194" stroke-linejoin="round"/>
<path id="Vector 4108_2" d="M75.0957 58.2539V61.1795" stroke="#FF2A2A" stroke-width="0.514194"/>
<path id="Intersect_9" d="M88.9158 55.0625H76.0684V61.5415C76.9922 61.6549 77.9736 61.7159 78.9906 61.7159C84.4722 61.7159 88.9158 59.9431 88.9158 57.7562V55.0625Z" fill="black"/>
<path id="Ellipse 6997_8" d="M78.9912 51.0273C81.7075 51.0273 84.1552 51.4673 85.9141 52.1689C86.7941 52.52 87.4892 52.932 87.96 53.376C88.4302 53.8195 88.6602 54.2775 88.6602 54.7305C88.6601 55.1834 88.4301 55.6415 87.96 56.085C87.4892 56.5288 86.7939 56.94 85.9141 57.291C84.1552 57.9927 81.7076 58.4326 78.9912 58.4326C76.2749 58.4326 73.8272 57.9927 72.0684 57.291C71.1884 56.9399 70.4931 56.5289 70.0225 56.085C69.5523 55.6415 69.3233 55.1834 69.3232 54.7305C69.3232 54.2775 69.5524 53.8194 70.0225 53.376C70.4932 52.932 71.1883 52.5201 72.0684 52.1689C73.8272 51.4673 76.2749 51.0274 78.9912 51.0273Z" fill="white" stroke="black" stroke-width="0.514194"/>
<path id="Subtract_8" d="M87.4722 57.0508C86.3035 57.7293 84.6364 58.2606 82.6817 58.5606L82.6816 61.1681C84.6829 60.8482 86.3623 60.2757 87.4721 59.5495L87.4722 57.0508Z" fill="#FF2A2A"/>
</g>
<g id="Group 2035875467">
<path id="Union_10" d="M60.9248 66.8506C63.6411 66.8506 66.0888 67.2906 67.8477 67.9922C68.7277 68.3433 69.4228 68.7553 69.8936 69.1992C70.3638 69.6427 70.5938 70.1007 70.5938 70.5537V73.5791C70.5937 74.0321 70.3637 74.4901 69.8936 74.9336C69.4228 75.3775 68.7276 75.7896 67.8477 76.1406C66.0888 76.8422 63.641 77.2812 60.9248 77.2812C58.4771 77.2812 56.2463 76.9248 54.541 76.3398C53.6882 76.0473 52.9735 75.6998 52.4307 75.3174C51.954 74.9816 51.6216 74.627 51.4355 74.2695L51.3643 74.1162C51.2927 73.9386 51.2568 73.7594 51.2568 73.5791V70.5537C51.2568 70.1008 51.486 69.6427 51.9561 69.1992C52.4267 68.7552 53.1219 68.3433 54.002 67.9922C55.7608 67.2905 58.2085 66.8506 60.9248 66.8506Z" fill="black" stroke="black" stroke-width="0.514194" stroke-linejoin="round"/>
<path id="Intersect_10" d="M63.6071 77.1368V73.3291H61.3379V77.2797C62.1211 77.2669 62.8809 77.2179 63.6071 77.1368Z" fill="#FF2A2A"/>
<path id="Intersect_11" d="M69.4057 75.6371V70.5557H64.6152V77.2557C66.6165 76.9358 68.2959 76.3633 69.4057 75.6371Z" fill="#FF2A2A"/>
<path id="Ellipse 6997_9" d="M60.9248 66.8506C63.6411 66.8506 66.0888 67.2906 67.8477 67.9922C68.7277 68.3433 69.4228 68.7553 69.8936 69.1992C70.3638 69.6427 70.5938 70.1007 70.5938 70.5537C70.5937 71.0066 70.3637 71.4648 69.8936 71.9082C69.4228 72.352 68.7275 72.7632 67.8477 73.1143C66.0888 73.8159 63.6412 74.2559 60.9248 74.2559C58.2085 74.2558 55.7608 73.8159 54.002 73.1143C53.122 72.7632 52.4267 72.3521 51.9561 71.9082C51.4859 71.4648 51.2569 71.0066 51.2568 70.5537C51.2568 70.1008 51.486 69.6427 51.9561 69.1992C52.4267 68.7552 53.1219 68.3433 54.002 67.9922C55.7608 67.2905 58.2085 66.8506 60.9248 66.8506Z" fill="white" stroke="black" stroke-width="0.514194"/>
</g>
<g id="Group 2035875471">
<path id="Union_11" d="M71.7892 29.464L73.6924 31.3671C74.9786 32.6534 75.4177 34.5813 75.0458 36.6911C74.6741 38.7999 73.4938 41.0659 71.5821 42.9777C69.6703 44.8895 67.4042 46.0696 65.2955 46.4415C63.1856 46.8133 61.2577 46.3743 59.9714 45.088L58.0683 43.1849C56.7821 41.8986 56.343 39.9707 56.7149 37.8609C57.0867 35.7522 58.2669 33.486 60.1786 31.5743C62.0904 29.6625 64.3565 28.4823 66.4652 28.1105C68.575 27.7387 70.503 28.1777 71.7892 29.464Z" fill="#CCC2D6" stroke="black" stroke-width="0.514194" stroke-linejoin="round"/>
<path id="Ellipse 6998" d="M71.7892 29.464C73.0754 30.7502 73.5139 32.6776 73.142 34.7873C72.7703 36.8961 71.5901 39.1621 69.6783 41.0739C67.7664 42.9858 65.5004 44.1659 63.3917 44.5377C61.2819 44.9095 59.3546 44.471 58.0683 43.1849C56.7821 41.8986 56.343 39.9707 56.7149 37.8609C57.0867 35.7522 58.2669 33.486 60.1786 31.5743C62.0904 29.6625 64.3565 28.4823 66.4652 28.1105C68.575 27.7387 70.503 28.1777 71.7892 29.464Z" fill="white" stroke="black" stroke-width="0.514194"/>
<path id="Ellipse 6999" d="M70.104 31.1478C71.0646 32.1085 71.3968 33.553 71.1163 35.1446C70.8358 36.7353 69.9446 38.4487 68.4978 39.8955C67.0509 41.3423 65.3375 42.2337 63.7469 42.514C62.1553 42.7945 60.7113 42.4616 59.7508 41.501C58.7902 40.5404 58.4573 39.0965 58.7378 37.5049C59.0181 35.9143 59.9095 34.2009 61.3563 32.754C62.8031 31.3072 64.5165 30.416 66.1071 30.1355C67.6988 29.855 69.1433 30.1872 70.104 31.1478Z" fill="white" stroke="black" stroke-width="0.514194"/>
<g id="Union_12">
<path d="M63.4702 36.813C63.4338 36.8715 63.3734 36.9186 63.3043 36.9424L63.3041 36.9428L59.8383 38.1373C59.7444 38.1698 59.6487 38.1515 59.6008 38.0916C59.5582 38.0383 59.5615 37.9577 59.6091 37.8814L60.2837 36.7984C60.3202 36.7399 60.3805 36.6928 60.4496 36.669L62.3647 36.0086C62.4475 35.98 62.5204 35.9231 62.5642 35.8529L62.9736 35.1957C63.0174 35.1254 63.0271 35.0497 62.9999 34.9883L62.3783 33.5731C62.3559 33.522 62.364 33.4593 62.4004 33.4008L63.0722 32.3225C63.1248 32.238 63.2179 32.1769 63.3096 32.1666C63.3432 32.1631 63.3743 32.1656 63.4019 32.1738C63.4477 32.1874 63.4831 32.2162 63.5013 32.2575L64.627 34.8193C64.6494 34.8703 64.6414 34.933 64.6049 34.9915L63.4702 36.813Z" fill="black"/>
<path d="M69.6128 34.0436C69.6689 34.0975 69.6707 34.1872 69.6181 34.2717L69.6173 34.2715L68.9455 35.3498C68.9091 35.4083 68.8475 35.4551 68.7762 35.4783L66.8015 36.1205C66.7157 36.1482 66.6413 36.2046 66.5975 36.2749L66.1881 36.9321C66.1444 37.0024 66.1363 37.0782 66.1659 37.1407L66.8477 38.5739C66.8723 38.6256 66.8655 38.6887 66.829 38.7471L66.1544 39.8301C66.1068 39.9064 66.0225 39.9629 65.9342 39.9772C65.8344 39.9936 65.7461 39.9572 65.7123 39.8862L64.478 37.2921C64.4534 37.2404 64.4603 37.1773 64.4967 37.1188L65.6315 35.2973C65.6679 35.2388 65.7295 35.1921 65.8007 35.1689L69.3756 34.0068C69.433 33.9883 69.49 33.9867 69.5379 34.001C69.5668 34.0096 69.5921 34.0239 69.6128 34.0436Z" fill="black"/>
</g>
</g>
<g id="Group 2035875472">
<path id="Union_13" d="M72.128 42.2791L72.8064 40.2364C73.1605 39.1706 74.3484 38.4252 76.1146 38.1513C77.8658 37.8798 80.1096 38.089 82.4245 38.8577C84.7396 39.6265 86.6634 40.8014 87.9043 42.0667C89.1558 43.3427 89.6618 44.6506 89.3079 45.7166L88.6296 47.7592C88.2754 48.825 87.0874 49.5705 85.3214 49.8443C83.5701 50.1158 81.3256 49.9065 79.0105 49.1377C76.6957 48.3688 74.7725 47.1941 73.5317 45.929C72.2803 44.653 71.7743 43.345 72.128 42.2791Z" fill="#CCC2D6" stroke="black" stroke-width="0.514194" stroke-linejoin="round"/>
<path id="Vector 4105" d="M88.8354 43.1455L88.2148 45.0072" stroke="black" stroke-width="0.514194"/>
<path id="Ellipse 6999_2" d="M72.128 42.2791C72.4821 41.2131 73.6703 40.4669 75.4365 40.1931C77.1877 39.9216 79.4313 40.1317 81.7461 40.9003C84.0611 41.6692 85.9853 42.8432 87.2263 44.1084C88.4778 45.3845 88.9836 46.6933 88.6296 47.7592C88.2754 48.825 87.0874 49.5705 85.3214 49.8443C83.5701 50.1158 81.3256 49.9065 79.0105 49.1377C76.6957 48.3688 74.7725 47.1941 73.5317 45.929C72.2803 44.653 71.7743 43.345 72.128 42.2791Z" fill="white" stroke="black" stroke-width="0.514194"/>
</g>
</g>
</g>
</svg>
