<svg width="8" height="10" viewBox="0 0 8 10" fill="none" xmlns="http://www.w3.org/2000/svg">
<path d="M2.77704 3.23889L3.09549 2.46484L3.30175 3.16672C3.66916 4.41698 4.63246 5.4038 5.87349 5.80127L5.51535 5.99329C4.33404 6.62667 3.49495 7.75188 3.22488 9.06478L3.09549 9.69376L2.55366 8.37677C2.18395 7.47816 1.53439 6.72268 0.701359 6.22244L0 5.80127C1.25817 5.39831 2.27438 4.46065 2.77704 3.23889Z" fill="white"/>
<path d="M6.58806 1.24276L6.73126 0.882812L6.82532 1.21379C6.97653 1.7459 7.38145 2.16858 7.90657 2.3425C7.31022 2.67314 6.8896 3.24948 6.75657 3.91825L6.73126 4.04546L6.62645 3.78201C6.38918 3.18564 5.96689 2.68109 5.42163 2.3425C5.95382 2.16624 6.38081 1.76366 6.58806 1.24276Z" fill="white"/>
</svg>
