<svg width="24" height="24" viewBox="0 0 24 24" fill="none" xmlns="http://www.w3.org/2000/svg">
<path d="M3.14063 8.59434C3.56953 8.59434 3.91641 8.24746 3.91641 7.81855V5.00605C3.91641 4.85605 4.03828 4.73418 4.18828 4.73418H5.80781C5.90625 4.73418 5.99766 4.78809 6.04453 4.8748L6.67266 5.9998C6.99375 6.57637 7.60547 6.93496 8.26641 6.93496H19.8117C19.9617 6.93496 20.0836 7.05684 20.0836 7.20684V7.81855C20.0836 8.24746 20.4305 8.59434 20.8594 8.59434C21.2883 8.59434 21.6352 8.24746 21.6352 7.81855V7.20684C21.6352 6.20137 20.8172 5.3834 19.8117 5.3834H8.26641C8.16797 5.3834 8.07656 5.32949 8.02969 5.24277L7.40156 4.11777C7.08047 3.54121 6.46875 3.18262 5.80781 3.18262H4.18828C3.18281 3.18262 2.36485 4.00059 2.36485 5.00605V7.81855C2.36485 8.24746 2.71172 8.59434 3.14063 8.59434ZM22.0594 9.53887C21.7195 9.14512 21.2273 8.92012 20.707 8.92012H3.29063C2.77031 8.92012 2.27813 9.14512 1.93828 9.53887C1.59844 9.93262 1.44844 10.4529 1.52578 10.9662L2.775 19.2982C2.90625 20.1795 3.64922 20.817 4.5375 20.817H19.4555C20.332 20.817 21.0891 20.1631 21.218 19.2982L22.4672 10.9662C22.5492 10.4529 22.3992 9.93262 22.0594 9.53887ZM20.9367 10.7365L19.6875 19.0686C19.6711 19.1811 19.5727 19.2654 19.4578 19.2654H4.54219C4.42735 19.2654 4.33125 19.1834 4.3125 19.0686L3.06328 10.7365C3.04922 10.6451 3.09141 10.5818 3.11719 10.5514C3.14297 10.5209 3.19922 10.4717 3.29297 10.4717H20.7094C20.8008 10.4717 20.8594 10.5209 20.8852 10.5514C20.9086 10.5818 20.9508 10.6451 20.9367 10.7365Z" fill="#333333"/>
<path d="M15.3799 12.3682H8.62051C8.1916 12.3682 7.84473 12.715 7.84473 13.1439C7.84473 13.5729 8.1916 13.9197 8.62051 13.9197H15.3775C15.8064 13.9197 16.1533 13.5729 16.1533 13.1439C16.1533 12.715 15.8088 12.3682 15.3799 12.3682Z" fill="#333333"/>
</svg>
