<svg width="36" height="36" viewBox="0 0 36 36" fill="none" xmlns="http://www.w3.org/2000/svg">
<g id="Frame" clip-path="url(#clip0_1080_3324)">
<g id="Group 2035875982">
<path id="Vector" d="M27.5625 0H8.4375C3.7776 0 0 3.7776 0 8.4375V27.5625C0 32.2224 3.7776 36 8.4375 36H27.5625C32.2224 36 36 32.2224 36 27.5625V8.4375C36 3.7776 32.2224 0 27.5625 0Z" fill="#FF7913"/>
<path id="Vector_2" d="M26.9785 19.1424C26.9785 17.9264 25.9952 16.9607 24.7968 16.9607C24.2308 16.9599 23.6863 17.1778 23.2769 17.5688C21.7748 16.4957 19.7182 15.7984 17.4293 15.709L18.4305 11.0238L21.6852 11.721C21.7211 12.5437 22.4005 13.2054 23.2412 13.2054C24.0995 13.2054 24.7968 12.5082 24.7968 11.6494C24.7968 10.7911 24.0996 10.0938 23.2412 10.0938C22.6332 10.0938 22.0965 10.4514 21.8462 10.9701L18.2162 10.2011C18.1088 10.183 18.0015 10.2011 17.9299 10.2548C17.8405 10.3084 17.7869 10.3977 17.7692 10.5051L16.6602 15.7267C14.3355 15.7984 12.2431 16.4957 10.7232 17.5867C10.3138 17.1957 9.76927 16.9779 9.20316 16.9788C7.98711 16.9788 7.02148 17.9621 7.02148 19.1604C7.02148 20.0545 7.55785 20.8054 8.30914 21.1455C8.27266 21.3641 8.2547 21.5854 8.25547 21.8071C8.25547 25.1687 12.1719 27.9051 17.0001 27.9051C21.8285 27.9051 25.7449 25.1868 25.7449 21.8071C25.7449 21.5855 25.7269 21.3642 25.6912 21.1455C26.4422 20.8054 26.9785 20.0364 26.9785 19.1424ZM11.9928 20.698C11.9928 19.8398 12.6901 19.1424 13.5488 19.1424C14.4071 19.1424 15.1045 19.8396 15.1045 20.698C15.1045 21.5564 14.4072 22.2541 13.5488 22.2541C12.6902 22.2716 11.9928 21.5564 11.9928 20.698ZM20.7018 24.829C19.6289 25.9021 17.5902 25.9737 17.0001 25.9737C16.3921 25.9737 14.3536 25.8841 13.2982 24.829C13.1375 24.6681 13.1375 24.4177 13.2982 24.2568C13.4592 24.0961 13.7095 24.0961 13.8705 24.2568C14.5502 24.9365 15.9808 25.1687 17.0001 25.1687C18.0194 25.1687 19.4679 24.9364 20.1295 24.2568C20.2905 24.0961 20.5408 24.0961 20.7018 24.2568C20.8448 24.4177 20.8448 24.6681 20.7018 24.829ZM20.4155 22.2718C19.5571 22.2718 18.8599 21.5745 18.8599 20.7161C18.8599 19.8577 19.5571 19.1604 20.4155 19.1604C21.2742 19.1604 21.9714 19.8577 21.9714 20.7161C21.9714 21.5563 21.2742 22.2718 20.4155 22.2718Z" fill="white"/>
</g>
</g>
<defs>
<clipPath id="clip0_1080_3324">
<rect width="36" height="36" fill="white"/>
</clipPath>
</defs>
</svg>
