<svg width="169" height="103" viewBox="0 0 169 103" fill="none" xmlns="http://www.w3.org/2000/svg">
<path d="M83.5346 92.5665C83.5352 92.5669 83.5359 92.5673 83.5362 92.5676C84.2353 93.037 85.1259 93.2629 86.0018 93.2614C86.8786 93.2594 87.7659 93.0285 88.4549 92.5529L83.5346 92.5665ZM83.5346 92.5665C83.5339 92.5661 83.5333 92.5657 83.5326 92.5649L48.7863 68.765C48.0875 68.2884 47.6846 67.6275 47.684 66.8893L83.5346 92.5665ZM122.968 68.7662L88.4549 92.5529L47.684 66.8878L47.6347 55.8005C47.6347 55.7993 47.6347 55.7982 47.6347 55.797C47.6347 55.7831 47.6347 55.7692 47.6347 55.7548L48.1117 55.751V55.7548L48.112 55.7843C48.112 55.785 48.112 55.7854 48.112 55.7862C48.1234 56.2265 48.3792 56.7357 48.9748 57.1419L83.3405 80.6826V80.6791L83.7049 80.9306C84.3067 81.3465 85.1145 81.5624 85.9355 81.5624C86.7566 81.5624 87.5643 81.3465 88.1662 80.9306L88.5189 80.6872L88.5192 80.7L122.681 57.1435C122.681 57.1431 122.68 57.1438 122.681 57.1435C123.279 56.7248 123.53 56.2191 123.53 55.7939L124.007 55.7924L124.007 55.7939L124.056 66.9253V66.9268C124.056 67.6457 123.653 68.3077 122.97 68.7654C122.969 68.7658 122.969 68.7658 122.968 68.7662Z" fill="white"/>
<path d="M83.5346 92.5665C83.5352 92.5669 83.5359 92.5673 83.5362 92.5676C84.2353 93.037 85.1259 93.2629 86.0018 93.2614C86.8786 93.2594 87.7659 93.0285 88.4549 92.5529M83.5346 92.5665L88.4549 92.5529M83.5346 92.5665C83.5339 92.5661 83.5333 92.5657 83.5326 92.5649L48.7863 68.765C48.0875 68.2884 47.6846 67.6275 47.684 66.8893L83.5346 92.5665ZM88.4549 92.5529L122.968 68.7662C122.969 68.7658 122.969 68.7658 122.97 68.7654C123.653 68.3077 124.056 67.6457 124.056 66.9268V66.9253L124.007 55.7939L124.007 55.7924L123.53 55.7939C123.53 56.2191 123.279 56.7248 122.681 57.1435M88.4549 92.5529L47.684 66.8878L47.6347 55.8005C47.6347 55.7993 47.6347 55.7982 47.6347 55.797C47.6347 55.7831 47.6347 55.7692 47.6347 55.7548L48.1117 55.751V55.7548L48.112 55.7843C48.112 55.785 48.112 55.7854 48.112 55.7862C48.1234 56.2265 48.3792 56.7357 48.9748 57.1419L83.3405 80.6826V80.6791L83.7049 80.9306C84.3067 81.3465 85.1145 81.5624 85.9355 81.5624C86.7566 81.5624 87.5643 81.3465 88.1662 80.9306L88.5189 80.6872L88.5192 80.7L122.681 57.1435M122.681 57.1435C122.681 57.1431 122.68 57.1438 122.681 57.1435Z" stroke="black" stroke-width="0.497958"/>
<path d="M99.887 82.7599V75.4643L114.24 65.6523V73.156L99.887 82.7599Z" fill="black" stroke="black" stroke-width="0.497958"/>
<path d="M80.999 87.7682V83.058L65.1185 72.1943V77.0442L80.999 87.7682Z" fill="black" stroke="black" stroke-width="0.497958"/>
<path d="M95.459 52.0401L95.4469 52.0312L95.4352 52.0211C95.0417 51.683 94.4017 51.6349 93.5761 52.2044C92.8101 52.7324 92.096 53.6563 91.5724 54.7394C91.0489 55.8223 90.7357 57.0233 90.7357 58.0807C90.7357 59.1679 91.0599 59.8009 91.4693 60.0625L91.4817 60.0702L91.4935 60.0791L92.6838 60.9837L96.6826 52.9262L95.459 52.0401Z" fill="#D9D9D9" stroke="black" stroke-width="0.728743"/>
<path d="M92.2839 59.2697C92.2839 60.3337 92.596 60.9659 92.9957 61.2395C93.3953 61.5134 94.0131 61.5177 94.7898 60.9857C95.5646 60.4552 96.2869 59.5274 96.816 58.4402C97.3454 57.353 97.6619 56.1474 97.6619 55.0861C97.6619 54.022 97.3497 53.3899 96.9501 53.1162C96.5504 52.8425 95.9326 52.838 95.1559 53.37C94.3808 53.9006 93.6589 54.8284 93.1297 55.9156C92.6003 57.0028 92.2839 58.2084 92.2839 59.2697Z" fill="#BDBDBD" stroke="black" stroke-width="0.728743"/>
<path d="M93.3832 58.3259C93.3832 59.511 94.0849 59.9916 94.9507 59.3988C95.8161 58.8065 96.5178 57.3649 96.5178 56.1794C96.5178 54.9943 95.8161 54.5136 94.9507 55.1065C94.0849 55.6988 93.3832 57.1405 93.3832 58.3259Z" fill="#D9D9D9" stroke="black" stroke-width="0.728743"/>
<path d="M95.7039 56.7373L94.1964 57.7692" stroke="black" stroke-width="0.728743"/>
<path d="M86.9488 57.9559L86.9364 57.947L86.9247 57.9373C86.5312 57.5991 85.8915 57.5508 85.0656 58.1203C84.2996 58.6484 83.5855 59.5724 83.0619 60.6553C82.5387 61.7383 82.2252 62.9392 82.2252 63.9967C82.2252 65.0839 82.5494 65.7169 82.9588 65.9784L82.9712 65.9862L82.983 65.9951L84.1734 66.8996L88.1721 58.8423L86.9488 57.9559Z" fill="#D9D9D9" stroke="black" stroke-width="0.728743"/>
<path d="M83.7736 65.1867C83.7736 66.2507 84.0858 66.8829 84.4854 67.1564C84.8853 67.4304 85.5029 67.4346 86.2796 66.9026C87.0547 66.3722 87.7766 65.4444 88.3057 64.3571C88.8352 63.2699 89.1516 62.0643 89.1516 61.003C89.1516 59.939 88.8394 59.3068 88.4398 59.0333C88.0402 58.7593 87.4223 58.7551 86.6456 59.2871C85.8708 59.8175 85.1486 60.7453 84.6195 61.8326C84.09 62.9198 83.7736 64.1254 83.7736 65.1867Z" fill="#BDBDBD" stroke="black" stroke-width="0.728743"/>
<path d="M84.8967 64.2732C84.8967 65.4586 85.5984 65.9388 86.4639 65.3461C87.3293 64.7537 88.031 63.3121 88.031 62.1266C88.031 60.9415 87.3293 60.461 86.4639 61.0537C85.5984 61.6464 84.8967 63.0877 84.8967 64.2732Z" fill="#D9D9D9" stroke="black" stroke-width="0.728743"/>
<path d="M87.217 62.6846L85.7096 63.7165" stroke="black" stroke-width="0.983784"/>
<path d="M78.4388 63.5244L78.4264 63.5155L78.4147 63.5055C78.0212 63.1673 77.3815 63.1193 76.5555 63.6889C75.7896 64.2166 75.0755 65.1406 74.5519 66.2235C74.0287 67.3065 73.7155 68.5078 73.7155 69.5652C73.7155 70.6525 74.0394 71.2854 74.4492 71.547L74.4612 71.5547L74.473 71.5636L75.6633 72.4678L79.6621 64.4105L78.4388 63.5244Z" fill="#D9D9D9" stroke="black" stroke-width="0.728743"/>
<path d="M75.2633 70.7553C75.2633 71.8193 75.5755 72.4511 75.9751 72.725C76.3751 72.9985 76.9926 73.0032 77.7693 72.4712C78.5444 71.9404 79.2664 71.0125 79.7958 69.9253C80.3249 68.8381 80.6414 67.6325 80.6414 66.5712C80.6414 65.5072 80.3292 64.8754 79.9296 64.6015C79.5299 64.3279 78.9124 64.3233 78.1354 64.8553C77.3606 65.3861 76.6383 66.3139 76.1092 67.4011C75.5801 68.4884 75.2633 69.694 75.2633 70.7553Z" fill="#BDBDBD" stroke="black" stroke-width="0.728743"/>
<path d="M76.4875 69.7829C76.4875 70.9684 77.1892 71.4489 78.0547 70.8562C78.9201 70.2635 79.6218 68.8218 79.6218 67.6367C79.6218 66.4512 78.9201 65.9707 78.0547 66.5635C77.1892 67.1562 76.4875 68.5974 76.4875 69.7829Z" fill="#D9D9D9" stroke="black" stroke-width="0.728743"/>
<path d="M78.8093 68.1943L77.3022 69.2262" stroke="black" stroke-width="0.728743"/>
<path d="M83.4495 81.4117C84.1492 81.8888 85.0447 82.1198 85.9258 82.1198C86.8062 82.1198 87.6981 81.8892 88.39 81.4114L83.4495 81.4117ZM83.4495 81.4117L48.7044 57.6304C48.0148 57.1541 47.6109 56.4933 47.6086 55.774C47.606 55.0536 48.006 54.3918 48.7044 53.9154C48.7044 53.9152 48.7044 53.9155 48.7044 53.9154L83.2195 30.115L83.4495 81.4117ZM122.905 57.6308L88.39 81.4114L83.2195 30.115C83.9114 29.6372 84.8033 29.4062 85.684 29.4062C86.5648 29.4062 87.4603 29.6371 88.1597 30.1142L122.905 53.8957L123.024 53.9774V54.0015C123.641 54.4697 123.999 55.0946 124.001 55.7717C124.004 56.4921 123.604 57.1537 122.906 57.63C122.905 57.6304 122.905 57.6304 122.905 57.6308Z" fill="#EDE4F7"/>
<path d="M83.4495 81.4117C84.1492 81.8888 85.0447 82.1198 85.9258 82.1198C86.8062 82.1198 87.6981 81.8892 88.39 81.4114M83.4495 81.4117L88.39 81.4114M83.4495 81.4117L48.7044 57.6304C48.0148 57.1541 47.6109 56.4933 47.6086 55.774C47.606 55.0536 48.006 54.3918 48.7044 53.9154M83.4495 81.4117L83.2195 30.115M88.39 81.4114L122.905 57.6308C122.905 57.6304 122.905 57.6304 122.906 57.63C123.604 57.1537 124.004 56.4921 124.001 55.7717C123.999 55.0946 123.641 54.4697 123.024 54.0015V53.9774L122.905 53.8957L88.1597 30.1142C87.4603 29.6371 86.5648 29.4062 85.684 29.4062C84.8033 29.4062 83.9114 29.6372 83.2195 30.115M88.39 81.4114L83.2195 30.115M48.7044 53.9154C48.7044 53.9152 48.7044 53.9155 48.7044 53.9154ZM48.7044 53.9154L83.2195 30.115" stroke="black" stroke-width="0.497958"/>
<path d="M119.812 57.0898C119.282 57.7182 118.423 57.7182 117.893 57.0898C117.364 56.4615 117.364 55.4428 117.893 54.8145C118.423 54.1861 119.282 54.1861 119.812 54.8145C120.342 55.4428 120.342 56.4615 119.812 57.0898Z" fill="#FF1800" stroke="black" stroke-width="0.497958"/>
<path d="M117.591 55.6771L117.592 55.6883L117.592 55.701C117.588 55.8577 117.672 56.0574 117.926 56.2319C118.174 56.4013 118.509 56.4919 118.853 56.4919C119.198 56.4919 119.533 56.4013 119.78 56.2319C120.039 56.0543 120.122 55.8508 120.114 55.6921L120.114 55.6852L120.114 55.6782V53.6249C120.114 52.7987 119.549 52.1289 118.853 52.1289C118.156 52.1289 117.591 52.7987 117.591 53.6249V55.6771Z" fill="#FF1800" stroke="black" stroke-width="0.497958"/>
<path d="M118.928 56.5037V54.0039" stroke="black" stroke-width="0.497958"/>
<path d="M87.1311 79.0078C86.6013 79.6361 85.7424 79.6361 85.2126 79.0078C84.6829 78.3795 84.6829 77.3608 85.2126 76.7324C85.7424 76.1041 86.6013 76.1041 87.1311 76.7324C87.6609 77.3608 87.6609 78.3795 87.1311 79.0078Z" fill="#FF1800" stroke="black" stroke-width="0.497958"/>
<path d="M84.9107 77.5948L84.9116 77.6064L84.9113 77.6192C84.9074 77.7755 84.9912 77.9755 85.2457 78.1497C85.4933 78.3191 85.8283 78.4097 86.1728 78.4097C86.5169 78.4097 86.852 78.3191 87.0996 78.1497C87.3586 77.9724 87.4411 77.7685 87.4336 77.6099L87.4333 77.603V77.5964V75.5427C87.4333 74.7166 86.8686 74.0469 86.1721 74.0469C85.4757 74.0469 84.9107 74.7166 84.9107 75.5427V77.5948Z" fill="#FF1800" stroke="black" stroke-width="0.497958"/>
<path d="M86.2478 78.4213V75.9219" stroke="black" stroke-width="0.497958"/>
<path d="M54.3486 56.8125C53.8189 57.4408 52.9599 57.4408 52.4302 56.8125C51.9004 56.1842 51.9004 55.1654 52.4302 54.5371C52.9599 53.9088 53.8189 53.9088 54.3486 54.5371C54.8784 55.1654 54.8784 56.1842 54.3486 56.8125Z" fill="#FF1800" stroke="black" stroke-width="0.497958"/>
<path d="M52.1285 55.3996L52.1295 55.4109L52.1292 55.424C52.1249 55.5803 52.2091 55.7803 52.4632 55.9545C52.7108 56.1239 53.0462 56.2145 53.3903 56.2145C53.7345 56.2145 54.0698 56.1239 54.3171 55.9545C54.5764 55.7769 54.6586 55.5734 54.6511 55.4147L54.6508 55.4078L54.6511 55.4008V53.3475C54.6511 52.5213 54.0865 51.8516 53.3897 51.8516C52.6932 51.8516 52.1285 52.5213 52.1285 53.3475V55.3996Z" fill="#FF1800" stroke="black" stroke-width="0.497958"/>
<path d="M53.4653 56.2273V53.7275" stroke="black" stroke-width="0.497958"/>
<path d="M86.7642 33.8721C86.2344 34.5004 85.3755 34.5004 84.8457 33.8721C84.3159 33.2437 84.3159 32.225 84.8457 31.5967C85.3755 30.9683 86.2344 30.9683 86.7642 31.5967C87.2939 32.225 87.2939 33.2437 86.7642 33.8721Z" fill="#D9D9D9" stroke="black" stroke-width="0.497958"/>
<path d="M84.5437 32.4601L84.5447 32.4716L84.5444 32.4844C84.5402 32.6408 84.6243 32.8407 84.8788 33.0149C85.1264 33.1845 85.4614 33.275 85.8056 33.275C86.1497 33.275 86.4851 33.1845 86.7327 33.0149C86.9917 32.8376 87.0739 32.6338 87.0667 32.4753L87.0664 32.4682V32.4615V30.4081C87.0664 29.5819 86.5017 28.9121 85.8049 28.9121C85.1084 28.9121 84.5437 29.5819 84.5437 30.4081V32.4601Z" fill="#D9D9D9" stroke="black" stroke-width="0.497958"/>
<path d="M85.8806 33.2869V30.7871" stroke="black" stroke-width="0.497958"/>
<mask id="mask0_878_6985" style="mask-type:luminance" maskUnits="userSpaceOnUse" x="70" y="42" width="34" height="23">
<path d="M75.659 61.3176C81.9358 65.6158 92.1125 65.6158 98.3892 61.3176C104.666 57.0195 104.666 50.051 98.3892 45.7529C92.1125 41.4548 81.9358 41.4548 75.659 45.7529C69.3823 50.051 69.3823 57.0195 75.659 61.3176Z" fill="white"/>
</mask>
<g mask="url(#mask0_878_6985)">
<path d="M75.7827 62.4097C78.8746 64.5268 82.9425 65.5939 87.0242 65.5939C91.1055 65.5939 95.1737 64.5268 98.2656 62.4097C101.359 60.2913 102.85 57.5559 102.85 54.8808C102.85 52.2058 101.359 49.4705 98.2656 47.3523C95.1737 45.235 91.1055 44.168 87.0242 44.168C82.9425 44.168 78.8746 45.235 75.7827 47.3523C72.6892 49.4705 71.1987 52.2058 71.1987 54.8808C71.1987 57.5559 72.6892 60.2913 75.7827 62.4097Z" fill="#FF4D00" stroke="black" stroke-width="0.497958"/>
<path d="M78.176 65.168C80.6066 66.8325 83.8085 67.6732 87.0237 67.6732C90.2385 67.6732 93.4404 66.8325 95.8713 65.168C98.3036 63.5023 99.4636 61.3604 99.4636 59.2785C99.4636 57.1965 98.3036 55.0546 95.8713 53.3891C93.4404 51.7245 90.2385 50.8838 87.0237 50.8838C83.8085 50.8838 80.6066 51.7245 78.176 53.3891C75.7434 55.0546 74.5834 57.1965 74.5834 59.2785C74.5834 61.3604 75.7434 63.5023 78.176 65.168Z" fill="#1CA3A3" stroke="black" stroke-width="0.497958"/>
<path d="M79.3247 65.986C81.4382 67.433 84.2241 68.165 87.0234 68.165C89.8227 68.165 92.6082 67.433 94.7218 65.986C96.8132 64.554 97.8156 62.722 97.8381 60.9446V59.2998H76.2086V60.9469C76.2318 62.7236 77.2346 64.5544 79.3247 65.986Z" fill="black" stroke="black" stroke-width="0.497958"/>
<path d="M79.3252 64.3796C81.4387 65.827 84.2243 66.5591 87.0236 66.5591C89.8228 66.5591 92.6087 65.827 94.7223 64.3796C96.8371 62.9314 97.8386 61.0742 97.8386 59.277C97.8386 57.4799 96.8371 55.6227 94.7223 54.1745C92.6087 52.7271 89.8228 51.9951 87.0236 51.9951C84.2243 51.9951 81.4387 52.7271 79.3252 54.1745C77.21 55.6227 76.2085 57.4799 76.2085 59.277C76.2085 61.0742 77.21 62.9314 79.3252 64.3796Z" fill="#FF1800" stroke="black" stroke-width="0.497958"/>
<path d="M80.3662 63.6675C82.1923 64.918 84.6011 65.5517 87.0233 65.5517C89.4454 65.5517 91.8542 64.918 93.6804 63.6675C95.5079 62.4162 96.3655 60.8171 96.3655 59.2784C96.3655 57.7393 95.5079 56.1402 93.6804 54.8889C91.8542 53.6385 89.4454 53.0049 87.0233 53.0049C84.6011 53.0049 82.1923 53.6385 80.3662 54.8889C78.5387 56.1402 77.6811 57.7393 77.6811 59.2784C77.6811 60.8171 78.5387 62.4162 80.3662 63.6675Z" fill="black" stroke="black" stroke-width="0.497958"/>
<path d="M86.9712 50.7719L87.1249 44.0928M97.1322 46.4396C96.7098 48.026 95.4985 50.4707 93.2 51.8213M76.588 46.6684C77.0069 48.2445 78.2077 50.6734 80.4857 52.0154M103.115 54.7568C102.809 55.7256 101.094 57.6819 99.4324 57.6819M70.9699 54.7568C71.2759 55.7256 72.9912 57.6819 74.6526 57.6819" stroke="black" stroke-width="0.497958"/>
</g>
<path d="M33.5423 43.9447L33.952 42.8564L33.5423 43.9447ZM33.7579 43.8465L34.03 43.9897C34.1837 44.0706 34.336 44.035 34.4283 43.9275L35.0423 43.2116C35.346 42.8575 35.8372 42.9581 36.1041 43.347L36.718 44.2417C36.8306 44.4058 36.9983 44.4768 37.1389 44.4437L38.0076 44.2397C38.4157 44.1438 38.8234 44.4988 38.9099 44.9834L39.1046 46.0761C39.1389 46.2695 39.2642 46.4371 39.4217 46.5012L40.3123 46.8637C40.7073 47.0245 40.9546 47.5476 40.8248 48.0164L40.5481 49.0142C40.5035 49.1757 40.5423 49.3815 40.6659 49.5341L41.3399 50.366C41.6328 50.7275 41.657 51.318 41.3239 51.6323L40.6499 52.2679C40.5485 52.3634 40.5002 52.5384 40.5491 52.7293L40.784 53.6449L41.1008 53.6083C41.1715 53.6001 41.2306 53.5688 41.2759 53.5238L33.7579 43.8465ZM33.4001 43.6583L33.4598 43.6896L33.5143 43.5449L33.4001 43.6583ZM32.225 44.0542C32.2573 43.8822 32.333 43.7377 32.4377 43.6335L41.2759 53.5238C41.3451 53.4551 41.4479 53.4656 41.5059 53.5475C41.5637 53.6293 41.5545 53.7513 41.4857 53.82L40.6287 54.673C40.5325 54.769 40.4111 54.8306 40.2751 54.8464L39.8667 54.8936L39.7665 55.4266C39.7342 55.5987 39.6582 55.7432 39.5535 55.8474L39.5512 55.8497L38.6978 56.6988C38.6975 56.6993 38.6969 56.6998 38.6965 56.7003C38.5037 56.8921 38.2274 56.935 37.973 56.8012L37.1043 56.3442C37.042 56.3113 36.979 56.2977 36.9206 56.3004C36.9069 56.3146 36.8926 56.3281 36.8779 56.3407L36.0871 57.1279C35.7831 57.4752 35.2957 57.3737 35.0302 56.9869L34.4162 56.0921C34.3037 55.928 34.136 55.8571 33.9954 55.8901L33.1267 56.0942C32.7186 56.19 32.3108 55.8349 32.2247 55.3504L32.03 54.2577C31.9954 54.0643 31.8704 53.8967 31.7126 53.8326L30.822 53.4701C30.4269 53.3093 30.1797 52.7861 30.3095 52.3174L30.5861 51.3196C30.6086 51.2392 30.6103 51.148 30.5904 51.0563C30.5705 50.9647 30.5294 50.8749 30.4684 50.7997L29.7944 49.9679C29.7337 49.8928 29.6848 49.8092 29.6483 49.7211C29.5507 49.4855 29.5393 49.2122 29.6274 48.9807C29.6678 48.875 29.7285 48.7794 29.8091 48.7028L30.5646 47.9511C30.5825 47.9104 30.5949 47.8646 30.6008 47.8151C30.6047 47.7814 30.6054 47.746 30.6024 47.7096C30.5998 47.6753 30.5943 47.64 30.5852 47.6044L30.3085 46.5261C30.3017 46.4997 30.2961 46.4733 30.2912 46.447C30.2739 46.3501 30.2707 46.2536 30.2805 46.1608C30.301 45.964 30.3803 45.7858 30.5059 45.6609L30.5075 45.659L30.5085 45.6583L30.5101 45.6567L30.5114 45.6555L31.3609 44.8099L31.3625 44.8084C31.4591 44.7124 31.5804 44.6503 31.7162 44.6345L32.1249 44.5872L32.225 44.0542Z" fill="white"/>
<path d="M33.5423 43.9447L33.952 42.8564M41.2759 53.5238C41.2306 53.5688 41.1715 53.6001 41.1008 53.6083L40.784 53.6449L40.5491 52.7293C40.5002 52.5384 40.5485 52.3634 40.6499 52.2679L41.3239 51.6323C41.657 51.318 41.6328 50.7275 41.3399 50.366L40.6659 49.5341C40.5423 49.3815 40.5035 49.1757 40.5481 49.0142L40.8248 48.0164C40.9546 47.5476 40.7073 47.0245 40.3123 46.8637L39.4217 46.5012C39.2642 46.4371 39.1389 46.2695 39.1046 46.0761L38.9099 44.9834C38.8234 44.4988 38.4157 44.1438 38.0076 44.2397L37.1389 44.4437C36.9983 44.4768 36.8306 44.4058 36.718 44.2417L36.1041 43.347C35.8372 42.9581 35.346 42.8575 35.0423 43.2116L34.4283 43.9275C34.336 44.035 34.1837 44.0706 34.03 43.9897L33.7579 43.8465L41.2759 53.5238ZM41.2759 53.5238L32.4377 43.6335C32.333 43.7377 32.2573 43.8822 32.225 44.0542M41.2759 53.5238C41.3451 53.4551 41.4479 53.4656 41.5059 53.5475C41.5637 53.6293 41.5545 53.7513 41.4857 53.82L40.6287 54.673C40.5325 54.769 40.4111 54.8306 40.2751 54.8464L39.8667 54.8936L39.7665 55.4266M32.225 44.0542L32.1249 44.5872L31.7162 44.6345C31.5804 44.6503 31.4591 44.7124 31.3625 44.8084L31.3609 44.8099L30.5114 45.6555L30.5101 45.6567L30.5085 45.6583L30.5075 45.659L30.5059 45.6609C30.3803 45.7858 30.301 45.964 30.2805 46.1608C30.2707 46.2536 30.2739 46.3501 30.2912 46.447C30.2961 46.4733 30.3017 46.4997 30.3085 46.5261L30.5852 47.6044C30.5943 47.64 30.5998 47.6753 30.6024 47.7096C30.6054 47.746 30.6047 47.7814 30.6008 47.8151C30.5949 47.8646 30.5825 47.9104 30.5646 47.9511L29.8091 48.7028C29.7285 48.7794 29.6678 48.875 29.6274 48.9807C29.5393 49.2122 29.5507 49.4855 29.6483 49.7211C29.6848 49.8092 29.7337 49.8928 29.7944 49.9679L30.4684 50.7997C30.5294 50.8749 30.5705 50.9647 30.5904 51.0563C30.6103 51.148 30.6086 51.2392 30.5861 51.3196L30.3095 52.3174C30.1797 52.7861 30.4269 53.3093 30.822 53.4701L31.7126 53.8326M32.225 44.0542L32.3842 44.0964M39.7665 55.4266L39.6073 55.3845M39.7665 55.4266C39.7342 55.5987 39.6582 55.7432 39.5535 55.8474L39.5512 55.8497L38.6978 56.6988C38.6975 56.6993 38.6969 56.6998 38.6965 56.7003C38.5037 56.8921 38.2274 56.935 37.973 56.8012M37.973 56.8012L38.0392 56.6244M37.973 56.8012L37.1043 56.3442C37.042 56.3113 36.979 56.2977 36.9206 56.3004C36.9069 56.3146 36.8926 56.3281 36.8779 56.3407L36.0871 57.1279C35.7831 57.4752 35.2957 57.3737 35.0302 56.9869L34.4162 56.0921C34.3037 55.928 34.136 55.8571 33.9954 55.8901L33.1267 56.0942C32.7186 56.19 32.3108 55.8349 32.2247 55.3504L32.03 54.2577C31.9954 54.0643 31.8704 53.8967 31.7126 53.8326M31.7126 53.8326L31.7657 53.6496M33.4001 43.6583L33.4598 43.6896L33.5143 43.5449L33.4001 43.6583Z" stroke="black" stroke-width="0.497958" stroke-linejoin="round"/>
<path d="M37.3934 42.8562C37.6436 43.221 38.0312 43.4015 38.3855 43.3183C39.1012 43.1502 39.8577 43.7824 40.0182 44.6825C40.0974 45.128 40.3813 45.5082 40.7443 45.656C41.478 45.9546 41.9148 46.9223 41.6871 47.7443C41.5742 48.1512 41.678 48.6293 41.953 48.9684C42.5079 49.6537 42.5079 50.6977 41.953 51.2213C41.678 51.4805 41.5742 51.9283 41.6871 52.368C41.9148 53.2564 41.478 54.0969 40.7443 54.1818C40.3813 54.2238 40.0974 54.5214 40.0182 54.9438C39.8577 55.7972 39.1012 56.209 38.3855 55.8325C38.0312 55.6461 37.6436 55.7138 37.3934 56.0056C36.8875 56.5954 36.0139 56.4682 35.5082 55.7311C35.2577 55.3663 34.8701 55.1858 34.5162 55.269C33.8005 55.4371 33.0437 54.8049 32.8835 53.9048C32.8039 53.4593 32.5204 53.079 32.157 52.9312C31.4233 52.6327 30.9865 51.6649 31.2146 50.8429C31.3274 50.4361 31.2234 49.958 30.9487 49.6188C30.3935 48.9335 30.3935 47.8895 30.9487 47.3659C31.2234 47.1068 31.3274 46.6589 31.2146 46.2192C30.9865 45.3309 31.4233 44.4904 32.157 44.4055C32.5204 44.3634 32.8039 44.0658 32.8835 43.6435C33.0437 42.79 33.8005 42.3782 34.5162 42.7548C34.8701 42.9411 35.2577 42.8735 35.5082 42.5816C36.0139 41.9919 36.8875 42.1191 37.3934 42.8562Z" fill="white" stroke="black" stroke-width="0.497958"/>
<path d="M38.3596 51.6691L38.5585 52.0024L38.215 51.9739L37.3587 51.9029L37.2821 51.8965L37.2374 51.8222L33.756 46.0262L33.5557 45.6924L33.9002 45.721L34.7764 45.7936L34.8534 45.8L34.8981 45.8748L38.3596 51.6691ZM35.8552 51.1209L35.8542 51.1238L35.8529 51.1266C35.7515 51.3572 35.6047 51.5357 35.4148 51.6567C35.2233 51.7785 35.0077 51.8259 34.7738 51.8065C34.536 51.7868 34.3207 51.7041 34.1324 51.5552C33.9429 51.4083 33.7919 51.2136 33.6803 50.9742L33.6796 50.9726C33.5681 50.7267 33.5084 50.4569 33.4999 50.1661C33.4914 49.872 33.5345 49.6067 33.6376 49.3785C33.7387 49.1494 33.8842 48.9719 34.0727 48.851C34.261 48.7217 34.4782 48.672 34.716 48.6917C34.9506 48.7112 35.1649 48.7943 35.3564 48.9424C35.5466 49.0894 35.6979 49.2843 35.8092 49.5241L35.8108 49.5272C35.9181 49.7683 35.9746 50.0377 35.9831 50.3315C35.9915 50.6205 35.9508 50.8854 35.8552 51.1209ZM34.5288 49.8658L34.5265 49.8692C34.4759 49.9442 34.4453 50.0498 34.4498 50.2044C34.4544 50.3571 34.4913 50.4814 34.5565 50.5848C34.6169 50.6757 34.6873 50.7191 34.7761 50.7265C34.8563 50.7332 34.9137 50.7048 34.9636 50.6364C35.0152 50.5549 35.0442 50.4457 35.04 50.2938C35.0354 50.1405 34.9985 50.02 34.9346 49.923C34.8671 49.8215 34.7947 49.7784 34.7138 49.7718C34.6286 49.7647 34.5741 49.7955 34.5288 49.8658ZM38.0219 48.8426L38.02 48.8438C37.8282 48.9659 37.6102 49.0128 37.3724 48.9931C37.1382 48.9736 36.9235 48.8905 36.7321 48.7424C36.5415 48.595 36.3921 48.3996 36.2848 48.1589C36.1732 47.9133 36.1139 47.6437 36.1054 47.3533C36.0966 47.06 36.1396 46.7953 36.2421 46.5675C36.339 46.337 36.4828 46.1586 36.6717 46.0376C36.8599 45.9083 37.0769 45.8586 37.315 45.8783C37.5531 45.8981 37.7698 45.9811 37.9619 46.1295C38.1521 46.2766 38.3031 46.4714 38.4147 46.7112L38.416 46.7143C38.5233 46.9554 38.5798 47.2248 38.5886 47.5187C38.597 47.809 38.5537 48.0752 38.4525 48.3113L38.4515 48.3132C38.3507 48.5423 38.2072 48.7208 38.0219 48.8426ZM37.1607 47.7699C37.2214 47.8617 37.2922 47.9062 37.3816 47.9136C37.4621 47.9203 37.516 47.8916 37.5613 47.8251C37.6132 47.7434 37.6432 47.6336 37.6386 47.4804C37.6341 47.3268 37.5972 47.2063 37.5332 47.1092C37.4716 47.0157 37.4024 46.9736 37.3193 46.9667C37.2315 46.9594 37.176 46.9906 37.132 47.0563L37.1291 47.0605C37.0759 47.135 37.0442 47.2388 37.0488 47.391C37.0531 47.5422 37.0912 47.6658 37.1607 47.7699Z" fill="#EDE4F7" stroke="black" stroke-width="0.497958"/>
<path d="M114.905 36.7952C114.905 38.9417 115.419 40.8742 116.239 42.2634C117.06 43.6534 118.173 44.4811 119.379 44.4811H121.188C122.394 44.4811 123.508 43.6534 124.329 42.2634C125.149 40.8742 125.663 38.9417 125.663 36.7953C125.663 34.6488 125.149 32.7163 124.329 31.3271C123.508 29.9371 122.394 29.1094 121.188 29.1094H119.379C118.173 29.1094 117.06 29.9371 116.239 31.3271C115.419 32.7163 114.905 34.6488 114.905 36.7952Z" fill="#C470BB" stroke="black" stroke-width="0.497958" stroke-linejoin="round"/>
<path d="M116.713 36.7952C116.713 38.9417 117.227 40.8742 118.048 42.2634C118.868 43.6534 119.982 44.4811 121.188 44.4811C122.394 44.4811 123.508 43.6534 124.329 42.2634C125.149 40.8742 125.663 38.9417 125.663 36.7952C125.663 34.6488 125.149 32.7163 124.329 31.3271C123.508 29.9371 122.394 29.1094 121.188 29.1094C119.982 29.1094 118.868 29.9371 118.048 31.3271C117.227 32.7163 116.713 34.6488 116.713 36.7952Z" fill="#EFB3E7" stroke="black" stroke-width="0.497958"/>
<path d="M117.777 36.7947C117.777 38.4308 118.169 39.9037 118.794 40.9626C119.42 42.0221 120.269 42.653 121.188 42.653C122.107 42.653 122.956 42.0221 123.582 40.9626C124.207 39.9038 124.599 38.4308 124.599 36.7947C124.599 35.1587 124.207 33.6857 123.582 32.6269C122.956 31.5674 122.107 30.9365 121.188 30.9365C120.269 30.9365 119.42 31.5674 118.794 32.6269C118.169 33.6857 117.777 35.1587 117.777 36.7947Z" fill="white" stroke="black" stroke-width="0.497958"/>
<path d="M121.607 37.6703C121.599 37.7126 121.604 37.7605 121.621 37.8019L122.474 39.8791C122.497 39.9354 122.54 39.9699 122.581 39.9645C122.617 39.9598 122.646 39.9224 122.657 39.8672L122.81 39.0839C122.818 39.0416 122.813 38.9937 122.796 38.9523L122.325 37.8045C122.305 37.7549 122.299 37.697 122.309 37.6462L122.402 37.1709C122.412 37.12 122.436 37.082 122.47 37.0667L123.235 36.713C123.263 36.7002 123.283 36.6687 123.291 36.6264L123.444 35.8464C123.456 35.7853 123.444 35.7166 123.414 35.6712C123.402 35.6546 123.39 35.6418 123.376 35.6332C123.354 35.6189 123.33 35.6159 123.307 35.6263L121.922 36.2662C121.894 36.279 121.874 36.3105 121.865 36.3528L121.607 37.6703Z" fill="black"/>
<path d="M120.34 33.6983C120.298 33.6973 120.264 33.7365 120.252 33.7976L120.1 34.5778C120.091 34.6201 120.097 34.6684 120.115 34.7105L120.616 35.8767C120.638 35.9273 120.644 35.9856 120.634 36.0364L120.541 36.5118C120.531 36.5626 120.506 36.6 120.471 36.6146L119.676 36.9495C119.648 36.9616 119.627 36.9928 119.618 37.0351L119.465 37.8184C119.454 37.8736 119.465 37.9363 119.492 37.9821C119.524 38.0339 119.571 38.0569 119.61 38.0404L121.049 37.4343C121.077 37.4223 121.098 37.3911 121.107 37.3488L121.365 36.0313C121.373 35.989 121.367 35.9407 121.349 35.8987L120.443 33.7876C120.428 33.7538 120.407 33.7276 120.384 33.7127C120.37 33.7036 120.355 33.6987 120.34 33.6983Z" fill="black"/>
<path d="M111.242 71.4574L111.371 71.3936L111.492 71.476L115.795 74.4227C116.661 75.0154 117.244 76.0535 117.371 77.2297C117.491 78.3347 118.097 79.2811 118.962 79.7152L128.016 84.2587L128.188 84.3449L128.188 84.5662L128.189 86.2489V86.4404L128.05 86.5375L117.819 93.6605L117.676 93.7604L117.533 93.6601L108.625 87.4205C107.617 86.7144 106.859 85.6005 106.489 84.2834C106.158 83.1053 105.475 82.1113 104.569 81.4888L100.999 79.0362L100.858 78.9394V78.7468V76.8319V76.6095L101.031 76.5236L111.242 71.4574Z" fill="#C470BB" stroke="black" stroke-width="0.561073"/>
<path d="M111.21 69.5192L111.351 69.4229L111.491 69.5192L115.694 72.397C116.623 73.0331 117.249 74.147 117.386 75.4087C117.5 76.4638 118.023 77.3955 118.8 77.9275L127.644 83.983L128.066 84.2724L127.644 84.5618L117.634 91.4163L117.493 91.513L117.352 91.4163L109.337 85.928C107.886 84.9344 106.909 83.1949 106.695 81.2239C106.657 80.8777 106.485 80.572 106.23 80.3975L101.2 76.9525L100.777 76.6631L101.2 76.3737L111.21 69.5192Z" fill="white" stroke="black" stroke-width="0.561073"/>
<path d="M113.854 77.2709C113.946 78.1229 114.369 78.8755 114.996 79.3049L121.15 83.5187C121.369 83.6685 121.637 83.6735 121.86 83.5323C122.365 83.2115 122.376 82.358 121.88 82.0187L120.538 81.0994M111.734 74.5676L110.757 73.8983C110.261 73.5589 110.273 72.7054 110.777 72.3847C111 72.2435 111.268 72.2485 111.487 72.3982L114.227 74.2743C114.854 74.7042 115.277 75.4563 115.369 76.3083C115.462 77.1607 115.884 77.9128 116.512 78.3427L117.854 79.2616" stroke="black" stroke-width="0.497958"/>
<path d="M115.849 81.3244L114.03 80.079C113.403 79.6491 112.98 78.897 112.888 78.045C112.795 77.1926 112.373 76.4405 111.745 76.0106L109.005 74.1345C108.787 73.9848 108.518 73.9797 108.296 74.1213C107.791 74.4417 107.779 75.2952 108.275 75.6349L110.23 76.9732C110.857 77.4027 111.28 78.1549 111.372 79.0072C111.465 79.8596 111.887 80.6117 112.515 81.0412L118.668 85.255C118.887 85.4048 119.155 85.4102 119.378 85.2686C119.883 84.9482 119.894 84.0947 119.399 83.755L117.666 82.5687" stroke="black" stroke-width="0.497958"/>
<path d="M109.316 77.7089L106.576 75.8328C106.358 75.6831 106.089 75.678 105.866 75.8192C105.362 76.14 105.35 76.9935 105.846 77.3328L107.801 78.6711C108.428 79.101 108.85 79.8532 108.943 80.7055C109.036 81.5575 109.458 82.31 110.085 82.7395M110.459 79.7429C110.551 80.5952 110.974 81.3474 111.601 81.7772L116.969 85.4533C117.465 85.7926 117.454 86.6461 116.949 86.9669C116.726 87.1081 116.458 87.103 116.239 86.9533L113.162 84.8462L111.624 83.793" stroke="black" stroke-width="0.497958"/>
<path d="M83.2153 41.2363L83.2678 43.3281L79.472 48.1658L78.401 52.6061" stroke="black" stroke-width="0.497958" stroke-linejoin="round"/>
<path d="M83.0181 43.6416C81.9902 46.5277 79.4988 51.4975 78.4543 52.5519" stroke="black" stroke-width="0.497958" stroke-linejoin="round"/>
<path d="M85.842 47.8916C85.4653 49.183 84.7492 51.9221 82.7847 54.6918" stroke="black" stroke-width="0.497958" stroke-linejoin="round"/>
<path d="M89.2004 49.9014C88.088 53.427 85.7598 55.4502 85.7598 55.4502" stroke="black" stroke-width="0.497958" stroke-linejoin="round"/>
<path d="M65.6572 40.8253C68.3361 42.2627 71.3047 38.5129 72.1783 35.8355C73.0467 33.1746 73.5454 27.926 70.3906 26.6701L68.7253 26.0371L68.448 27.1085C67.0185 27.9397 65.6428 29.8217 64.8338 32.3005C64.0786 34.6146 63.9837 36.9383 64.4505 38.6658L63.9798 39.9719L65.6572 40.8253Z" fill="#EFB3E7" stroke="black" stroke-width="0.497958" stroke-linejoin="round"/>
<path d="M62.9572 31.392C62.3269 33.3238 62.1736 35.2517 62.4251 36.8015C62.6773 38.3554 63.3271 39.4906 64.2744 39.9255C65.2217 40.3604 66.3465 40.04 67.4152 39.0925C68.481 38.1475 69.4619 36.5997 70.0925 34.6679C70.7231 32.7361 70.8764 30.8082 70.6249 29.2583C70.3724 27.7045 69.7229 26.5693 68.7756 26.1344C67.8282 25.6994 66.7034 26.0199 65.6347 26.9673C64.5687 27.9124 63.5877 29.4602 62.9572 31.392Z" fill="#C470BB" stroke="black" stroke-width="0.497958"/>
<path d="M63.6951 31.7308C63.1904 33.2767 63.0687 34.8172 63.269 36.0528C63.4703 37.2925 63.9867 38.1865 64.7301 38.5278C65.4736 38.8692 66.3629 38.6205 67.2156 37.8646C68.0651 37.1112 68.8496 35.8749 69.3543 34.329C69.8586 32.7832 69.9806 31.2427 69.78 30.007C69.5787 28.7674 69.0626 27.8734 68.3189 27.532C67.5754 27.1907 66.6861 27.4394 65.8337 28.1952C64.9839 28.9487 64.1997 30.185 63.6951 31.7308Z" fill="#853C81" stroke="black" stroke-width="0.497958"/>
<path d="M69.3544 34.3289C70.1301 31.9526 69.9951 29.6239 69.2118 28.3643C68.5796 28.4916 67.9099 28.9352 67.2923 29.6462C66.6389 30.3989 66.0556 31.4389 65.6521 32.6755C64.8767 35.0517 65.0118 37.3805 65.7947 38.64C66.4269 38.5128 67.0969 38.0692 67.7141 37.3581C68.3676 36.6054 68.9508 35.5654 69.3544 34.3289Z" fill="black" stroke="black" stroke-width="0.497958"/>
<path d="M79.4455 48.2015L82.9128 43.7764C82.1244 46.6151 79.5805 50.8037 78.4075 52.5432L79.4455 48.2015Z" fill="black" stroke="black" stroke-width="0.497958" stroke-linejoin="round"/>
<path d="M52.3101 64.4228L52.3156 64.4185L52.3212 64.4139C52.5048 64.256 52.8033 64.2336 53.1889 64.4994C53.5464 64.7462 53.8798 65.1773 54.1242 65.6829C54.3685 66.1882 54.5146 66.7489 54.5146 67.2426C54.5146 67.7502 54.3633 68.0454 54.1721 68.1677L54.1666 68.1712L54.161 68.1754L53.6055 68.5975L51.7389 64.8364L52.3101 64.4228Z" fill="#EDE4F7" stroke="black" stroke-width="0.497958"/>
<path d="M53.7922 67.7977C53.7922 68.2941 53.6464 68.5893 53.4598 68.717C53.2732 68.8446 52.9852 68.847 52.6224 68.5986C52.2606 68.3509 51.9237 67.9176 51.6767 67.4104C51.4294 66.9027 51.282 66.3398 51.282 65.8446C51.282 65.3481 51.4275 65.0529 51.6141 64.9253C51.8007 64.7972 52.0891 64.7953 52.4515 65.0437C52.8133 65.2913 53.1502 65.7246 53.3975 66.2318C53.6445 66.7395 53.7922 67.302 53.7922 67.7977Z" fill="#C470BB" stroke="black" stroke-width="0.497958"/>
<path d="M53.2788 67.3575C53.2788 67.9108 52.9513 68.1352 52.5471 67.8586C52.1429 67.582 51.8154 66.9091 51.8154 66.3558C51.8154 65.8026 52.1429 65.5782 52.5471 65.8548C52.9513 66.1314 53.2788 66.8043 53.2788 67.3575Z" fill="#EDE4F7" stroke="black" stroke-width="0.497958"/>
<path d="M52.1956 66.6152L52.8989 67.0969" stroke="black" stroke-width="0.497958"/>
<path d="M56.283 67.1845L56.2885 67.1802L56.2941 67.1756C56.4777 67.0177 56.7765 66.9953 57.1621 67.2611C57.5193 67.5076 57.8527 67.939 58.0971 68.4443C58.3414 68.95 58.4875 69.5106 58.4875 70.0043C58.4875 70.5115 58.3365 70.8071 58.1453 70.929L58.1395 70.9329L58.1339 70.9371L57.5784 71.3592L55.7118 67.5981L56.283 67.1845Z" fill="#EDE4F7" stroke="black" stroke-width="0.497958"/>
<path d="M57.7649 70.5591C57.7649 71.0559 57.6194 71.3511 57.4328 71.4788C57.2462 71.6064 56.9578 71.6084 56.5951 71.3604C56.2333 71.1123 55.8963 70.6794 55.6494 70.1718C55.4024 69.6645 55.2546 69.1016 55.2546 68.6063C55.2546 68.1096 55.4001 67.8147 55.5867 67.6867C55.7733 67.559 56.0617 67.557 56.4245 67.8054C56.7859 68.0531 57.1232 68.486 57.3702 68.9936C57.6171 69.5009 57.7649 70.0638 57.7649 70.5591Z" fill="#C470BB" stroke="black" stroke-width="0.497958"/>
<path d="M57.241 70.133C57.241 70.6863 56.9134 70.9107 56.5093 70.6341C56.1054 70.3574 55.7779 69.6846 55.7779 69.1309C55.7779 68.5776 56.1054 68.3536 56.5093 68.6303C56.9134 68.9069 57.241 69.5797 57.241 70.133Z" fill="#EDE4F7" stroke="black" stroke-width="0.497958"/>
<path d="M56.1579 69.3916L56.8616 69.8733" stroke="black" stroke-width="0.497958"/>
<path d="M60.2548 69.7831L60.2607 69.7789L60.2659 69.7742C60.4496 69.6164 60.7484 69.5939 61.134 69.8597C61.4915 70.1062 61.8246 70.5376 62.0689 71.0429C62.3136 71.5486 62.4597 72.1092 62.4597 72.6025C62.4597 73.1102 62.3084 73.4058 62.1172 73.5276L62.1113 73.5315L62.1061 73.5354L61.5502 73.9579L59.6836 70.1967L60.2548 69.7831Z" fill="#EDE4F7" stroke="black" stroke-width="0.497958"/>
<path d="M61.7368 73.1588C61.7368 73.6556 61.5913 73.9504 61.4047 74.0785C61.2181 74.2062 60.9298 74.2081 60.567 73.9597C60.2056 73.7121 59.8682 73.2792 59.6213 72.7715C59.3744 72.2639 59.2266 71.7013 59.2266 71.2061C59.2266 70.7093 59.3724 70.4141 59.559 70.2864C59.7456 70.1587 60.0336 70.1564 60.3964 70.4048C60.7582 70.6524 61.0951 71.0858 61.3421 71.5934C61.589 72.1006 61.7368 72.6636 61.7368 73.1588Z" fill="#C470BB" stroke="black" stroke-width="0.497958"/>
<path d="M61.1655 72.7042C61.1655 73.2575 60.838 73.4819 60.4342 73.2053C60.03 72.9286 59.7024 72.2558 59.7024 71.7025C59.7024 71.1492 60.03 70.9248 60.4342 71.2015C60.838 71.4781 61.1655 72.1509 61.1655 72.7042Z" fill="#EDE4F7" stroke="black" stroke-width="0.497958"/>
<path d="M60.0821 71.9629L60.7854 72.4446" stroke="black" stroke-width="0.497958"/>
<path d="M85.8455 82.7793V87.9774" stroke="black" stroke-width="0.497958" stroke-linejoin="round"/>
<path d="M133.875 78.6094C133.875 80.7559 133.361 82.6886 132.541 84.0776C131.72 85.4677 130.607 86.2953 129.4 86.2953H127.592C126.386 86.2953 125.272 85.4677 124.451 84.0776C123.631 82.6886 123.117 80.7559 123.117 78.6094C123.117 76.4632 123.631 74.5306 124.451 73.1412C125.272 71.7514 126.386 70.9238 127.592 70.9238H129.4C130.607 70.9238 131.72 71.7514 132.541 73.1412C133.361 74.5306 133.875 76.4632 133.875 78.6094Z" fill="#FF1800" stroke="black" stroke-width="0.497958" stroke-linejoin="round"/>
<path d="M132.066 78.6094C132.066 80.7559 131.552 82.6886 130.732 84.0776C129.911 85.4677 128.798 86.2953 127.592 86.2953C126.385 86.2953 125.272 85.4677 124.451 84.0776C123.631 82.6886 123.117 80.7559 123.117 78.6094C123.117 76.4632 123.631 74.5306 124.451 73.1412C125.272 71.7514 126.385 70.9238 127.592 70.9238C128.798 70.9238 129.911 71.7514 130.732 73.1412C131.552 74.5306 132.066 76.4632 132.066 78.6094Z" fill="#FF4D00" stroke="black" stroke-width="0.497958"/>
<path d="M131.003 78.6082C131.003 80.244 130.611 81.717 129.986 82.776C129.36 83.8353 128.511 84.4664 127.592 84.4664C126.673 84.4664 125.824 83.8353 125.198 82.776C124.573 81.717 124.181 80.244 124.181 78.6082C124.181 76.9719 124.573 75.499 125.198 74.44C125.824 73.3807 126.673 72.75 127.592 72.75C128.511 72.75 129.36 73.3807 129.986 74.44C130.611 75.499 131.003 76.9719 131.003 78.6082Z" fill="#FF1800" stroke="black" stroke-width="0.497958"/>
<path d="M127.175 79.4686C127.183 79.51 127.179 79.5572 127.162 79.5978L126.324 81.638C126.301 81.6933 126.259 81.727 126.219 81.7215C126.184 81.7169 126.155 81.6801 126.145 81.626L125.994 80.8568C125.986 80.8154 125.991 80.7682 126.008 80.7276L126.471 79.6005C126.491 79.5518 126.496 79.4949 126.487 79.445L126.395 78.978C126.386 78.9281 126.361 78.8909 126.328 78.8758L125.577 78.5284C125.55 78.516 125.53 78.485 125.521 78.4433L125.371 77.6776C125.36 77.6172 125.371 77.5499 125.401 77.5054C125.413 77.4891 125.425 77.4764 125.438 77.4679C125.46 77.4539 125.484 77.4508 125.506 77.4613L126.867 78.0896C126.894 78.1024 126.914 78.1333 126.922 78.1747L127.175 79.4686Z" fill="#FFF3F3"/>
<path d="M128.42 75.5684C128.461 75.5672 128.494 75.6059 128.506 75.6659L128.656 76.432C128.664 76.4738 128.658 76.521 128.641 76.5624L128.149 77.7076C128.128 77.7575 128.121 77.8148 128.131 77.8647L128.222 78.3313C128.232 78.3812 128.257 78.418 128.291 78.4323L129.071 78.7612C129.1 78.7732 129.12 78.8037 129.128 78.8451L129.279 79.6147C129.29 79.6689 129.279 79.7304 129.252 79.7753C129.221 79.8263 129.175 79.8488 129.137 79.8325L127.724 79.2375C127.696 79.2255 127.675 79.1949 127.667 79.1535L127.413 77.8597C127.405 77.8179 127.411 77.7707 127.429 77.7293L128.319 75.6558C128.333 75.623 128.354 75.597 128.377 75.5823C128.39 75.5734 128.405 75.5688 128.42 75.5684Z" fill="#FFF3F3"/>
<path d="M66.0458 75.4785L66.4124 76.1885C66.5615 76.4771 66.8851 76.5564 67.1187 76.3614C67.3699 76.1517 67.7202 76.262 67.8507 76.592L68.0641 77.131C68.2112 77.5028 68.633 77.5709 68.8581 77.2591C69.0962 76.9294 69.5454 77.0273 69.6694 77.4355L70.0736 78.7672C70.1828 79.1275 70.5668 79.2381 70.8033 78.9777C71.0255 78.7328 71.3836 78.8133 71.5151 79.1375L71.8221 79.8951C71.9692 80.2576 72.3463 80.3926 72.6379 80.1872C72.9283 79.9829 73.3041 80.116 73.4522 80.4758L73.6081 80.8538C73.7768 81.2628 74.2028 81.4145 74.5333 81.1839C74.8344 80.9742 75.2213 81.0794 75.4147 81.4238L75.6799 81.8958C75.89 82.2691 76.2449 82.4936 76.6233 82.4936C76.9838 82.4936 77.3241 82.6982 77.5358 83.0445L77.8147 83.5011C78.0176 83.8326 78.4061 83.9124 78.6909 83.6806C79.0321 83.4032 79.5025 83.5788 79.6477 84.0385L80.0718 85.3795" stroke="#FF1800" stroke-width="0.497958"/>
<path d="M80.8731 90.5075C83.3223 92.1844 85.372 91.2457 85.8926 88.4639C86.4133 91.2457 88.4629 92.1844 90.9121 90.5075L89.0249 91.9704L87.5991 92.9439L85.9428 93.2441L84.4328 92.9439L83.0353 92.042L80.8731 90.5075Z" fill="black"/>
<path d="M101.989 66.9398L109.025 52.1704L92.3304 42.4551L71.4799 46.2816L65.9346 60.2491L65.8952 60.3476L66.005 60.4228L81.1439 70.7658L101.989 66.9398Z" fill="white" stroke="black" stroke-width="0.497958"/>
<path d="M94.3749 60.541C95.8217 59.4677 97.0898 57.8078 97.0583 55.7794C97.0162 52.778 94.1487 50.2943 90.2078 49.4644C87.9665 48.9839 85.4305 49.0775 83.1734 49.7764C76.3018 51.8919 75.318 57.9074 80.1848 60.9779C84.1677 63.5675 90.5656 63.3804 94.3696 60.5472L94.3749 60.541Z" fill="#CDD9F0"/>
<path d="M97.2061 58.7783C97.9516 57.5277 98.2331 56.0801 97.911 54.6456C97.5895 53.214 96.6747 51.8289 95.0834 50.6787C92.9882 49.1441 90.122 48.3837 87.2445 48.397C84.3664 48.4105 81.4523 49.198 79.2612 50.7909L97.2061 58.7783ZM97.2061 58.7783C95.6101 61.452 92.2166 63.0669 88.6183 63.4701C85.0145 63.874 81.1372 63.0719 78.5386 60.8204M78.5386 60.8204C76.8746 59.3947 76.0589 57.5993 76.1771 55.7771C76.2951 53.9592 77.3384 52.1866 79.2612 50.7909L78.5386 60.8204ZM97.7403 46.3064L97.7377 46.3052C91.1155 42.9727 81.678 43.2534 75.2799 47.2889C71.4771 49.6896 69.5686 52.9016 69.5063 56.0598C69.4441 59.2142 71.2223 62.4172 74.9856 64.8064C78.3924 66.9659 82.7882 68.0125 87.1913 67.9387C91.5536 67.8654 95.9052 66.6935 99.2913 64.4362V64.4309L99.3853 64.3669C103.438 61.6004 105.035 58.0649 104.651 54.773C104.265 51.4678 101.871 48.2996 97.7403 46.3064Z" fill="#CCC2D6"/>
<path d="M97.2061 58.7783C97.9516 57.5277 98.2331 56.0801 97.911 54.6456C97.5895 53.214 96.6747 51.8289 95.0834 50.6787C92.9882 49.1441 90.122 48.3837 87.2445 48.397C84.3664 48.4105 81.4523 49.198 79.2612 50.7909M97.2061 58.7783L79.2612 50.7909M97.2061 58.7783C95.6101 61.452 92.2166 63.0669 88.6183 63.4701C85.0145 63.874 81.1372 63.0719 78.5386 60.8204M97.2061 58.7783L78.5386 60.8204M79.2612 50.7909C77.3384 52.1866 76.2951 53.9592 76.1771 55.7771C76.0589 57.5993 76.8746 59.3947 78.5386 60.8204M79.2612 50.7909L78.5386 60.8204M97.7403 46.3064L97.7377 46.3052C91.1155 42.9727 81.678 43.2534 75.2799 47.2889C71.4771 49.6896 69.5686 52.9016 69.5063 56.0598C69.4441 59.2142 71.2223 62.4172 74.9856 64.8064C78.3924 66.9659 82.7882 68.0125 87.1913 67.9387C91.5536 67.8654 95.9052 66.6935 99.2913 64.4362V64.4309L99.3853 64.3669C103.438 61.6004 105.035 58.0649 104.651 54.773C104.265 51.4678 101.871 48.2996 97.7403 46.3064Z" stroke="black" stroke-width="0.497958"/>
<path d="M98.1831 61.1826L98.1844 61.1848C101.14 59.2742 102.771 56.8188 102.985 54.3595C103.198 51.9112 102.013 49.3619 99.148 47.2376C96.3074 45.1292 92.3612 43.8879 88.2191 43.6901C84.0782 43.4923 79.76 44.3384 76.1782 46.382C74.1286 47.5418 72.3165 49.1708 71.3069 51.062C70.3047 52.9394 70.0902 55.0749 71.2225 57.3125C72.0911 59.0271 73.6241 60.5128 75.5971 61.6799C77.5684 62.8461 79.9666 63.6869 82.5474 64.1193C87.7121 64.985 93.5786 64.2113 98.1831 61.1826ZM79.808 61.7381C76.4611 60.0867 74.6963 57.4588 74.4977 54.7212C74.2989 51.9827 75.6739 49.2263 78.439 47.3375C80.8233 45.6878 83.9225 44.869 86.9905 44.8737C90.058 44.8785 93.1154 45.7065 95.4145 47.3774C97.5853 48.9363 98.8167 51.0919 98.9952 53.342C99.174 55.5957 98.2925 57.8921 96.3275 59.7168C94.3818 61.5474 91.568 62.6994 88.5922 63.0732C85.6147 63.4465 82.4544 63.0433 79.808 61.7381Z" fill="#FF1800" stroke="black" stroke-width="0.497958"/>
<path d="M94.3749 60.541C95.8217 59.4677 97.0898 57.8078 97.0583 55.7794C97.0162 52.778 94.1487 50.2943 90.2078 49.4644C87.9665 48.9839 85.4305 49.0775 83.1734 49.7764C76.3018 51.8919 75.318 57.9074 80.1848 60.9779C84.1677 63.5675 90.5656 63.3804 94.3696 60.5472L94.3749 60.541Z" fill="#000404"/>
<path d="M87.3311 62.572C89.8714 62.4946 92.3785 61.7423 94.243 60.345L94.2483 60.3384L94.2663 60.325C95.6931 59.2544 96.8923 57.6354 96.8625 55.7003C96.8427 54.2707 96.1579 52.9404 94.9721 51.8543C93.7866 50.7685 92.1145 49.9418 90.1663 49.5268C87.9514 49.0465 85.4427 49.1401 83.2128 49.8385C79.8072 50.8991 77.9209 52.9186 77.4496 54.9848C76.9835 57.0288 77.8792 59.2361 80.2651 60.7587L80.2673 60.7601C82.2227 62.0462 84.7829 62.6493 87.3311 62.572Z" fill="#EDE4F7" stroke="black" stroke-width="0.497958"/>
<path d="M94.6425 54.0894L94.6453 54.2786C94.5925 55.5748 93.8104 56.7983 92.4986 57.733C91.128 58.7093 89.212 59.3431 87.0766 59.3862C84.9383 59.4293 83.0041 58.8756 81.6059 57.9561C80.2028 57.0334 79.3733 55.769 79.3539 54.4001C79.3393 53.4625 79.7056 52.5612 80.3826 51.7687C81.0605 50.9752 82.0422 50.3008 83.2301 49.8281C85.3985 48.9566 87.9984 48.888 90.16 49.5212L94.6425 54.0894ZM94.6425 54.0894C94.6279 53.0881 94.1831 52.1468 93.3961 51.3497L94.6425 54.0894ZM93.3961 51.3497C92.6087 50.5522 91.4889 49.9114 90.16 49.5212L93.3961 51.3497Z" fill="#CCC2D6"/>
<path d="M94.6425 54.0894L94.6453 54.2786C94.5925 55.5748 93.8104 56.7983 92.4986 57.733C91.128 58.7093 89.212 59.3431 87.0766 59.3862C84.9383 59.4293 83.0041 58.8756 81.6059 57.9561C80.2028 57.0334 79.3733 55.769 79.3539 54.4001C79.3393 53.4625 79.7056 52.5612 80.3826 51.7687C81.0605 50.9752 82.0422 50.3008 83.2301 49.8281C85.3985 48.9566 87.9984 48.888 90.16 49.5212M94.6425 54.0894L90.16 49.5212M94.6425 54.0894C94.6279 53.0881 94.1831 52.1468 93.3961 51.3497M94.6425 54.0894L93.3961 51.3497M90.16 49.5212C91.4889 49.9114 92.6087 50.5522 93.3961 51.3497M90.16 49.5212L93.3961 51.3497" stroke="black" stroke-width="0.497958"/>
<g opacity="0.57">
<path d="M99.6206 47.1542C98.7735 46.5926 98.1684 46.2993 97.8211 46.0996C95.9007 46.4428 94.7538 47.616 94.2539 50.3805C94.5117 50.5302 94.7538 50.6925 94.9852 50.8609C95.1378 49.8313 95.5167 48.4958 96.2059 47.8407C97.0899 46.9732 98.8524 46.7799 99.6206 47.148V47.1542Z" fill="#BBCCEB"/>
</g>
<path d="M78.5063 61.4201C78.7443 61.3694 78.9678 61.3335 79.1584 61.3076C78.9636 61.1676 78.7775 61.0228 78.5996 60.873C77.8777 60.9837 76.9627 61.2276 76.3884 61.6641C75.6312 62.2503 74.9232 63.4391 74.4501 64.4502C74.6132 64.5595 74.8108 64.6879 74.9785 64.795C75.1096 64.5039 75.2921 64.1089 75.5135 63.7053C75.7884 63.204 76.132 62.6734 76.524 62.3076C77.0374 61.8174 77.8468 61.56 78.5063 61.4201Z" fill="#EDE4F7" stroke="black" stroke-width="0.497958"/>
<path d="M99.5092 64.2987C99.6732 64.1822 99.8485 64.0524 99.9995 63.9356C99.802 62.869 99.439 61.829 98.8389 61.0317C98.1637 60.1305 97.4321 59.8007 96.4064 59.7704C96.3711 59.7696 96.3382 59.7678 96.3133 59.767C96.3016 59.766 96.2916 59.7656 96.2841 59.7656C96.2758 59.7652 96.2695 59.7652 96.2648 59.7646C96.2583 59.771 96.2483 59.7807 96.2337 59.7949L96.2284 59.8003C96.144 59.8847 95.992 60.0362 95.6349 60.31C96.3399 60.2407 97.1773 60.3269 97.7973 60.7935C98.8017 61.5504 99.2478 63.0085 99.5092 64.2987Z" fill="#EDE4F7" stroke="black" stroke-width="0.497958"/>
<path d="M77.003 47.4237C78.2284 48.1292 78.9611 49.5573 79.2577 50.8001C79.4527 50.6649 79.6911 50.5065 79.8799 50.3868C79.5802 49.3634 79.1623 48.487 78.4089 47.696C77.7826 47.0357 76.98 46.5415 76.1336 46.4043C75.8546 46.5649 75.5823 46.7311 75.3192 46.9031C75.8961 46.9164 76.4538 47.1065 77.003 47.4237Z" fill="#EDE4F7" stroke="black" stroke-width="0.497958"/>
<path d="M91.6648 46.0126C91.8218 45.8956 92.0036 45.9091 92.1412 46.0113C92.2777 46.1127 92.3679 46.2968 92.3679 46.5125V53.6701C92.3679 53.8689 92.2881 54.0627 92.1434 54.1703C90.6256 55.307 89.5815 56.0919 88.8615 56.6332C88.3392 57.0256 87.9875 57.29 87.7494 57.4674C87.47 57.6758 87.3383 57.7709 87.2699 57.8122C87.2398 57.8305 87.192 57.8581 87.1349 57.8591C87.12 57.8594 87.1073 57.8576 87.0974 57.8559C87.0951 57.8553 87.0931 57.8549 87.0913 57.8545C86.8265 57.8465 86.637 57.5701 86.637 57.2705V50.1132C86.637 49.9143 86.7168 49.7205 86.8615 49.613C86.8616 49.6129 86.8613 49.6131 86.8615 49.613L91.6648 46.0126ZM91.4355 47.5397L87.5642 50.4415V56.2372L91.4355 53.3355V47.5397Z" fill="white"/>
<path fill-rule="evenodd" clip-rule="evenodd" d="M86.8615 49.613C86.7168 49.7205 86.637 49.9143 86.637 50.1132V57.2705C86.637 57.5701 86.8265 57.8465 87.0913 57.8545C87.0913 57.8545 87.0951 57.8553 87.0974 57.8559C87.1073 57.8576 87.12 57.8594 87.1349 57.8591C87.192 57.8581 87.2398 57.8305 87.2699 57.8122C87.3383 57.7709 87.47 57.6758 87.7494 57.4674C87.9875 57.29 88.3392 57.0256 88.8615 56.6332C89.5815 56.0919 90.6256 55.307 92.1434 54.1703C92.2881 54.0627 92.3679 53.8689 92.3679 53.6701V46.5125C92.3679 46.2968 92.2777 46.1127 92.1412 46.0113C92.0036 45.9091 91.8218 45.8956 91.6648 46.0126L86.8615 49.613ZM91.4355 47.5397L87.5642 50.4415V56.2372L91.4355 53.3355V47.5397Z" stroke="black" stroke-width="0.497958"/>
<path d="M81.8907 53.3929L81.8919 53.3903L86.6956 42.632C86.8103 42.375 87.0341 42.2887 87.2275 42.3558C87.4183 42.422 87.5693 42.6322 87.5693 42.9169V50.0746C87.5693 50.2733 87.4897 50.4672 87.3451 50.5747C85.965 51.6083 84.9762 52.351 84.2664 52.884C83.6291 53.3627 83.2168 53.6724 82.9482 53.8721C82.6679 54.0805 82.5355 54.1757 82.4663 54.2171C82.4357 54.2355 82.388 54.2626 82.3314 54.2636C82.3166 54.2638 82.3039 54.2622 82.2941 54.2604C82.2918 54.26 82.2877 54.2592 82.2877 54.2592C82.1055 54.2538 81.9646 54.1237 81.8922 53.9604C81.8188 53.7947 81.8088 53.5825 81.8907 53.3929ZM86.637 45.1592L83.5576 52.0551L86.637 49.7463V45.1592Z" fill="white" stroke="black" stroke-width="0.497958"/>
<path d="M82.5412 46.0105L87.3445 49.6108C87.3447 49.611 87.3444 49.6107 87.3445 49.6108C87.4892 49.7183 87.5693 49.9125 87.5693 50.1114V57.2687C87.5693 57.5683 87.3798 57.8447 87.115 57.8527C87.1131 57.8531 87.1109 57.8535 87.1086 57.8541C87.0987 57.8559 87.0861 57.8576 87.0713 57.8573C87.0147 57.8563 86.967 57.8292 86.9362 57.811C86.8672 57.7692 86.735 57.674 86.4551 57.4656C86.1891 57.2679 85.7819 56.9616 85.1547 56.4901C84.4445 55.9559 83.4522 55.2101 82.063 54.1684C81.9183 54.0609 81.8386 53.867 81.8386 53.6683V46.5107C81.8386 46.295 81.9287 46.1109 82.0652 46.0095C82.2029 45.9073 82.3843 45.8935 82.5412 46.0105ZM82.7657 47.538V53.3337L86.637 56.2354V50.4397L82.7657 47.538Z" fill="white"/>
<path fill-rule="evenodd" clip-rule="evenodd" d="M87.3445 49.6108L82.5412 46.0105C82.3843 45.8935 82.2029 45.9073 82.0652 46.0095C81.9287 46.1109 81.8386 46.295 81.8386 46.5107V53.6683C81.8386 53.867 81.9183 54.0609 82.063 54.1684C83.4522 55.2101 84.4445 55.9559 85.1547 56.4901C85.7819 56.9616 86.1891 57.2679 86.4551 57.4656C86.735 57.674 86.8672 57.7692 86.9362 57.811C86.967 57.8292 87.0147 57.8563 87.0713 57.8573C87.0861 57.8576 87.0987 57.8559 87.1086 57.8541C87.1109 57.8535 87.115 57.8527 87.115 57.8527C87.3798 57.8447 87.5693 57.5683 87.5693 57.2687V50.1114C87.5693 49.9125 87.4892 49.7183 87.3445 49.6108ZM82.7657 47.538V53.3337L86.637 56.2354V50.4397L82.7657 47.538Z" stroke="black" stroke-width="0.497958"/>
<path d="M92.3099 53.4038L92.311 53.4062C92.3926 53.5951 92.3722 53.8109 92.2945 53.9737C92.2152 54.1399 92.0647 54.2745 91.8687 54.2745H91.8462L91.8278 54.2691L91.8218 54.2684C91.8157 54.2674 91.8076 54.2661 91.798 54.2635C91.7601 54.2537 91.7272 54.2338 91.6974 54.2143C91.6349 54.1735 91.5107 54.0823 91.2349 53.876C91.0447 53.7335 90.7789 53.5337 90.4065 53.2538C89.6915 52.7165 88.5834 51.8837 86.8617 50.5941L86.8586 50.5918L86.8556 50.5893C86.7212 50.4797 86.6375 50.2993 86.6375 50.0942V42.9178C86.6375 42.6315 86.7876 42.4195 86.9805 42.3539C87.1748 42.2879 87.3973 42.3775 87.5114 42.6328L92.3099 53.4038ZM87.5699 49.7596L90.6501 52.069L87.5699 45.1613V49.7596Z" fill="white" stroke="black" stroke-width="0.497958"/>
<path d="M86.6892 56.9868L86.6904 56.9842L91.4941 46.2257C91.6088 45.9687 91.8325 45.8825 92.026 45.9496C92.2168 46.0157 92.3679 46.2261 92.3679 46.5108V53.6683C92.3679 53.8671 92.2881 54.061 92.1434 54.1685C90.6256 55.3055 89.5815 56.0905 88.8615 56.6313C88.3392 57.0241 87.9875 57.2881 87.7494 57.4659C87.47 57.6739 87.3383 57.7694 87.2699 57.8103C87.2398 57.8286 87.192 57.8561 87.1349 57.8575C87.12 57.8575 87.1073 57.8561 87.0974 57.8544L87.092 57.853C86.9085 57.8504 86.7664 57.7179 86.6933 57.5553C86.6193 57.3908 86.6065 57.178 86.6892 56.9868ZM91.4355 48.7467L88.3561 55.6425L91.4355 53.3338V48.7467Z" fill="white" stroke="black" stroke-width="0.497958"/>
<path d="M82.063 53.1699L86.8655 49.6137C87.0249 49.4909 87.2081 49.5094 87.3445 49.6132C87.479 49.7157 87.5693 49.9 87.5693 50.113V57.2706C87.5693 57.5697 87.3761 57.855 87.0924 57.855H87.089L87.0856 57.8545C87.0861 57.8545 87.0855 57.8545 87.0856 57.8545C87.0795 57.8545 87.0411 57.855 87.0015 57.8429C86.9621 57.8305 86.923 57.8092 86.8801 57.7821C86.7935 57.727 86.6413 57.6167 86.346 57.3963C86.0905 57.2056 85.7227 56.9288 85.1888 56.5266C84.4807 55.9933 83.4804 55.24 82.0626 54.176C81.7562 53.944 81.7636 53.3931 82.063 53.1699ZM83.2092 53.6649L86.637 56.2368V51.1254L83.2092 53.6649Z" fill="white"/>
<path fill-rule="evenodd" clip-rule="evenodd" d="M87.0856 57.8545L87.089 57.855H87.0924C87.3761 57.855 87.5693 57.5697 87.5693 57.2706V50.113C87.5693 49.9 87.479 49.7157 87.3445 49.6132C87.2081 49.5094 87.0249 49.4909 86.8655 49.6137L82.063 53.1699C81.7636 53.3931 81.7562 53.944 82.0626 54.176C83.4804 55.24 84.4807 55.9933 85.1888 56.5266C85.7227 56.9288 86.0905 57.2056 86.346 57.3963C86.6413 57.6167 86.7935 57.727 86.8801 57.7821C86.923 57.8092 86.9621 57.8305 87.0015 57.8429C87.0411 57.855 87.0795 57.8545 87.0856 57.8545ZM83.2092 53.6649L86.637 56.2368V51.1254L83.2092 53.6649Z" stroke="black" stroke-width="0.497958"/>
<path d="M92.1765 47.1049C91.0804 47.9273 90.2299 48.5666 89.5701 49.0625C88.6533 49.7516 88.1033 50.165 87.769 50.4121C87.4858 50.6213 87.3473 50.7191 87.2702 50.7623C87.2303 50.7845 87.1849 50.8054 87.1322 50.8067C87.1128 50.8073 87.0956 50.8047 87.088 50.8036C87.0804 50.8048 87.0634 50.8073 87.0443 50.8069C86.9913 50.8056 86.9459 50.7844 86.9065 50.7624C86.8303 50.7195 86.6931 50.6224 86.4119 50.4143C86.1054 50.1875 85.6155 49.8193 84.8235 49.2241C84.1409 48.7112 83.2338 48.0295 82.0263 47.1243C81.6636 46.8497 81.6629 46.1875 82.0256 45.9129L86.8295 42.3121C86.8296 42.312 86.8293 42.3122 86.8295 42.3121C87.0065 42.1786 87.227 42.1785 87.404 42.3119L92.1759 45.8936C92.5386 46.1682 92.5392 46.8304 92.1765 47.1049ZM83.4083 46.5245L87.0879 49.2819L90.7991 46.4996L87.1195 43.7422L83.4083 46.5245Z" fill="white"/>
<path fill-rule="evenodd" clip-rule="evenodd" d="M86.8295 42.3121L82.0256 45.9129C81.6629 46.1875 81.6636 46.8497 82.0263 47.1243C83.2338 48.0295 84.1409 48.7112 84.8235 49.2241C85.6155 49.8193 86.1054 50.1875 86.4119 50.4143C86.6931 50.6224 86.8303 50.7195 86.9065 50.7624C86.9459 50.7844 86.9913 50.8056 87.0443 50.8069C87.0634 50.8073 87.0804 50.8048 87.088 50.8036C87.0956 50.8047 87.1128 50.8073 87.1322 50.8067C87.1849 50.8054 87.2303 50.7845 87.2702 50.7623C87.3473 50.7191 87.4858 50.6213 87.769 50.4121C88.1033 50.165 88.6533 49.7516 89.5701 49.0625C90.2299 48.5666 91.0804 47.9273 92.1765 47.1049C92.5392 46.8304 92.5386 46.1682 92.1759 45.8936L87.404 42.3119M86.8295 42.3121C87.0065 42.1786 87.227 42.1785 87.404 42.3119ZM83.4083 46.5245L87.0879 49.2819L90.7991 46.4996L87.1195 43.7422L83.4083 46.5245Z" stroke="black" stroke-width="0.497958"/>
<path d="M82.063 46.1112L86.8655 42.5551C87.0249 42.4323 87.2081 42.4507 87.3445 42.5547C87.479 42.6571 87.5693 42.8415 87.5693 43.0544V50.212C87.5693 50.3594 87.5272 50.4916 87.4455 50.5959C87.3689 50.6938 87.2675 50.7546 87.1615 50.7915C87.0352 50.8443 86.912 50.7848 86.7901 50.7102C86.6531 50.6262 86.4457 50.4735 86.1161 50.2218C85.9213 50.0731 85.6821 49.8883 85.3858 49.6597C84.669 49.1063 83.6191 48.296 82.0619 47.1169C81.7556 46.8849 81.7636 46.3345 82.063 46.1112ZM83.2092 46.6126L86.637 49.1845V44.073L83.2092 46.6126Z" fill="white" stroke="black" stroke-width="0.497958"/>
<path d="M91.6648 38.8358C91.8218 38.7188 92.0036 38.7324 92.1412 38.8346C92.2777 38.936 92.3679 39.1201 92.3679 39.3357V46.4933C92.3679 46.692 92.2881 46.8859 92.1435 46.9934C90.755 48.0345 89.763 48.7803 89.0529 49.3142C88.425 49.7863 88.0176 50.0926 87.7513 50.2907C87.4715 50.4991 87.3392 50.5944 87.2701 50.6359C87.2395 50.6541 87.1918 50.6814 87.1351 50.6823C87.1203 50.6825 87.1077 50.6809 87.0978 50.6792C87.0955 50.6787 87.0934 50.6783 87.0914 50.678C86.8266 50.67 86.637 50.3934 86.637 50.094V42.9363C86.637 42.7376 86.7168 42.5437 86.8615 42.4362C86.8616 42.4362 86.8613 42.4363 86.8615 42.4362L91.6648 38.8358ZM91.4355 40.363L87.5642 43.2648V49.0604L91.4355 46.1587V40.363Z" fill="#EDE4F7"/>
<path fill-rule="evenodd" clip-rule="evenodd" d="M86.8615 42.4362C86.7168 42.5437 86.637 42.7376 86.637 42.9363V50.094C86.637 50.3934 86.8266 50.67 87.0914 50.678C87.0914 50.678 87.0955 50.6787 87.0978 50.6792C87.1077 50.6809 87.1203 50.6825 87.1351 50.6823C87.1918 50.6814 87.2395 50.6541 87.2701 50.6359C87.3392 50.5944 87.4715 50.4991 87.7513 50.2907C88.0176 50.0926 88.425 49.7863 89.0529 49.3142C89.763 48.7803 90.755 48.0345 92.1435 46.9934C92.2881 46.8859 92.3679 46.692 92.3679 46.4933V39.3357C92.3679 39.1201 92.2777 38.936 92.1412 38.8346C92.0036 38.7324 91.8218 38.7188 91.6648 38.8358L86.8615 42.4362ZM91.4355 40.363L87.5642 43.2648V49.0604L91.4355 46.1587V40.363Z" stroke="black" stroke-width="0.497958"/>
<path d="M81.8907 46.2221L81.8919 46.2194L86.6956 35.4612C86.8103 35.204 87.0341 35.1179 87.2275 35.1849C87.4183 35.2511 87.5693 35.4614 87.5693 35.7461V42.9037C87.5693 43.1025 87.4897 43.2963 87.3451 43.4038C85.9652 44.4374 84.9764 45.18 84.2667 45.713C83.6292 46.1917 83.2168 46.5015 82.9482 46.7013C82.6679 46.9096 82.5355 47.0049 82.4663 47.0462C82.4357 47.0647 82.388 47.0917 82.3314 47.0927C82.3166 47.0929 82.3039 47.0914 82.2941 47.0896C82.2918 47.0892 82.2877 47.0883 82.2877 47.0883C82.1055 47.083 81.9646 46.9528 81.8922 46.7896C81.8188 46.6238 81.8088 46.4116 81.8907 46.2221ZM86.637 37.9821L83.5576 44.878L86.637 42.5691V37.9821Z" fill="#EDE4F7" stroke="black" stroke-width="0.497958"/>
<path d="M82.5412 38.8349L87.3445 42.4352C87.3447 42.4353 87.3444 42.4352 87.3445 42.4352C87.4892 42.5427 87.5693 42.7369 87.5693 42.9356V50.0933C87.5693 50.3927 87.3798 50.6693 87.115 50.6773C87.1131 50.6777 87.1109 50.6781 87.1086 50.6785C87.0987 50.6802 87.0861 50.6818 87.0713 50.6816C87.0147 50.6806 86.967 50.6535 86.9362 50.6351C86.8672 50.5937 86.735 50.4984 86.4551 50.2901C86.1891 50.0921 85.7819 49.786 85.1547 49.3143C84.4445 48.7805 83.4522 48.0344 82.063 46.9927C81.9183 46.8852 81.8386 46.6913 81.8386 46.4926V39.335C81.8386 39.1212 81.9296 38.9382 82.0643 38.8369C82.2006 38.7344 82.3825 38.7166 82.5412 38.8349ZM82.7657 40.3623V46.158L86.637 49.0597V43.264L82.7657 40.3623Z" fill="white"/>
<path fill-rule="evenodd" clip-rule="evenodd" d="M87.3445 42.4352L82.5412 38.8349C82.3825 38.7166 82.2006 38.7344 82.0643 38.8369C81.9296 38.9382 81.8386 39.1212 81.8386 39.335V46.4926C81.8386 46.6913 81.9183 46.8852 82.063 46.9927C83.4522 48.0344 84.4445 48.7805 85.1547 49.3143C85.7819 49.786 86.1891 50.0921 86.4551 50.2901C86.735 50.4984 86.8672 50.5937 86.9362 50.6351C86.967 50.6535 87.0147 50.6806 87.0713 50.6816C87.0861 50.6818 87.0987 50.6802 87.1086 50.6785C87.1109 50.6781 87.115 50.6773 87.115 50.6773C87.3798 50.6693 87.5693 50.3927 87.5693 50.0933V42.9356C87.5693 42.7369 87.4892 42.5427 87.3445 42.4352ZM82.7657 40.3623V46.158L86.637 49.0597V43.264L82.7657 40.3623Z" stroke="black" stroke-width="0.497958"/>
<path d="M92.3097 46.227L92.3108 46.2295C92.3928 46.419 92.3827 46.6312 92.3092 46.7971C92.2377 46.9584 92.0992 47.0873 91.9203 47.0955C91.918 47.0961 91.9156 47.0965 91.9127 47.097C91.9029 47.0988 91.8902 47.1004 91.8754 47.1001C91.8188 47.0991 91.7711 47.0721 91.7405 47.0537C91.6713 47.0123 91.5389 46.917 91.2587 46.7087C90.9901 46.509 90.5781 46.1995 89.9414 45.7213C89.2315 45.1882 88.2423 44.4453 86.8616 43.4111L86.8585 43.4088L86.8555 43.4062C86.721 43.2967 86.6374 43.1163 86.6374 42.9112V35.741C86.6374 35.4547 86.7876 35.2427 86.9804 35.1772C87.1747 35.1112 87.3972 35.2006 87.5112 35.4561L92.3097 46.227ZM87.5699 42.5828L90.65 44.8923L87.5699 37.9844V42.5828Z" fill="#EDE4F7" stroke="black" stroke-width="0.497958"/>
<path d="M86.6892 49.9417L86.6904 49.9391L91.4941 39.1809C91.6088 38.9239 91.8325 38.8376 92.026 38.9046C92.2168 38.9708 92.3679 39.1811 92.3679 39.4658V46.6235C92.3679 46.8221 92.2881 47.016 92.1435 47.1235C90.7551 48.1646 89.7631 48.9103 89.053 49.4443C88.4251 49.9163 88.0176 50.2228 87.7513 50.4209C87.4715 50.6292 87.3392 50.7245 87.2701 50.7659C87.2395 50.7843 87.1918 50.8114 87.1351 50.8124C87.1203 50.8126 87.1077 50.811 87.0978 50.8093C87.0958 50.8089 87.0921 50.8082 87.0921 50.8082C86.9086 50.8054 86.7664 50.6729 86.6933 50.5104C86.6193 50.346 86.6065 50.1332 86.6892 49.9417ZM91.4355 41.7018L88.3561 48.5976L91.4355 46.2889V41.7018Z" fill="white" stroke="black" stroke-width="0.497958"/>
<path d="M87.1299 43.6307C87.108 43.631 87.0887 43.6276 87.0837 43.6266H86.9006V43.5759C86.8233 43.5314 86.6857 43.4337 86.41 43.2294C86.1169 43.0124 85.6569 42.6667 84.9267 42.1181C84.2331 41.5971 83.2958 40.8927 82.0264 39.9416C81.6637 39.667 81.6629 39.0048 82.0256 38.7303L86.8295 35.1294C86.8296 35.1294 86.8294 35.1296 86.8295 35.1294C87.0065 34.996 87.227 34.9959 87.404 35.1293C87.4041 35.1293 87.404 35.1292 87.404 35.1293L92.1759 38.7111C92.5386 38.9857 92.5392 39.6478 92.1765 39.9224C90.9029 40.878 89.961 41.5868 89.264 42.1112C88.5233 42.6685 88.0584 43.0183 87.7634 43.2371C87.4813 43.4463 87.3442 43.5436 87.2685 43.5864C87.2295 43.6083 87.1837 43.6299 87.1299 43.6307ZM83.4083 39.3482L87.0879 42.1056L90.7991 39.3233L87.1195 36.5658L83.4083 39.3482Z" fill="#EDE4F7"/>
<path fill-rule="evenodd" clip-rule="evenodd" d="M86.8295 35.1294L82.0256 38.7303C81.6629 39.0048 81.6629 39.6665 82.0256 39.9411C83.295 40.8922 84.2331 41.5971 84.9267 42.1181C85.6569 42.6667 86.1169 43.0124 86.41 43.2294C86.6857 43.4337 86.8233 43.5314 86.9006 43.5759V43.6266H87.0837C87.0887 43.6276 87.108 43.631 87.1299 43.6307C87.1837 43.6299 87.2295 43.6083 87.2685 43.5864C87.3442 43.5436 87.4813 43.4463 87.7634 43.2371C88.0584 43.0183 88.5233 42.6685 89.264 42.1112C89.961 41.5868 90.9029 40.878 92.1765 39.9224C92.5392 39.6478 92.5386 38.9857 92.1759 38.7111L87.404 35.1293M86.8295 35.1294C87.0065 34.996 87.227 34.9959 87.404 35.1293ZM83.4083 39.3482L87.0879 42.1056L90.7991 39.3233L87.1195 36.5658L83.4083 39.3482Z" stroke="black" stroke-width="0.497958"/>
<path d="M77.7897 39.051C72.6313 26.0608 77.1398 14.9826 82.6383 11.7457L82.6377 11.7429C85.4067 10.1169 89.0312 10.4911 92.5297 12.6466C96.0318 14.8042 99.4276 18.7563 101.761 24.3364C104.095 29.9146 104.758 35.5006 104.153 40.1013C103.548 44.6976 101.672 48.3364 98.904 49.9636C96.1498 51.5826 91.9906 51.6682 87.9715 49.9541C83.9459 48.2373 80.0367 44.7059 77.7897 39.051Z" fill="black" stroke="black" stroke-width="0.497958"/>
<path d="M82.801 12.1462L82.8092 12.1413L82.6428 11.7432L82.6342 11.7482M82.6342 11.7482C81.4114 12.4692 80.3557 13.5621 79.5033 14.946C75.8594 19.8332 73.9196 28.7842 77.9591 38.9565C79.8585 43.7367 82.9583 46.9838 86.3067 48.8881C88.2447 49.9903 90.0478 50.3153 92.0871 50.3755C92.3433 50.4615 92.5986 50.5376 92.8523 50.6036L92.8925 50.3866V50.1644C92.629 50.1644 92.3703 50.1613 92.1156 50.154C87.6273 48.6357 82.8098 44.0045 79.8112 36.8348C76.2115 28.2186 76.711 19.8702 79.6458 15.0914C80.6056 13.8044 81.6834 12.8057 82.7971 12.1485M82.6342 11.7482C77.1374 14.988 72.6323 26.0641 77.7896 39.0512C79.7094 43.8826 82.843 47.1646 86.2256 49.0884C88.451 50.354 90.5 50.6088 92.8925 50.6088L92.9326 50.1696C88.2975 48.9642 83.1311 44.2726 79.979 36.7361C77.6805 31.2343 77.0693 25.8537 77.6936 21.4652C78.3181 17.0757 80.174 13.6973 82.7971 12.1485" fill="#CCC2D6"/>
<path d="M82.6342 11.7482L82.6428 11.7432L82.8092 12.1413L82.801 12.1462L82.6342 11.7482ZM82.6342 11.7482C81.4114 12.4692 80.3557 13.5621 79.5033 14.946C75.8594 19.8332 73.9196 28.7842 77.9591 38.9565C79.8585 43.7367 82.9583 46.9838 86.3067 48.8881C88.2447 49.9903 90.0478 50.3153 92.0871 50.3754C92.3433 50.4615 92.5986 50.5376 92.8523 50.6036L92.8925 50.3866V50.1644C92.629 50.1644 92.3703 50.1613 92.1156 50.154C87.6273 48.6357 82.8098 44.0045 79.8112 36.8348C76.2115 28.2186 76.711 19.8702 79.6458 15.0914C80.6056 13.8044 81.6834 12.8057 82.7971 12.1485C80.174 13.6973 78.3181 17.0757 77.6936 21.4652C77.0693 25.8537 77.6805 31.2343 79.979 36.7361C83.1311 44.2726 88.2975 48.9642 92.9326 50.1696L92.8925 50.6088C90.5 50.6088 88.451 50.354 86.2256 49.0884C82.843 47.1646 79.7094 43.8826 77.7896 39.0512C72.6323 26.0641 77.1374 14.988 82.6342 11.7482Z" stroke="black" stroke-width="0.497958"/>
<path d="M77.3253 21.384C77.9653 16.8962 79.8759 13.3721 82.6383 11.7457L82.6377 11.7429C85.4067 10.1169 89.0312 10.4911 92.5297 12.6466C96.0318 14.8042 99.4276 18.7563 101.761 24.3364C104.095 29.9146 104.758 35.5006 104.153 40.1013C103.548 44.6976 101.672 48.3364 98.904 49.9636C96.1341 51.5919 92.4734 51.1036 88.9429 48.8399C85.4076 46.5732 81.9771 42.5129 79.6434 36.9333C77.3131 31.3552 76.6846 25.8772 77.3253 21.384Z" fill="#EDE4F7" stroke="black" stroke-width="0.497958"/>
<path d="M83.4842 11.4043L86.9733 29.3768L89.7594 36.1002L98.3992 49.9898" stroke="black" stroke-width="0.497958"/>
<path d="M101.819 24.8457L89.0187 31.9012L79.7682 36.8309" stroke="black" stroke-width="0.497958"/>
<path d="M86.5048 28.4486C87.0916 28.1056 87.7969 28.2986 88.4367 28.8027C89.0813 29.3105 89.6965 30.1576 90.1394 31.2208C90.5858 32.2799 90.7826 33.372 90.7333 34.2876C90.6845 35.1967 90.3873 35.9791 89.8012 36.3267L89.8002 36.3272C89.2135 36.6703 88.5091 36.4768 87.8692 35.9727C87.2246 35.4648 86.6094 34.6178 86.1665 33.5546C85.7202 32.4955 85.5234 31.4033 85.5726 30.4877C85.6215 29.5787 85.9186 28.7963 86.5048 28.4486Z" fill="white" stroke="black" stroke-width="0.497958"/>
<path d="M86.9039 29.4027C87.3628 29.1344 87.9073 29.2889 88.391 29.6699C88.8793 30.0546 89.3428 30.6939 89.6758 31.4932C90.0113 32.2895 90.1604 33.113 90.1231 33.8068C90.0861 34.4939 89.8606 35.1011 89.4023 35.3729L89.4014 35.3734C88.9426 35.6416 88.3988 35.4867 87.9153 35.1057C87.427 34.721 86.9635 34.0817 86.6306 33.2823C86.2949 32.486 86.1459 31.6624 86.1832 30.9688C86.2202 30.2817 86.4457 29.6745 86.9039 29.4027Z" fill="white" stroke="black" stroke-width="0.497958"/>
<path d="M87.3886 32.7275C87.2362 32.3694 87.1875 31.9455 87.2175 31.5852C87.2325 31.4043 87.2681 31.2302 87.3264 31.0832C87.3836 30.9385 87.4708 30.8006 87.5983 30.7249C87.6856 30.6732 88.2301 30.4168 88.9833 30.0781C89.7438 29.7361 90.732 29.3036 91.7193 28.8963C92.7055 28.4895 93.6946 28.1062 94.4553 27.8641C94.8345 27.7434 95.164 27.6554 95.4104 27.6184C95.5323 27.6 95.6447 27.5924 95.7365 27.6044C95.7824 27.6104 95.8328 27.6224 95.8796 27.6475C95.9271 27.6732 95.9822 27.7188 96.0154 27.7978C96.0482 27.8752 96.0469 27.9537 96.0363 28.0141C96.0259 28.0734 96.0048 28.1284 95.9818 28.1757C95.9362 28.2704 95.8655 28.3725 95.7822 28.477C95.6136 28.6883 95.3629 28.9474 95.0614 29.2336C94.4564 29.8076 93.6243 30.5125 92.7779 31.2006C91.9306 31.8893 91.0657 32.5636 90.3935 33.0772C90.0574 33.334 89.7692 33.5508 89.5551 33.7093C89.3464 33.8637 89.1978 33.9706 89.1496 33.9992C88.7753 34.2213 88.3826 34.017 88.091 33.7471C87.7913 33.4696 87.5338 33.0684 87.3886 32.7275Z" fill="white" stroke="black" stroke-width="0.497958"/>
<path d="M95.7431 29.4601C94.9825 29.4601 94.3614 28.7311 94.3614 27.8214C94.3614 26.9187 94.982 26.1826 95.7431 26.1826C96.5042 26.1826 97.1248 26.9187 97.1248 27.8214C97.1248 28.7242 96.5042 29.4601 95.7431 29.4601Z" fill="white" stroke="black" stroke-width="0.497958"/>
</svg>
