<svg width="169" height="100" viewBox="0 0 169 100" fill="none" xmlns="http://www.w3.org/2000/svg">
<g id="Laboratory">
<g id="Group 2035875681">
<path id="Vector 3996" d="M66.7346 18.5566L99.5907 8.39062L121.046 61.6223L105.398 82.3484L121.896 88.0011C122.642 88.2565 122.656 89.3054 121.919 89.5819L98.9564 98.1896C96.4473 99.1301 93.6883 99.1631 91.1575 98.2829L69.7039 90.8212C66.7277 89.786 65.5612 86.1962 67.3604 83.6093L76.1342 70.9941C78.3906 67.7498 78.8662 63.5889 77.4 59.9191L63.5449 25.2396C62.4535 22.5079 63.9244 19.4261 66.7346 18.5566Z" fill="#B7B8D4" stroke="black" stroke-width="0.705936"/>
<g id="Vector 3997">
<path d="M81.7027 67.5685L102.12 65.3994H118.197L104.854 82.9084L113.696 85.876L86.0081 94.9771L70.7155 89.8898C68.2451 89.068 67.2479 86.1104 68.7164 83.9606L78.679 69.3756C79.3733 68.3592 80.4787 67.6986 81.7027 67.5685Z" fill="black"/>
<path d="M86.0081 94.9771L70.7155 89.8898C68.2451 89.068 67.2479 86.1104 68.7164 83.9606L78.679 69.3756C79.3733 68.3592 80.4787 67.6986 81.7027 67.5685L102.12 65.3994H118.197L104.854 82.9084L113.696 85.876L86.0081 94.9771ZM86.0081 94.9771L91.3194 96.7644" stroke="black" stroke-width="0.705936"/>
</g>
<g id="Group 2035875529">
<g id="Group 2035875464">
<path id="Union" d="M62.8892 17.9393L62.8892 17.9393L88.9754 84.3977C89.9628 86.9133 92.9198 88.1968 95.5601 87.3056L122.862 78.0914L122.863 78.0911L122.888 78.0825L122.889 78.0822L125.737 77.121C128.377 76.2299 129.753 73.4843 128.765 70.9686L102.686 4.52622C102.684 4.5209 102.682 4.51559 102.68 4.5103C101.692 1.9947 98.7353 0.711296 96.095 1.60241L93.2494 2.56279L93.2489 2.56297L93.2203 2.57253L93.2192 2.57288L65.9177 11.7871C63.2773 12.6782 61.9018 15.4237 62.8892 17.9393Z" fill="black" stroke="black" stroke-width="0.705936" stroke-linejoin="round"/>
<path id="0 1" d="M92.5576 83.1892C92.4864 83.0077 92.2789 82.9112 92.0942 82.9735L89.1813 83.9566C88.9966 84.0189 88.9046 84.2166 88.9759 84.398C89.9648 86.9176 92.9509 88.1867 95.6195 87.286L98.5324 86.3029C98.7171 86.2406 98.8091 86.043 98.7379 85.8615C98.6666 85.68 98.4592 85.5835 98.2745 85.6458C95.9382 86.4343 93.3903 85.3106 92.5576 83.1892Z" fill="white" stroke="black" stroke-width="0.705936" stroke-linejoin="round"/>
<path id="6 7" d="M66.2655 17.172C66.4502 17.1097 66.5422 16.912 66.4709 16.7306C65.6383 14.6092 66.8111 12.2297 69.1474 11.4412C69.3321 11.3789 69.4241 11.1813 69.3528 10.9998C69.2816 10.8184 69.0741 10.7218 68.8894 10.7841L65.9766 11.7672C63.3079 12.6679 61.9002 15.4199 62.8892 17.9394C62.9604 18.1209 63.1679 18.2174 63.3526 18.1551L66.2655 17.172Z" fill="white" stroke="black" stroke-width="0.705936" stroke-linejoin="round"/>
</g>
<path id="Rectangle 34627067" d="M68.0728 11.0598C65.8373 11.8143 64.724 14.2063 65.586 16.4025L92.1067 83.9678C92.9688 86.1641 95.4798 87.3328 97.7153 86.5784L127.012 76.6907C129.248 75.9362 130.361 73.5442 129.499 71.348L102.978 3.7827C102.116 1.58647 99.6052 0.417695 97.3698 1.17216L68.0728 11.0598Z" fill="#B7B8D4" stroke="black" stroke-width="0.705936"/>
<g id="Ellipse 6995">
<mask id="path-8-inside-1_878_7174" fill="white">
<ellipse cx="0.593135" cy="0.559823" rx="0.593135" ry="0.559823" transform="matrix(0.947493 -0.319777 0.36538 0.930859 80.5852 8.69141)"/>
</mask>
<ellipse cx="0.593135" cy="0.559823" rx="0.593135" ry="0.559823" transform="matrix(0.947493 -0.319777 0.36538 0.930859 80.5852 8.69141)" fill="black"/>
<path d="M81.2449 9.05892C81.2251 9.00867 81.2331 8.96213 81.2471 8.93428C81.2607 8.90728 81.2813 8.89259 81.2984 8.88684L81.8142 10.2011C82.4571 9.98414 82.8519 9.29343 82.5826 8.60744L81.2449 9.05892ZM81.2984 8.88684C81.3154 8.8811 81.3414 8.88003 81.3705 8.89262C81.4006 8.90561 81.4389 8.93653 81.4586 8.98678L80.1209 9.43826C80.3901 10.1243 81.1714 10.4181 81.8142 10.2011L81.2984 8.88684ZM81.4586 8.98678C81.4783 9.03703 81.4704 9.08357 81.4564 9.11142C81.4428 9.13842 81.4222 9.15312 81.4051 9.15886L80.8893 7.84461C80.2464 8.06156 79.8516 8.75227 80.1209 9.43826L81.4586 8.98678ZM81.4051 9.15886C81.3881 9.16461 81.3621 9.16567 81.333 9.15308C81.3029 9.14009 81.2646 9.10918 81.2449 9.05892L82.5826 8.60744C82.3133 7.92144 81.5321 7.62765 80.8893 7.84461L81.4051 9.15886Z" fill="black" mask="url(#path-8-inside-1_878_7174)"/>
</g>
<rect id="Rectangle 34627068" x="0.350199" y="0.163001" width="3.74567" height="0.533485" rx="0.266742" transform="matrix(0.947493 -0.319777 0.36538 0.930859 82.0475 8.30783)" fill="black" stroke="black" stroke-width="0.533485"/>
<path id="Subtract" d="M75.3237 10.5213C75.1697 10.3242 74.9044 10.2435 74.6706 10.3224L70.5444 11.715C67.8048 12.6396 66.6176 15.0003 67.6147 17.5407L92.8725 81.8885C93.8696 84.4289 96.4156 85.5297 99.1551 84.6051L124.54 76.0376C127.28 75.113 128.467 72.7523 127.47 70.2119L102.083 5.5355C101.176 3.22384 98.6964 2.21372 96.284 3.02791L91.8038 4.53996C91.57 4.61887 91.4228 4.83887 91.4414 5.08158L91.5722 6.78752C91.6199 7.41047 91.2165 7.98728 90.5836 8.20088L78.1431 12.3995C77.5103 12.6131 76.8013 12.4117 76.4061 11.906L75.3237 10.5213Z" fill="white"/>
<rect id="Rectangle 34627094" width="28.3583" height="33.658" rx="4.4163" transform="matrix(0.947493 -0.319777 0.36538 0.930859 75.4985 26.4746)" fill="#EDE4F7"/>
<g id="Intersect">
<path fill-rule="evenodd" clip-rule="evenodd" d="M106.908 28.9755L113.052 44.6274C113.943 46.8979 112.792 49.3707 110.481 50.1506L91.9809 56.3945C89.6699 57.1744 87.074 55.9662 86.1828 53.6958L83.3253 46.4158C83.9554 44.6418 84.9105 43.1682 87.409 44.0158C91.2633 45.3234 92.611 42.7802 93.0314 39.4979C93.5007 35.834 93.9672 32.1919 98.6383 35.8623C102.706 39.0586 103.295 35.726 103.841 32.6375C104.189 30.6738 104.518 28.8087 105.714 28.7837C106.096 28.7823 106.496 28.8485 106.908 28.9755Z" fill="#FF292C"/>
<path d="M106.908 28.9755L107.243 28.8627L107.178 28.698L107.005 28.6448L106.908 28.9755ZM86.1828 53.6958L86.5173 53.5829L86.1828 53.6958ZM83.3253 46.4158L82.9859 46.2919L82.9441 46.4095L82.9909 46.5286L83.3253 46.4158ZM87.409 44.0158L87.3019 44.3433L87.409 44.0158ZM93.0314 39.4979L93.3872 39.5532L93.0314 39.4979ZM98.6383 35.8623L98.4189 36.1289L98.6383 35.8623ZM103.841 32.6375L103.488 32.5666L103.488 32.5666L103.841 32.6375ZM105.714 28.7837L105.699 28.4362L105.693 28.4364L105.714 28.7837ZM106.574 29.0884L112.718 44.7403L113.387 44.5146L107.243 28.8627L106.574 29.0884ZM112.718 44.7403C113.538 46.8293 112.479 49.1044 110.352 49.8221L110.61 50.4792C113.106 49.6369 114.349 46.9665 113.387 44.5146L112.718 44.7403ZM110.352 49.8221L91.8519 56.0659L92.1098 56.7231L110.61 50.4792L110.352 49.8221ZM91.8519 56.0659C89.7256 56.7835 87.3372 55.6719 86.5173 53.5829L85.8484 53.8086C86.8108 56.2605 89.6141 57.5653 92.1098 56.7231L91.8519 56.0659ZM86.5173 53.5829L83.6597 46.3029L82.9909 46.5286L85.8484 53.8086L86.5173 53.5829ZM87.5161 43.6884C86.179 43.2348 85.1815 43.3855 84.4374 43.9575C83.7255 44.5047 83.3036 45.3975 82.9859 46.2919L83.6647 46.5397C83.9771 45.6601 84.3478 44.9291 84.8956 44.508C85.4112 44.1116 86.1405 43.9493 87.3019 44.3433L87.5161 43.6884ZM92.6757 39.4425C92.4675 41.0682 92.0359 42.4314 91.2446 43.2331C90.8567 43.626 90.38 43.8867 89.7845 43.9801C89.1838 44.0743 88.4395 44.0016 87.5161 43.6884L87.3019 44.3433C88.3057 44.6838 89.1752 44.7836 89.9244 44.6661C90.6787 44.5478 91.2879 44.2127 91.7713 43.723C92.7225 42.7594 93.175 41.2099 93.3872 39.5532L92.6757 39.4425ZM98.8577 35.5956C97.674 34.6655 96.7078 34.1574 95.9052 34.0243C95.4967 33.9565 95.1261 33.9852 94.7955 34.1088C94.4658 34.2321 94.197 34.4419 93.9772 34.7052C93.5458 35.2221 93.2839 35.9698 93.0985 36.7809C92.9115 37.599 92.7925 38.5306 92.6757 39.4425L93.3872 39.5532C93.505 38.6332 93.6203 37.7356 93.7987 36.955C93.9787 36.1675 94.2134 35.547 94.5412 35.1542C94.701 34.9627 94.8773 34.8322 95.075 34.7583C95.2717 34.6847 95.5105 34.6593 95.81 34.709C96.4233 34.8108 97.267 35.2238 98.4189 36.1289L98.8577 35.5956ZM103.488 32.5666C103.351 33.3425 103.214 34.1129 103.024 34.7911C102.832 35.4748 102.596 36.0224 102.285 36.3752C101.991 36.7079 101.632 36.8677 101.129 36.7974C100.591 36.7223 99.8557 36.3798 98.8577 35.5956L98.4189 36.1289C99.4549 36.9429 100.318 37.3825 101.053 37.485C101.821 37.5923 102.406 37.3252 102.837 36.8382C103.249 36.3713 103.517 35.7064 103.716 34.9965C103.917 34.2811 104.059 33.4768 104.195 32.7085L103.488 32.5666ZM105.693 28.4364C104.86 28.4538 104.405 29.1205 104.123 29.8516C103.834 30.6026 103.66 31.5956 103.488 32.5666L104.195 32.7085C104.37 31.7157 104.535 30.7943 104.796 30.1156C105.065 29.4169 105.372 29.1386 105.735 29.131L105.693 28.4364ZM107.005 28.6448C106.562 28.5085 106.125 28.4347 105.699 28.4363L105.729 29.1311C106.067 29.1299 106.429 29.1885 106.812 29.3063L107.005 28.6448Z" fill="black"/>
</g>
<ellipse id="Ellipse 7036" cx="1.32065" cy="1.41134" rx="1.32065" ry="1.41134" transform="matrix(1.00514 -0.103975 0.118041 0.981157 93.8884 33.3125)" fill="black"/>
<path id="Vector 4103" d="M95.6675 35.04L102.7 52.5773" stroke="black" stroke-width="0.705936"/>
<rect id="Rectangle 34627090" width="22.0465" height="5.98174" rx="2.99087" transform="matrix(0.947493 -0.319777 0.36538 0.930859 93.3308 62.3535)" fill="#FF292C"/>
<rect id="Rectangle 34627091" width="0.813344" height="5.66205" rx="0.406672" transform="matrix(0.947493 -0.319777 0.36538 0.930859 69.282 30.5439)" fill="white"/>
<rect id="Rectangle 34627092" width="0.813344" height="5.66205" rx="0.406672" transform="matrix(0.947493 -0.319777 0.36538 0.930859 71.7988 36.9551)" fill="#D9D9D9"/>
<path id="Rectangle 34627093" d="M108.904 82.8026L114.197 81.016L116.063 85.7678C116.217 86.162 116.018 86.5913 115.616 86.7267L112.035 87.9353L111.776 88.0229C111.374 88.1584 110.924 87.9486 110.769 87.5544L108.904 82.8026Z" fill="white" stroke="black" stroke-width="0.705936"/>
</g>
<path id="Vector 3998" d="M113.941 87.7891L114.951 90.0851" stroke="black" stroke-width="0.705936" stroke-linecap="round"/>
</g>
</g>
</svg>
