<svg width="169" height="103" viewBox="0 0 169 103" fill="none" xmlns="http://www.w3.org/2000/svg">
<g id="Build">
<g id="Group-2035875676&#229;&#164;&#135;&#228;&#187;&#189;">
<g id="Group 2035875866">
<g id="Group 2035875595">
<g id="Group 2035875680">
<path id="Vector 4026" d="M124.21 60.5236L121.746 57.489L101.961 67.3643L101.854 72.1755L124.21 60.5236Z" fill="black" stroke="#CCC2D6" stroke-width="0.708306" stroke-linejoin="round"/>
<path id="Vector 4025" d="M124.301 56.3995L121.837 53.365L102.053 63.2403L101.945 68.0514L124.301 56.3995Z" fill="black" stroke="#CCC2D6" stroke-width="0.708306" stroke-linejoin="round"/>
<path id="Vector 4024" d="M124.394 52.276L121.441 48.8071L102.146 59.1167L102.038 63.9278L124.394 52.276Z" fill="black" stroke="#CCC2D6" stroke-width="0.708306" stroke-linejoin="round"/>
<path id="Vector 4022" d="M51.9507 76.9627V44.533C51.9507 44.4803 51.9598 44.428 51.9776 44.3783L52.9923 41.5487C53.0576 41.3666 53.2302 41.2451 53.4237 41.2451H123.513C123.766 41.2451 123.972 41.4503 123.972 41.7034V47.1603C123.972 47.328 123.88 47.4824 123.733 47.5627L102.351 59.2185C102.204 59.2987 102.112 59.4531 102.112 59.6209V70.9796C102.112 71.3208 102.472 71.5424 102.777 71.389L123.307 61.058C123.612 60.9046 123.972 61.1262 123.972 61.4674V76.9504C123.972 77.1185 123.88 77.2731 123.732 77.3532L98.3028 91.1464C98.2357 91.1828 98.1606 91.2019 98.0843 91.2019H75.5469C75.4644 91.2019 75.3833 91.1796 75.3124 91.1373L52.1745 77.3564C52.0357 77.2738 51.9507 77.1242 51.9507 76.9627Z" fill="#EDE4F7" stroke="black" stroke-width="0.708306"/>
<path id="Union" d="M121.602 24.8708L121.602 24.8708C121.448 24.7106 121.235 24.6204 121.013 24.6211L53.9538 24.8491C53.7664 24.8497 53.585 24.9151 53.4403 25.0341L48.447 29.1422L48.672 29.4157L48.447 29.1422C48.2538 29.3012 48.1445 29.5404 48.151 29.7905L48.373 38.4149C48.3757 38.5194 48.3985 38.6223 48.4402 38.7182L51.1957 45.0509C51.3863 45.489 51.9119 45.6688 52.331 45.4393L56.2679 43.2828C56.2997 43.2654 56.3382 43.2658 56.3696 43.2837L73.2999 52.9508C73.3155 52.9596 73.3285 52.9724 73.3377 52.9878L78.2048 61.14C78.3514 61.3856 78.6164 61.536 78.9024 61.536H96.7838C97.0757 61.536 97.3452 61.3794 97.4897 61.1258L102.129 52.9854C102.138 52.9695 102.151 52.9562 102.167 52.947L119.505 42.8558C119.542 42.834 119.589 42.8376 119.623 42.8648L122.706 45.3599C123.052 45.64 123.56 45.5892 123.843 45.246L126.667 41.831C126.791 41.6809 126.857 41.4913 126.853 41.2966L126.63 30.417C126.626 30.213 126.545 30.018 126.404 29.8708L121.602 24.8708Z" fill="#CCC2D6" stroke="black" stroke-width="0.708306"/>
<path id="Vector 4021" d="M121.087 36.3564L125.436 40.8759C125.949 41.4086 126.849 41.0357 126.834 40.2966L126.63 29.9186C126.626 29.7146 126.546 29.5196 126.405 29.3723L122.463 25.2597C121.962 24.7369 121.079 25.0813 121.064 25.8053L120.86 35.7765C120.856 35.9922 120.938 36.2009 121.087 36.3564Z" fill="#FF292C" stroke="black" stroke-width="0.708306"/>
<path id="Vector 4020" d="M48.433 28.8072L48.664 29.0756L48.433 28.8072C48.2482 28.9661 48.1446 29.1996 48.1506 29.4433L48.3572 37.7708C48.372 38.3704 49.0092 38.7478 49.5422 38.4726L54.8182 35.7481C55.1227 35.5908 55.2958 35.2593 55.2508 34.9195L54.0237 25.6563C53.939 25.0164 53.1779 24.7261 52.6885 25.147L48.433 28.8072Z" fill="#FF292C" stroke="black" stroke-width="0.708306"/>
<path id="Rectangle 34627121" d="M98.7534 10.3388L98.6244 10.2579L98.4335 10.2579L76.5421 10.2579L76.3512 10.2579L76.2221 10.3388L53.1135 24.8238L52.9993 24.8954L52.9993 24.9925L52.9993 36.0846L52.9993 36.1864L53.1231 36.2592L76.2317 49.8441L76.3595 49.9192L76.5421 49.9192L98.4335 49.9192L98.6161 49.9192L98.7439 49.8441L121.853 36.2592L121.976 36.1864L121.976 36.0846L121.976 24.9925L121.976 24.8954L121.862 24.8238L98.7534 10.3388Z" fill="white" stroke="black" stroke-width="0.708306"/>
<path id="Rectangle 34627130" d="M95.5431 16.0817L95.414 16.0008L95.2231 16.0008L79.7525 16.0008L79.5616 16.0008L79.4325 16.0817L63.1017 26.3182L62.9875 26.3898L62.9875 26.487L62.9875 34.3258L62.9875 34.4275L63.1113 34.5003L79.4421 44.1008L79.5698 44.1758L79.7525 44.1758L95.2231 44.1758L95.4057 44.1758L95.5335 44.1007L111.864 34.5003L111.988 34.4275L111.988 34.3258L111.988 26.487L111.988 26.3898L111.874 26.3182L95.5431 16.0817Z" fill="#CCC2D6" stroke="black" stroke-width="0.708306"/>
<path id="Intersect" d="M63.2335 30.7431L63.0675 30.8472L63.0675 31.0432L63.0675 34.325L63.0675 34.5276L63.2422 34.6303L79.573 44.2307L79.6561 44.2795H79.7525H95.223H95.3194L95.4025 44.2307L111.733 34.6303L111.908 34.5276V34.325V31.0432V30.8472L111.742 30.7431L95.4112 20.5066L95.3249 20.4525H95.2231L79.7525 20.4525H79.6506L79.5644 20.5066L63.2335 30.7431Z" fill="black" stroke="black" stroke-width="0.708306"/>
<g id="Group 2035875678">
<mask id="mask0_878_7122" style="mask-type:alpha" maskUnits="userSpaceOnUse" x="62" y="20" width="51" height="25">
<path id="Intersect_2" d="M63.2335 30.7431L63.0675 30.8472L63.0675 31.0432L63.0675 34.325L63.0675 34.5276L63.2422 34.6303L79.573 44.2307L79.6561 44.2795H79.7525H95.223H95.3194L95.4025 44.2307L111.733 34.6303L111.908 34.5276V34.325V31.0432V30.8472L111.742 30.7431L95.4112 20.5066L95.3249 20.4525H95.2231L79.7525 20.4525H79.6506L79.5644 20.5066L63.2335 30.7431Z" fill="white" stroke="black" stroke-width="0.708306"/>
</mask>
<g mask="url(#mask0_878_7122)">
<path id="Vector 4115" d="M67.269 35.0457L71.518 33.8094M67.269 35.0457C68.208 37.0901 71.1934 41.8732 75.6238 44.6499M67.269 35.0457L71.1821 38.3161M71.518 33.8094L75.6238 29.863M71.518 33.8094L76.1609 35.5063M75.6238 29.863L81.2572 28.0564M75.6238 29.863H80.8918M81.2572 28.0564L85.8404 24.0625L90.6145 27.1054M81.2572 28.0564L86.1598 29.863M90.6145 27.1054L95.2931 26.1069M90.6145 27.1054L86.1598 29.863M95.2931 26.1069L100.401 27.5808M95.2931 26.1069L90.6145 32.8205M100.401 27.5808L105.271 35.0457M100.401 27.5808L95.6609 32.8205M105.271 35.0457C104.899 36.5027 103.978 38.7808 102.441 40.7671M105.271 35.0457L99.0508 36.7938M75.6238 44.6499C79.289 46.947 84.3761 46.7242 89.3076 45.9662M75.6238 44.6499L76.0986 38.3161M75.6238 44.6499L80.7321 42.8466M86.1598 29.863L90.6145 32.8205M86.1598 29.863H80.8918M90.6145 32.8205H95.6609M90.6145 32.8205L85.8404 35.5063M95.6609 32.8205L90.6145 38.2101M95.6609 32.8205L99.0508 36.7938M102.441 40.7671C101.018 42.6048 99.0673 44.1929 96.5344 44.6499C94.3064 45.0518 91.8273 45.5789 89.3076 45.9662M102.441 40.7671L99.0508 36.7938M85.8404 35.5063L81.0151 38.3161M85.8404 35.5063L80.8918 29.863M85.8404 35.5063L90.6145 38.2101M81.0151 38.3161L80.832 38.2101M81.0151 38.3161H76.1609M71.1821 38.3161L76.1609 35.5063M71.1821 38.3161H76.0986M76.1609 35.5063L80.832 38.2101M76.1609 35.5063L80.8918 29.863M85.8404 41.0432L80.832 38.2101M85.8404 41.0432L89.3076 45.9662M85.8404 41.0432L90.6145 38.2101M85.8404 41.0432L80.7321 42.8466M90.6145 38.2101L94.7897 37.8203M99.0508 36.7938L94.7897 37.8203M94.7897 37.8203L96.5344 44.886M76.0986 38.3161H76.1609M76.1609 38.3161L80.7321 42.8466" stroke="#FF292C" stroke-width="0.708306"/>
<path id="Vector 4116" d="M86.1918 30.0186H80.9238L85.8967 35.307L90.3218 32.9146L86.1918 30.0186Z" fill="#FF292C" stroke="#FF292C" stroke-width="0.708306"/>
<path id="Vector 4117" d="M90.6179 38.2194L95.5109 32.9551L102.118 40.4245L96.4037 44.1237L94.9037 37.8991L90.6179 38.2194Z" fill="#FF292C"/>
</g>
</g>
<path id="Vector 4019" d="M76.5715 49.599H75.8566L76.2898 50.1677L81.2144 56.6328C81.3681 56.8345 81.6071 56.9529 81.8607 56.9529H94.4873C94.7751 56.9529 95.0415 56.8006 95.1875 56.5526L98.9662 50.1328L99.2804 49.599H98.661H76.5715Z" fill="#FF292C" stroke="black" stroke-width="0.708306"/>
<ellipse id="Ellipse 7047" cx="118.397" cy="72.706" rx="2.11846" ry="2.85445" fill="black"/>
<path id="Vector 4028" d="M54.4819 50.062V77.8544C54.4819 78.1737 54.6481 78.4701 54.9206 78.6366L73.336 89.8908C73.9468 90.2641 74.7306 89.8245 74.7306 89.1087V61.2011C74.7306 61.0382 74.6873 60.8783 74.605 60.7378L71.6306 55.6598C71.5511 55.5239 71.4378 55.4109 71.3018 55.3315L58.5911 47.9107C58.3243 47.755 57.9969 47.7441 57.7203 47.8818L54.99 49.2414C54.6787 49.3964 54.4819 49.7142 54.4819 50.062Z" fill="white" stroke="black" stroke-width="0.708306"/>
<path id="Rectangle 34627122" d="M78.5363 61.5358H97.1563V90.8474H78.5363V61.5358Z" fill="#CCC2D6" stroke="black" stroke-width="0.708306"/>
<g id="Group 2035875587">
<g id="Group 2035875582">
<path id="Ellipse 9" d="M62.031 55.4759L62.0429 55.4687L62.0542 55.4605C62.7037 54.9918 63.7145 54.9594 64.9494 55.6744C66.0952 56.3378 67.1526 57.4906 67.9243 58.8311C68.696 60.1715 69.163 61.6664 69.163 62.9937C69.163 64.3565 68.6775 65.2042 68.0044 65.565L67.9926 65.5714L67.9813 65.5786L66.0959 66.7813L60.1061 56.6466L62.031 55.4759Z" fill="white" stroke="black" stroke-width="0.708306"/>
<path id="Ellipse 10" d="M66.915 64.4443C66.915 65.7784 66.4476 66.6221 65.7928 66.9986C65.1375 67.3754 64.1689 67.3566 63.0079 66.689C61.8489 66.0226 60.7798 64.8649 59.9997 63.5193C59.2196 62.1736 58.7477 60.673 58.7477 59.3409C58.7477 58.0067 59.2151 57.1631 59.8699 56.7866C60.5252 56.4098 61.4938 56.4286 62.6548 57.0962C63.8138 57.7626 64.8829 58.9202 65.663 60.2659C66.4431 61.6116 66.915 63.1121 66.915 64.4443Z" fill="white" stroke="black" stroke-width="0.708306"/>
</g>
<g id="Group 2035875583">
<path id="Ellipse 9_2" d="M59.417 59.4547L59.4289 59.4474L59.4402 59.4393C59.8026 59.1778 60.395 59.1384 61.164 59.5837C61.8769 59.9964 62.5422 60.719 63.0302 61.5666C63.5182 62.4142 63.8096 63.3536 63.8096 64.1795C63.8096 65.0285 63.5084 65.519 63.1316 65.721L63.1198 65.7273L63.1084 65.7345L62.0067 66.4373L58.2863 60.1424L59.417 59.4547Z" fill="white" stroke="black" stroke-width="0.708306"/>
<path id="Ellipse 10_2" d="M62.3645 65.1119C62.3645 65.9427 62.0745 66.4327 61.7066 66.6443C61.3381 66.8562 60.7657 66.8612 60.0423 66.4453C59.321 66.0305 58.6482 65.3047 58.1549 64.4538C57.6616 63.6029 57.3671 62.66 57.3671 61.8312C57.3671 61.0003 57.6571 60.5104 58.0251 60.2988C58.3936 60.0869 58.9659 60.0819 59.6893 60.4978C60.4106 60.9126 61.0834 61.6383 61.5767 62.4892C62.07 63.3402 62.3645 64.2831 62.3645 65.1119Z" fill="#FF292C" stroke="black" stroke-width="0.708306"/>
<path id="Vector 4032" d="M61.3851 62.3281L59.3142 63.4739" stroke="black" stroke-width="0.708306"/>
</g>
</g>
<g id="Group 2035875586">
<g id="Group 2035875584">
<path id="Ellipse 9_3" d="M62.031 69.223L62.0429 69.2157L62.0542 69.2076C62.7037 68.7389 63.7145 68.7065 64.9494 69.4215C66.0952 70.0849 67.1526 71.2376 67.9243 72.5781C68.696 73.9186 69.163 75.4135 69.163 76.7408C69.163 78.1035 68.6775 78.9513 68.0044 79.3121L67.9926 79.3185L67.9813 79.3257L66.0959 80.5284L60.1061 70.3937L62.031 69.223Z" fill="white" stroke="black" stroke-width="0.708306"/>
<path id="Ellipse 10_3" d="M66.915 78.1914C66.915 79.5255 66.4476 80.3691 65.7928 80.7456C65.1375 81.1224 64.1689 81.1036 63.0079 80.4361C61.8489 79.7696 60.7798 78.612 59.9997 77.2664C59.2196 75.9207 58.7477 74.4201 58.7477 73.0879C58.7477 71.7538 59.2151 70.9102 59.8699 70.5337C60.5252 70.1569 61.4938 70.1757 62.6548 70.8433C63.8138 71.5097 64.8829 72.6673 65.663 74.0129C66.4431 75.3587 66.915 76.8592 66.915 78.1914Z" fill="white" stroke="black" stroke-width="0.708306"/>
</g>
<g id="Group 2035875585">
<path id="Ellipse 9_4" d="M59.417 73.2027L59.4289 73.1955L59.4402 73.1873C59.8026 72.9259 60.395 72.8864 61.164 73.3317C61.8769 73.7444 62.5422 74.467 63.0302 75.3146C63.5182 76.1622 63.8096 77.1016 63.8096 77.9275C63.8096 78.7765 63.5084 79.267 63.1316 79.469L63.1198 79.4754L63.1084 79.4826L62.0067 80.1854L58.2863 73.8904L59.417 73.2027Z" fill="white" stroke="black" stroke-width="0.708306"/>
<path id="Ellipse 10_4" d="M62.3645 78.86C62.3645 79.6908 62.0745 80.1808 61.7066 80.3923C61.3381 80.6042 60.7657 80.6093 60.0423 80.1933C59.321 79.7786 58.6482 79.0528 58.1549 78.2019C57.6616 77.3509 57.3671 76.408 57.3671 75.5792C57.3671 74.7484 57.6571 74.2584 58.0251 74.0468C58.3936 73.8349 58.9659 73.8299 59.6893 74.2458C60.4106 74.6606 61.0834 75.3864 61.5767 76.2373C62.07 77.0882 62.3645 78.0311 62.3645 78.86Z" fill="#FF292C" stroke="black" stroke-width="0.708306"/>
<path id="Vector 4032_2" d="M61.3851 76.0762L59.3142 77.222" stroke="black" stroke-width="0.708306"/>
</g>
</g>
<g id="Group 102">
<path id="Ellipse 11" d="M111.371 71.052L111.355 71.043L111.341 71.0326C110.711 70.5781 109.729 70.5452 108.526 71.2417C107.41 71.8879 106.379 73.0111 105.627 74.3178C104.875 75.6244 104.42 77.0812 104.42 78.3741C104.42 79.7016 104.893 80.5248 105.545 80.8747L105.556 80.8803L105.566 80.8865L106.599 81.5321L112.431 71.6649L111.371 71.052Z" fill="white" stroke="black" stroke-width="0.708306"/>
<path id="Ellipse 12" d="M105.814 79.2614C105.814 80.561 106.269 81.3803 106.904 81.7455C107.54 82.111 108.481 82.0938 109.612 81.4435C110.741 80.7944 111.783 79.6664 112.543 78.3547C113.304 77.0429 113.763 75.5807 113.763 74.2831C113.763 72.9835 113.308 72.1641 112.673 71.7989C112.037 71.4335 111.096 71.4506 109.965 72.1009C108.836 72.7501 107.794 73.878 107.034 75.1897C106.273 76.5015 105.814 77.9638 105.814 79.2614Z" fill="#CCC2D6" stroke="black" stroke-width="0.708306"/>
<path id="Ellipse 10_5" d="M108.313 77.6913C108.313 78.6065 108.958 78.9791 109.757 78.5202C110.555 78.0613 111.2 76.9465 111.2 76.0314C111.2 75.1162 110.555 74.7436 109.757 75.2025C108.958 75.6614 108.313 76.7762 108.313 77.6913Z" fill="#FF292C" stroke="black" stroke-width="0.708306"/>
<path id="Ellipse 16" d="M113.576 78.81L109.762 76.6373C109.717 76.6663 109.659 76.7244 109.611 76.8077C109.563 76.8913 109.542 76.9708 109.539 77.0249L113.146 79.0377C113.593 79.2876 113.871 79.7601 113.871 80.2728V81.8908L114.2 81.8749V79.8841C114.2 79.4399 113.962 79.0298 113.576 78.81Z" fill="white" stroke="black" stroke-width="0.708306"/>
<path id="Ellipse 13" d="M114.996 81.2489L114.981 81.2402L114.967 81.2301C114.899 81.1807 114.734 81.1341 114.442 81.3034C114.172 81.4596 113.908 81.742 113.71 82.0853C113.513 82.4286 113.401 82.7995 113.401 83.1124C113.401 83.4356 113.513 83.5606 113.587 83.6001L113.587 83.5999L113.599 83.6067L119.671 87.1629L121.073 84.7908L114.996 81.2489Z" fill="white" stroke="black" stroke-width="0.708306"/>
<path id="Ellipse 14" d="M119.792 86.8604C119.792 87.1762 119.901 87.3043 119.975 87.3471C120.05 87.3903 120.217 87.4197 120.493 87.2613C120.766 87.104 121.033 86.8201 121.233 86.4755C121.433 86.1308 121.546 85.7585 121.546 85.4447C121.546 85.1288 121.438 85.0008 121.363 84.9579C121.288 84.9148 121.121 84.8854 120.846 85.0438C120.572 85.2011 120.305 85.485 120.105 85.8296C119.905 86.1743 119.792 86.5466 119.792 86.8604Z" fill="white" stroke="black" stroke-width="0.708306"/>
</g>
</g>
</g>
</g>
</g>
</g>
</svg>
