<svg width="35" height="39" viewBox="0 0 35 39" xmlns="http://www.w3.org/2000/svg">
<g id="Group 2035876086">
<path id="Vector 4110" d="M12.293 10.4264L13.7027 7L14.6157 10.107C16.2422 15.6415 20.5063 20.0098 26 21.7692L24.4146 22.6193C19.1854 25.423 15.471 30.4039 14.2754 36.2157L13.7027 39L11.3042 33.1701C9.66764 29.1923 6.79224 25.848 3.10468 23.6336L0 21.7692C5.56949 19.9855 10.0679 15.8348 12.293 10.4264Z"/>
<path id="Vector 4111" d="M29.1634 1.59335L29.7973 0L30.2137 1.46515C30.883 3.82059 32.6755 5.69168 35 6.46154C32.3602 7.92519 30.4982 10.4764 29.9093 13.4369L29.7973 14L29.3333 12.8338C28.283 10.1939 26.4137 7.96039 24 6.46154C26.3558 5.68132 28.246 3.89921 29.1634 1.59335Z"/>
</g>
</svg>
