<svg width="20" height="20" viewBox="0 0 20 20" fill="none" xmlns="http://www.w3.org/2000/svg">
<g id="tag">
<g id="Group 1437253054">
<path id="Vector" d="M17.1457 8.64099L15.5748 7.0701V4.64021C15.5739 4.31827 15.4456 4.0098 15.2179 3.78216C14.9903 3.55452 14.6818 3.42621 14.3599 3.42526H11.93L10.3591 1.85437C10.1307 1.6274 9.82189 1.5 9.49995 1.5C9.17802 1.5 8.86916 1.6274 8.64085 1.85437L7.07014 3.42526H4.64022C4.31829 3.42621 4.00981 3.55452 3.78217 3.78216C3.55453 4.0098 3.42622 4.31827 3.42527 4.64021V7.0701L1.85437 8.64099C1.6274 8.86931 1.5 9.17816 1.5 9.5001C1.5 9.82203 1.6274 10.1309 1.85437 10.3592L3.42527 11.9299V14.3598C3.42622 14.6817 3.55453 14.9902 3.78217 15.2178C4.00981 15.4455 4.31829 15.5738 4.64022 15.5747H7.07014L8.64104 17.1456C8.86935 17.3726 9.17821 17.5 9.50014 17.5C9.82208 17.5 10.1309 17.3726 10.3592 17.1456L11.93 15.5747H14.3599C14.6818 15.5738 14.9903 15.4455 15.2179 15.2178C15.4456 14.9902 15.5739 14.6817 15.5748 14.3598V11.9299L17.1457 10.359C17.3726 10.1307 17.5 9.82189 17.5 9.5C17.5 9.17811 17.3726 8.8693 17.1457 8.64099Z" fill="white"/>
<path id="Vector_2" d="M17.1457 8.64099L15.5748 7.0701V4.64021C15.5739 4.31827 15.4456 4.0098 15.2179 3.78216C14.9903 3.55452 14.6818 3.42621 14.3599 3.42526H11.93L10.3591 1.85437C10.1307 1.6274 9.82189 1.5 9.49995 1.5C9.17802 1.5 8.86916 1.6274 8.64085 1.85437L7.07014 3.42526H4.64022C4.31829 3.42621 4.00981 3.55452 3.78217 3.78216C3.55453 4.0098 3.42622 4.31827 3.42527 4.64021V7.0701L1.85437 8.64099C1.6274 8.86931 1.5 9.17816 1.5 9.5001C1.5 9.82203 1.6274 10.1309 1.85437 10.3592L3.42527 11.9299V14.3598C3.42622 14.6817 3.55453 14.9902 3.78217 15.2178C4.00981 15.4455 4.31829 15.5738 4.64022 15.5747H7.07014L8.64104 17.1456C8.86935 17.3726 9.17821 17.5 9.50014 17.5C9.82208 17.5 10.1309 17.3726 10.3592 17.1456L11.93 15.5747H14.3599C14.6818 15.5738 14.9903 15.4455 15.2179 15.2178C15.4456 14.9902 15.5739 14.6817 15.5748 14.3598V11.9299L17.1457 10.359C17.3726 10.1307 17.5 9.82189 17.5 9.5C17.5 9.17811 17.3726 8.8693 17.1457 8.64099ZM9.50005 13.7523L5.85518 7.0701H7.67761L9.50005 10.7149L11.3225 7.0701H13.1449L9.50005 13.7523Z" fill="#0D72FF"/>
</g>
</g>
</svg>
