<svg width="36" height="36" viewBox="0 0 36 36" fill="none" xmlns="http://www.w3.org/2000/svg">
<g id="Frame" clip-path="url(#clip0_1080_3320)">
<g id="Group 2035875981">
<path id="Vector" d="M27.5625 0H8.4375C3.7776 0 0 3.7776 0 8.4375V27.5625C0 32.2224 3.7776 36 8.4375 36H27.5625C32.2224 36 36 32.2224 36 27.5625V8.4375C36 3.7776 32.2224 0 27.5625 0Z" fill="#51A8FF"/>
<path id="Vector_2" d="M8.78956 18.8411C13.163 16.9361 16.0786 15.6801 17.5364 15.0733C21.7036 13.3405 22.5685 13.0396 23.1333 13.0294C23.2575 13.0274 23.5341 13.0581 23.7146 13.204C23.8646 13.327 23.9067 13.4934 23.9278 13.6103C23.9466 13.727 23.9724 13.993 23.9513 14.2007C23.7263 16.5726 22.7489 22.3283 22.2521 24.985C22.0435 26.109 21.6286 26.4859 21.2278 26.5227C20.356 26.6029 19.695 25.9471 18.8513 25.3942C17.5317 24.5286 16.7864 23.9901 15.5044 23.1456C14.0232 22.1697 14.9841 21.6332 15.8278 20.7566C16.0482 20.5272 19.8872 17.0361 19.9599 16.7195C19.9692 16.6799 19.9786 16.5322 19.8896 16.4544C19.8028 16.3764 19.6739 16.4031 19.5802 16.4242C19.4466 16.4542 17.3396 17.8483 13.2521 20.6061C12.6544 21.0172 12.113 21.2176 11.6255 21.2071C11.0911 21.1956 10.0599 20.9043 9.29347 20.6554C8.35597 20.35 7.60831 20.1885 7.67394 19.6698C7.70675 19.3998 8.0794 19.1235 8.78956 18.8411Z" fill="white"/>
</g>
</g>
<defs>
<clipPath id="clip0_1080_3320">
<rect width="36" height="36" fill="white"/>
</clipPath>
</defs>
</svg>
