<svg width="36" height="36" viewBox="0 0 36 36" fill="none" xmlns="http://www.w3.org/2000/svg">
<rect width="36" height="36" rx="18" fill="#008CFF"/>
<path fill-rule="evenodd" clip-rule="evenodd" d="M9.23741 17.4212C14.0692 15.3163 17.2912 13.9285 18.9033 13.258C23.5063 11.3436 24.4627 11.0111 25.0861 11.0001C25.2232 10.9977 25.5298 11.0317 25.7284 11.1928C25.8961 11.3289 25.9422 11.5126 25.9643 11.6416C25.9864 11.7706 26.0139 12.0645 25.992 12.2941C25.7426 14.9147 24.6633 21.2743 24.1142 24.2095C23.8818 25.4514 23.4244 25.8679 22.9815 25.9086C22.0189 25.9972 21.288 25.2726 20.3558 24.6615C18.897 23.7053 18.0729 23.1101 16.6569 22.1771C15.0205 21.0988 16.0813 20.5061 17.0139 19.5375C17.258 19.2841 21.4988 15.427 21.5809 15.0771C21.5912 15.0333 21.6007 14.8702 21.5038 14.784C21.4069 14.6979 21.2639 14.7274 21.1606 14.7508C21.0143 14.784 18.6839 16.3242 14.1694 19.3714C13.5079 19.8256 12.9087 20.0469 12.3719 20.0353C11.7801 20.0225 10.6417 19.7007 9.79548 19.4256C8.75749 19.0883 7.93252 18.9099 8.00436 18.3369C8.04178 18.0385 8.45279 17.7332 9.23741 17.4212Z" fill="white"/>
</svg>
