<svg width="36" height="36" viewBox="0 0 36 36" fill="none" xmlns="http://www.w3.org/2000/svg">
<rect width="36" height="36" rx="18" fill="#AFAFAF"/>
<path fill-rule="evenodd" clip-rule="evenodd" d="M9.68943 24.6175C10.1309 25.059 10.7296 25.307 11.3538 25.307H24.6462C25.2704 25.307 25.8691 25.059 26.3106 24.6175C26.752 24.1761 27 23.5774 27 22.9531V13.3538C27 12.0534 25.9466 11 24.6462 11H11.3538C10.0534 11 9 12.0534 9 13.3538V22.9531C9 23.5774 9.24799 24.1761 9.68943 24.6175ZM24.6462 23.9223H11.3538C10.8188 23.9223 10.3846 23.4892 10.3846 22.9531V15.6674L17.2113 18.9991C17.7097 19.2428 18.2924 19.2428 18.7908 18.9991L25.6154 15.6684V22.9531C25.6154 23.2102 25.5133 23.4567 25.3315 23.6385C25.1497 23.8202 24.9032 23.9223 24.6462 23.9223ZM25.6154 14.1513C25.5587 14.163 25.5036 14.1817 25.4514 14.2072L18.1827 17.7551C18.0686 17.8105 17.9335 17.8105 17.8194 17.7551L10.5507 14.2072C10.4975 14.1812 10.4417 14.1625 10.3846 14.1509V13.3538C10.3846 13.0968 10.4867 12.8503 10.6685 12.6685C10.8503 12.4867 11.0968 12.3846 11.3538 12.3846H24.6462C24.9032 12.3846 25.1497 12.4867 25.3315 12.6685C25.5133 12.8503 25.6154 13.0968 25.6154 13.3538V14.1513Z" fill="white"/>
</svg>
