<svg width="20" height="20" viewBox="0 0 20 20" fill="none" xmlns="http://www.w3.org/2000/svg">
<g id="Telegram - Negative">
<path id="Subtract" d="M18.0864 2.00012C18.2237 1.99752 18.5296 2.03516 18.728 2.21399C18.8955 2.36502 18.9422 2.56873 18.9643 2.71204C18.9864 2.85536 19.0135 3.18251 18.9917 3.43762C18.7422 6.3496 17.6628 13.4157 17.1137 16.6769C16.8814 18.0567 16.4238 18.5193 15.9809 18.5646C15.0186 18.6627 14.288 17.8577 13.3559 17.1788C11.8971 16.1164 11.0727 15.4548 9.6567 14.4181C8.02059 13.2201 9.08157 12.5616 10.0141 11.4855C10.261 11.201 14.4985 6.91806 14.5805 6.52942C14.5908 6.48063 14.6002 6.29986 14.5034 6.20422C14.4065 6.1086 14.2638 6.1411 14.1606 6.16712C14.0143 6.20401 11.6838 7.91522 7.1694 11.3009C6.50792 11.8056 5.90837 12.0521 5.37155 12.0392C4.77971 12.0249 3.64154 11.667 2.79538 11.3615C1.75739 10.9866 0.932525 10.7881 1.00436 10.1515C1.04189 9.81997 1.45246 9.48047 2.23678 9.13391C7.06813 6.79527 10.2905 5.25399 11.9028 4.50891C16.5058 2.38182 17.463 2.01232 18.0864 2.00012Z" fill="white"/>
</g>
</svg>
