<svg width="36" height="36" viewBox="0 0 36 36" fill="none" xmlns="http://www.w3.org/2000/svg">
<g id="Group 2035875984">
<path id="Vector" d="M27.5625 0H8.4375C3.7776 0 0 3.7776 0 8.4375V27.5625C0 32.2224 3.7776 36 8.4375 36H27.5625C32.2224 36 36 32.2224 36 27.5625V8.4375C36 3.7776 32.2224 0 27.5625 0Z" fill="black"/>
<g id="Group 2035875983">
<path id="Vector_2" d="M23.83 15.0314C25.231 16.0323 26.9472 16.6213 28.8007 16.6213V13.0564C28.4499 13.0564 28.1 13.0198 27.7568 12.9473V15.7534C25.9034 15.7534 24.1875 15.1644 22.7861 14.1635V21.4387C22.7861 25.078 19.8345 28.0281 16.1935 28.0281C14.835 28.0281 13.5723 27.6175 12.5234 26.9135C13.7205 28.137 15.3902 28.896 17.2371 28.896C20.8784 28.896 23.8302 25.946 23.8302 22.3066V15.0313M25.118 11.4348C24.3814 10.6326 23.9289 9.61051 23.83 8.52592V8.06738H22.8408C23.0898 9.48707 23.9391 10.6998 25.1178 11.435M14.8263 24.1207C14.4263 23.5965 14.2101 22.9552 14.2112 22.2958C14.2112 20.6314 15.5612 19.2818 17.2269 19.2818C17.5373 19.2818 17.8459 19.3292 18.1417 19.423V15.7785C17.796 15.7313 17.4471 15.7111 17.0982 15.7183V18.5552C16.8022 18.4615 16.4935 18.4138 16.183 18.414C14.5173 18.414 13.1673 19.7634 13.1673 21.4282C13.1673 22.6052 13.8421 23.6242 14.8263 24.1207Z" fill="#FF004F"/>
<path id="Vector_3" d="M22.7854 14.1635C24.1867 15.1644 25.9027 15.7532 27.7562 15.7532V12.9471C26.7405 12.7301 25.8179 12.2015 25.117 11.435C23.9383 10.6998 23.089 9.48693 22.84 8.06738H20.2418V22.3062C20.236 23.9661 18.888 25.3102 17.226 25.3102C16.2465 25.3102 15.3763 24.8435 14.8253 24.1207C13.8413 23.6242 13.1663 22.6052 13.1663 21.4282C13.1663 19.7636 14.5164 18.414 16.1821 18.414C16.5012 18.414 16.8089 18.4637 17.0973 18.5552V15.7185C13.5203 15.7923 10.6436 18.7136 10.6436 22.3063C10.6436 24.0997 11.3599 25.7255 12.5227 26.9135C13.6078 27.6421 14.8858 28.0301 16.1929 28.028C19.8339 28.028 22.7855 25.0778 22.7855 21.4385L22.7854 14.1635Z" fill="white"/>
<path id="Vector_4" d="M27.7568 12.9476V12.1889C26.8239 12.1902 25.9094 11.9291 25.1178 11.4354C25.8185 12.2021 26.7411 12.7307 27.7568 12.9476ZM22.8408 8.06812C22.8171 7.9325 22.7988 7.79598 22.7861 7.65888V7.2002H19.1985V21.4391C19.1927 23.0988 17.8452 24.4428 16.1829 24.4428C15.7117 24.4436 15.2469 24.3335 14.826 24.1214C15.3772 24.8442 16.2473 25.3107 17.2268 25.3107C18.8886 25.3107 20.2368 23.9668 20.2426 22.3069V8.06798L22.8408 8.06812ZM17.0982 15.7192V14.9115C16.7984 14.8706 16.4962 14.8501 16.1937 14.8501C12.5524 14.8498 9.60059 17.8 9.60059 21.4391C9.60059 23.7205 10.7607 25.7312 12.5236 26.914C11.3609 25.7261 10.6445 24.1002 10.6445 22.3067C10.6445 18.7142 13.5211 15.7931 17.0982 15.7192Z" fill="#00F2EA"/>
</g>
</g>
</svg>
