<svg width="36" height="36" viewBox="0 0 36 36" fill="none" xmlns="http://www.w3.org/2000/svg">
<g id="Frame" clip-path="url(#clip0_1080_3312)">
<path id="Vector" d="M13.1706 10.3652L24.6906 25.5302H22.9056L11.2656 10.3652H13.1706Z" fill="black"/>
<path id="Vector_2" d="M27 0H9C6.61305 0 4.32387 0.948211 2.63604 2.63604C0.948211 4.32387 0 6.61305 0 9V27C0 29.3869 0.948211 31.6761 2.63604 33.364C4.32387 35.0518 6.61305 36 9 36H27C29.3869 36 31.6761 35.0518 33.364 33.364C35.0518 31.6761 36 29.3869 36 27V9C36 6.61305 35.0518 4.32387 33.364 2.63604C31.6761 0.948211 29.3869 0 27 0ZM22.824 29.34L16.74 21.42L9.756 29.34H5.904L14.904 19.062L5.4 6.66H13.374L18.882 13.86L25.2 6.66H29.052L20.664 16.2L30.6 29.34H22.824Z" fill="black"/>
</g>
<defs>
<clipPath id="clip0_1080_3312">
<rect width="36" height="36" fill="white"/>
</clipPath>
</defs>
</svg>
