<svg width="20" height="20" viewBox="0 0 20 20" fill="none" xmlns="http://www.w3.org/2000/svg">
<g id="wallet">
<path id="Rectangle 34624436" d="M2.08203 5H16.582C17.3184 5 17.9154 5.59695 17.9154 6.33333V17C17.9154 17.7364 17.3184 18.3333 16.582 18.3333H3.41536C2.67898 18.3333 2.08203 17.7364 2.08203 17V5Z" stroke="white" stroke-width="1.33333"/>
<path id="Rectangle 34624437" d="M14.582 5.00129V3.0013C14.582 2.26492 13.9851 1.66797 13.2487 1.66797H3.41536C2.67898 1.66797 2.08203 2.26492 2.08203 3.0013V5.00129" stroke="white" stroke-width="1.33333"/>
<path id="Rectangle 34624438" d="M12.915 11.499H14.583C14.6746 11.4992 14.749 11.5734 14.749 11.665C14.7489 11.7565 14.6745 11.8308 14.583 11.8311H12.915C12.8234 11.8311 12.7492 11.7566 12.749 11.665C12.749 11.5733 12.8233 11.499 12.915 11.499Z" fill="white" stroke="white" stroke-width="1.33333"/>
</g>
</svg>
