<svg width="20" height="20" viewBox="0 0 20 20" fill="none" xmlns="http://www.w3.org/2000/svg">
<g id="globe-02">
<path id="Union" fill-rule="evenodd" clip-rule="evenodd" d="M10 2C14.4183 2 18 5.58172 18 10C18 14.4183 14.4183 18 10 18C5.58172 18 2 14.4183 2 10C2 5.58172 5.58172 2 10 2ZM4.32656 12.9602C5.12134 14.4803 6.50766 15.6406 8.18125 16.1359C7.55188 15.1519 7.07387 14.0816 6.75938 12.9602H4.32656ZM13.2406 12.9602C12.9261 14.0817 12.4474 15.1518 11.818 16.1359C13.4919 15.6408 14.8786 14.4805 15.6734 12.9602H13.2406ZM8.43125 12.9602C8.78389 14.0328 9.31105 15.045 10 15.9516C10.689 15.045 11.2161 14.0328 11.5688 12.9602H8.43125ZM3.74609 8.63984C3.65119 9.07827 3.6 9.53317 3.6 10C3.6 10.4668 3.65119 10.9217 3.74609 11.3602H6.42812C6.36788 10.9165 6.32972 10.468 6.32031 10.0164C6.32009 10.0055 6.32009 9.99453 6.32031 9.98359C6.32972 9.53199 6.36788 9.08352 6.42812 8.63984H3.74609ZM8.04219 8.63984C7.97162 9.08782 7.92982 9.54211 7.91953 10C7.92982 10.4579 7.97162 10.9122 8.04219 11.3602H11.9578C12.0284 10.9122 12.0694 10.4579 12.0797 10C12.0694 9.54212 12.0284 9.08782 11.9578 8.63984H8.04219ZM13.5719 8.63984C13.6321 9.08352 13.6703 9.53199 13.6797 9.98359V10.0164C13.6703 10.468 13.6321 10.9165 13.5719 11.3602H16.2539C16.3488 10.9217 16.4 10.4668 16.4 10C16.4 9.53317 16.3488 9.07827 16.2539 8.63984H13.5719ZM8.18125 3.86328C6.50757 4.35855 5.12137 5.51964 4.32656 7.03984H6.75938C7.07393 5.91821 7.55171 4.84747 8.18125 3.86328ZM10 4.04766C9.31086 4.95434 8.78396 5.96701 8.43125 7.03984H11.5688C11.216 5.96701 10.6891 4.95434 10 4.04766ZM11.818 3.86328C12.4476 4.84757 12.926 5.91807 13.2406 7.03984H15.6734C14.8785 5.51942 13.492 4.35843 11.818 3.86328Z" fill="white"/>
</g>
</svg>
