<svg width="36" height="36" viewBox="0 0 36 36" fill="none" xmlns="http://www.w3.org/2000/svg">
<rect width="36" height="36" rx="18" fill="#15B1FF"/>
<path d="M24.9225 11.3125C23.6558 10.7221 22.2844 10.2935 20.8557 10.0459C20.8432 10.0455 20.8308 10.0479 20.8192 10.0528C20.8077 10.0578 20.7974 10.0652 20.7891 10.0745C20.6176 10.3888 20.4176 10.7983 20.2843 11.1126C18.769 10.884 17.228 10.884 15.7127 11.1126C15.5794 10.7888 15.3794 10.3888 15.1984 10.0745C15.1889 10.0555 15.1604 10.0459 15.1318 10.0459C13.7032 10.2935 12.3412 10.7221 11.065 11.3125C11.0555 11.3125 11.046 11.3221 11.0364 11.3316C8.44588 15.2076 7.73158 18.9788 8.08397 22.7119C8.08397 22.731 8.09349 22.75 8.11254 22.7595C9.82687 24.0166 11.4745 24.7785 13.1032 25.2832C13.1317 25.2927 13.1603 25.2832 13.1698 25.2642C13.5508 24.7404 13.8937 24.188 14.1889 23.6071C14.2079 23.569 14.1889 23.5309 14.1508 23.5214C13.6079 23.3119 13.0936 23.0643 12.5889 22.7786C12.5508 22.7595 12.5508 22.7024 12.5793 22.6738C12.6841 22.5977 12.7889 22.5119 12.8936 22.4358C12.9127 22.4167 12.9412 22.4167 12.9603 22.4262C16.2366 23.9214 19.77 23.9214 23.0082 22.4262C23.0272 22.4167 23.0558 22.4167 23.0749 22.4358C23.1796 22.5215 23.2844 22.5977 23.3891 22.6834C23.4272 22.7119 23.4272 22.7691 23.3796 22.7881C22.8844 23.0833 22.3605 23.3214 21.8177 23.5309C21.7796 23.5405 21.7701 23.5881 21.7796 23.6166C22.0844 24.1976 22.4272 24.7499 22.7987 25.2737C22.8272 25.2832 22.8558 25.2927 22.8844 25.2832C24.5225 24.7785 26.1702 24.0166 27.8845 22.7595C27.9036 22.75 27.9131 22.731 27.9131 22.7119C28.3321 18.3979 27.2178 14.6552 24.9606 11.3316C24.9511 11.3221 24.9416 11.3125 24.9225 11.3125ZM14.6841 20.4359C13.7032 20.4359 12.8841 19.5311 12.8841 18.4169C12.8841 17.3027 13.6841 16.398 14.6841 16.398C15.6937 16.398 16.4937 17.3122 16.4842 18.4169C16.4842 19.5311 15.6842 20.4359 14.6841 20.4359ZM21.3224 20.4359C20.3414 20.4359 19.5224 19.5311 19.5224 18.4169C19.5224 17.3027 20.3224 16.398 21.3224 16.398C22.332 16.398 23.132 17.3122 23.1225 18.4169C23.1225 19.5311 22.332 20.4359 21.3224 20.4359Z" fill="white"/>
</svg>
